<svg width="17" height="24" viewBox="0 0 17 24" fill="none" xmlns="http://www.w3.org/2000/svg">
<path d="M15.4451 0H1.45625C0.653315 0 0 0.653315 0 1.45625V22.5438C0 23.3467 0.653315 24 1.45625 24H15.4451C16.248 24 16.9013 23.3467 16.9013 22.5438V1.45625C16.9013 0.653315 16.248 0 15.4451 0ZM15.6531 22.5438C15.6531 22.6585 15.5598 22.7518 15.4451 22.7518H1.45625C1.34158 22.7518 1.24821 22.6585 1.24821 22.5438V1.45625C1.24821 1.3415 1.34158 1.24821 1.45625 1.24821H15.4451C15.5598 1.24821 15.6531 1.3415 15.6531 1.45625V22.5438Z" fill="#A6A4A8"/>
<path d="M13.7807 2.49658H3.12045C2.77577 2.49658 2.49634 2.77593 2.49634 3.12069V7.67301C2.49634 8.01777 2.77577 8.29712 3.12045 8.29712H13.7807C14.1255 8.29712 14.4048 8.01777 14.4048 7.67301V3.12069C14.4048 2.77593 14.1255 2.49658 13.7807 2.49658ZM13.1566 7.0489H3.74455V3.7448H13.1566V7.0489Z" fill="#A6A4A8"/>
<path d="M5.54581 9.65088H3.12045C2.77577 9.65088 2.49634 9.93023 2.49634 10.275V12.7003C2.49634 13.045 2.77577 13.3244 3.12045 13.3244H5.54581C5.89048 13.3244 6.16992 13.045 6.16992 12.7003V10.275C6.16992 9.93023 5.89048 9.65088 5.54581 9.65088ZM4.9217 12.0762H3.74455V10.8991H4.9217V12.0762Z" fill="#A6A4A8"/>
<path d="M9.66324 9.65088H7.23788C6.8932 9.65088 6.61377 9.93023 6.61377 10.275V12.7003C6.61377 13.045 6.8932 13.3244 7.23788 13.3244H9.66324C10.008 13.3244 10.2873 13.045 10.2873 12.7003V10.275C10.2873 9.93023 10.0079 9.65088 9.66324 9.65088ZM9.03913 12.0762H7.86198V10.8991H9.03913V12.0762Z" fill="#A6A4A8"/>
<path d="M13.7808 9.65088H11.3554C11.0107 9.65088 10.7313 9.93023 10.7313 10.275V12.7003C10.7313 13.045 11.0107 13.3244 11.3554 13.3244H13.7808C14.1256 13.3244 14.4049 13.045 14.4049 12.7003V10.275C14.4049 9.93023 14.1256 9.65088 13.7808 9.65088ZM13.1567 12.0762H11.9795V10.8991H13.1567V12.0762Z" fill="#A6A4A8"/>
<path d="M5.54581 13.7402H3.12045C2.77577 13.7402 2.49634 14.0196 2.49634 14.3643V16.7897C2.49634 17.1345 2.77577 17.4138 3.12045 17.4138H5.54581C5.89048 17.4138 6.16992 17.1345 6.16992 16.7897V14.3643C6.16992 14.0197 5.89048 13.7402 5.54581 13.7402ZM4.9217 16.1657H3.74455V14.9884H4.9217V16.1657Z" fill="#A6A4A8"/>
<path d="M9.66336 13.7402H7.238C6.89332 13.7402 6.61389 14.0196 6.61389 14.3643V16.7897C6.61389 17.1345 6.89332 17.4138 7.238 17.4138H9.66336C10.0081 17.4138 10.2875 17.1345 10.2875 16.7897V14.3643C10.2875 14.0197 10.008 13.7402 9.66336 13.7402ZM9.03926 16.1657H7.86211V14.9884H9.03926V16.1657Z" fill="#A6A4A8"/>
<path d="M5.54581 17.8301H3.12045C2.77577 17.8301 2.49634 18.1094 2.49634 18.4542V20.8795C2.49634 21.2243 2.77577 21.5037 3.12045 21.5037H5.54581C5.89048 21.5037 6.16992 21.2243 6.16992 20.8795V18.4542C6.16992 18.1094 5.89048 17.8301 5.54581 17.8301ZM4.9217 20.2554H3.74455V19.0782H4.9217V20.2554Z" fill="#A6A4A8"/>
<path d="M9.66336 17.8301H7.238C6.89332 17.8301 6.61389 18.1094 6.61389 18.4542V20.8795C6.61389 21.2243 6.89332 21.5037 7.238 21.5037H9.66336C10.0081 21.5037 10.2875 21.2243 10.2875 20.8795V18.4542C10.2875 18.1094 10.008 17.8301 9.66336 17.8301ZM9.03926 20.2554H7.86211V19.0782H9.03926V20.2554Z" fill="#A6A4A8"/>
<path d="M13.7808 13.7402H11.3554C11.0107 13.7402 10.7313 14.0196 10.7313 14.3643V20.8794C10.7313 21.2241 11.0107 21.5035 11.3554 21.5035H13.7808C14.1256 21.5035 14.4049 21.2241 14.4049 20.8794V14.3643C14.4049 14.0197 14.1256 13.7402 13.7808 13.7402ZM13.1567 20.2552H11.9795V14.9884H13.1567V20.2552Z" fill="#A6A4A8"/>
</svg>
