<svg width="40" height="40" viewBox="0 0 40 40" fill="none" xmlns="http://www.w3.org/2000/svg">
<path d="M6.875 9.875V11.0312H36.2188V25.8438H37.3438V9.875H6.875Z" fill="#FCFDFF"/>
<path d="M4.78125 13.125H34.125V27.9375H35.25V12H4.78125V13.125Z" fill="#FCFDFF"/>
<path d="M7.46875 14.1875H2.65625V19V25.3125V30.125H7.46875H28.3125H33.125V25.3125V19V14.1875H28.3125H7.46875ZM31.875 18.8125V25.4375C30.2188 25.875 28.9375 27.1875 28.4688 28.875H7.28125C6.84375 27.1875 5.53125 25.9062 3.875 25.4375V18.8125C5.53125 18.375 6.8125 17.0625 7.28125 15.375H28.4688C28.875 17.0625 30.1875 18.375 31.875 18.8125Z" fill="#FCFDFF"/>
<path d="M17.875 27.7812C20.9816 27.7812 23.5 25.2629 23.5 22.1562C23.5 19.0496 20.9816 16.5312 17.875 16.5312C14.7684 16.5312 12.25 19.0496 12.25 22.1562C12.25 25.2629 14.7684 27.7812 17.875 27.7812Z" fill="#FCFDFF"/>
<path d="M19.8488 21.8817H19.293V21.3475H19.8488C19.9323 21.3475 20 21.2799 20 21.1963C20 21.1128 19.9323 21.0451 19.8488 21.0451H19.293V20.3039C19.293 20.1957 19.2716 20.1163 19.2294 20.0679C19.1894 20.0219 19.1367 20.0005 19.0638 20.0005C18.9942 20.0005 18.9435 20.0218 18.9042 20.0675C18.8626 20.1159 18.8414 20.1955 18.8414 20.304V21.0452H17.7959L17.3513 20.3725C17.3133 20.3125 17.2775 20.2562 17.2428 20.2023C17.2115 20.1536 17.181 20.1141 17.1522 20.0845C17.1267 20.0583 17.0976 20.0381 17.0636 20.0225C17.0315 20.0079 16.9907 20.0005 16.9425 20.0005C16.8809 20.0005 16.8251 20.0174 16.7716 20.052C16.7186 20.0863 16.682 20.1287 16.6597 20.1816C16.6401 20.2318 16.6297 20.3088 16.6297 20.4083V21.0452H16.0794C15.9959 21.0452 15.9282 21.1129 15.9282 21.1964C15.9282 21.2799 15.9959 21.3476 16.0794 21.3476H16.6297V21.8818H16.0794C15.9959 21.8818 15.9282 21.9495 15.9282 22.033C15.9282 22.1165 15.9959 22.1841 16.0794 22.1841H16.6297V23.0304C16.6297 23.1354 16.6518 23.214 16.6955 23.264C16.737 23.3116 16.7897 23.3337 16.8613 23.3337C16.9303 23.3337 16.9826 23.3115 17.0259 23.2638C17.0703 23.2149 17.0928 23.1363 17.0928 23.0304V22.1841H18.0389L18.5509 22.9692C18.5865 23.0211 18.6232 23.0735 18.6599 23.1249C18.693 23.171 18.729 23.2116 18.7671 23.2456C18.8014 23.2763 18.8382 23.2988 18.8764 23.3125C18.9157 23.3266 18.9617 23.3338 19.0127 23.3338C19.1511 23.3338 19.293 23.2914 19.293 22.9771V22.1841H19.8488C19.9323 22.1841 20 22.1164 20 22.0329C20 21.9494 19.9323 21.8817 19.8488 21.8817ZM18.8414 21.3475V21.8817H18.3488L17.9958 21.3475H18.8414ZM17.0928 20.7337L17.296 21.0451H17.0928V20.7337ZM17.0928 21.8817V21.3475H17.4932L17.8416 21.8817H17.0928ZM18.8414 22.6273L18.5486 22.1841H18.8414V22.6273Z" fill="#2196F3"/>
<path d="M19.8488 21.8817H19.293V21.3475H19.8488C19.9323 21.3475 20 21.2799 20 21.1963C20 21.1128 19.9323 21.0451 19.8488 21.0451H19.293V20.3039C19.293 20.1957 19.2716 20.1163 19.2294 20.0679C19.1894 20.0219 19.1367 20.0005 19.0638 20.0005C18.9942 20.0005 18.9435 20.0218 18.9042 20.0675C18.8626 20.1159 18.8414 20.1955 18.8414 20.304V21.0452H17.7959L17.3513 20.3725C17.3133 20.3125 17.2775 20.2562 17.2428 20.2023C17.2115 20.1536 17.181 20.1141 17.1522 20.0845C17.1267 20.0583 17.0976 20.0381 17.0636 20.0225C17.0315 20.0079 16.9907 20.0005 16.9425 20.0005C16.8809 20.0005 16.8251 20.0174 16.7716 20.052C16.7186 20.0863 16.682 20.1287 16.6597 20.1816C16.6401 20.2318 16.6297 20.3088 16.6297 20.4083V21.0452H16.0794C15.9959 21.0452 15.9282 21.1129 15.9282 21.1964C15.9282 21.2799 15.9959 21.3476 16.0794 21.3476H16.6297V21.8818H16.0794C15.9959 21.8818 15.9282 21.9495 15.9282 22.033C15.9282 22.1165 15.9959 22.1841 16.0794 22.1841H16.6297V23.0304C16.6297 23.1354 16.6518 23.214 16.6955 23.264C16.737 23.3116 16.7897 23.3337 16.8613 23.3337C16.9303 23.3337 16.9826 23.3115 17.0259 23.2638C17.0703 23.2149 17.0928 23.1363 17.0928 23.0304V22.1841H18.0389L18.5509 22.9692C18.5865 23.0211 18.6232 23.0735 18.6599 23.1249C18.693 23.171 18.729 23.2116 18.7671 23.2456C18.8014 23.2763 18.8382 23.2988 18.8764 23.3125C18.9157 23.3266 18.9617 23.3338 19.0127 23.3338C19.1511 23.3338 19.293 23.2914 19.293 22.9771V22.1841H19.8488C19.9323 22.1841 20 22.1164 20 22.0329C20 21.9494 19.9323 21.8817 19.8488 21.8817ZM18.8414 21.3475V21.8817H18.3488L17.9958 21.3475H18.8414ZM17.0928 20.7337L17.296 21.0451H17.0928V20.7337ZM17.0928 21.8817V21.3475H17.4932L17.8416 21.8817H17.0928ZM18.8414 22.6273L18.5486 22.1841H18.8414V22.6273Z" fill="white" fill-opacity="0.9"/>
</svg>
