<svg width="80" height="80" viewBox="0 0 80 80" fill="none" xmlns="http://www.w3.org/2000/svg">
<path d="M79.5117 27.657L61.7737 9.91916C61.7723 9.91791 61.7717 9.91682 61.7704 9.91572C61.7695 9.91447 61.7681 9.91369 61.7672 9.9126L52.3424 0.488204C51.6915 -0.162735 50.6365 -0.162735 49.9853 0.488204L40.5626 9.91088C40.5606 9.91275 40.5587 9.914 40.5571 9.91572C40.5551 9.9176 40.5538 9.91932 40.5523 9.92104L9.91658 40.5566C9.91627 40.5567 9.91627 40.5569 9.91596 40.557C9.91596 40.5572 9.91564 40.5573 9.91564 40.5575L0.48797 49.9852C-0.162657 50.636 -0.162657 51.6913 0.48797 52.3424L24.8113 76.6659H23.3329C22.4127 76.6659 21.6661 77.4123 21.6661 78.3326C21.6661 79.2529 22.4122 79.9993 23.3329 79.9993L28.8226 79.9995C28.8271 79.9995 28.8318 80.0001 28.8362 80.0001C28.8405 80.0001 28.8454 79.9995 28.8497 79.9995L56.6659 80.0001C57.5864 80.0001 58.3326 79.254 58.3326 78.3334C58.3326 77.413 57.5865 76.6666 56.6659 76.6666L32.8604 76.666L70.0826 39.4433C70.083 39.4431 70.0833 39.4428 70.0833 39.4427C70.0836 39.4425 70.0839 39.4422 70.0839 39.4419L79.5116 30.0144C80.1625 29.3634 80.1625 28.3079 79.5117 27.657ZM51.1639 4.02368L58.1509 11.0106C56.1448 12.5173 53.7173 13.3332 51.1639 13.3332C48.6106 13.3332 46.1831 12.5173 44.1768 11.0104L51.1639 4.02368ZM28.8362 75.9762L21.8505 68.9905C25.9761 65.9016 31.6958 65.9016 35.8219 68.9905L28.8362 75.9762ZM68.9894 35.8228C67.5717 33.9303 66.7601 31.6505 66.674 29.2548C66.6412 28.3348 65.8615 27.6133 64.9484 27.6492C64.0284 27.6822 63.3098 28.4547 63.3429 29.3747C63.4595 32.6167 64.6118 35.6919 66.6158 38.1964L38.1971 66.6152C37.2893 65.8888 36.3159 65.2836 35.2987 64.7993L36.8987 63.1991C37.5496 62.5483 37.5496 61.4932 36.8987 60.8421C36.248 60.1911 35.1923 60.1913 34.5415 60.8422L31.7576 63.6263C27.5274 62.7926 23.0065 63.7896 19.4747 66.6151L4.02376 51.1639L11.0105 44.177C12.4282 46.0692 13.2397 48.3492 13.3258 50.7453C13.358 51.6447 14.0974 52.3522 14.9902 52.3522C15.0103 52.3522 15.0308 52.3519 15.051 52.351C15.971 52.318 16.69 51.5455 16.6568 50.6255C16.5402 47.3831 15.3878 44.3078 13.3839 41.8033L41.8024 13.3849C42.7013 14.1057 43.6702 14.7164 44.6945 15.2067L43.1006 16.8004C42.4499 17.4512 42.4499 18.5065 43.1006 19.1576C43.426 19.4829 43.8526 19.6457 44.2791 19.6457C44.7057 19.6457 45.132 19.4829 45.4574 19.1576L48.2331 16.3821C49.1881 16.5701 50.1685 16.6668 51.1635 16.6668C54.6089 16.6668 57.8753 15.5101 60.525 13.3851L75.9756 28.8359L68.9894 35.8228Z" fill="#32496F"/>
<path d="M14.8167 53.9289C13.9465 53.6299 12.9979 54.0916 12.6977 54.9619C12.6177 55.195 12.5284 55.4291 12.4334 55.6569C12.0792 56.5066 12.4806 57.4824 13.3303 57.8368C13.5399 57.9243 13.7574 57.9658 13.9712 57.9658C14.6235 57.9658 15.2431 57.58 15.5099 56.9404C15.632 56.6477 15.7463 56.3474 15.8495 56.0478C16.1495 55.1774 15.687 54.2288 14.8167 53.9289Z" fill="#32496F"/>
<path d="M47.7196 32.28C45.1457 29.7064 41.7352 28.23 38.3621 28.23C35.558 28.23 32.9865 29.2569 31.1216 31.1217C29.0229 33.2206 28.0096 36.1308 28.2688 39.3161C28.5197 42.3995 29.9443 45.3839 32.2802 47.7197C34.8537 50.2938 38.2643 51.77 41.6374 51.77C44.4418 51.77 47.0131 50.743 48.8779 48.8783C50.977 46.7794 51.9899 43.8692 51.7307 40.6839C51.4803 37.6005 50.0557 34.6158 47.7196 32.28ZM46.5212 46.521C45.2859 47.7561 43.5512 48.4364 41.6373 48.4364C39.1418 48.4364 36.5904 47.316 34.6369 45.3625C32.8596 43.5852 31.7779 41.3419 31.5913 39.0456C31.4127 36.8514 32.0832 34.8744 33.4787 33.4787C34.714 32.2436 36.4484 31.5634 38.3623 31.5634C40.8577 31.5634 43.4092 32.6837 45.3626 34.6372C47.1399 36.4144 48.2217 38.6578 48.4084 40.9539C48.587 43.1483 47.9167 45.1253 46.5212 46.521Z" fill="#32496F"/>
<path d="M40.0368 23.888C40.4636 23.888 40.8899 23.7252 41.2155 23.3998L41.9225 22.6928C42.5732 22.042 42.5732 20.9867 41.9225 20.3356C41.2716 19.685 40.2166 19.685 39.5654 20.3356L38.8583 21.0427C38.2074 21.6934 38.2074 22.7488 38.8583 23.3998C39.1839 23.7253 39.6102 23.888 40.0368 23.888Z" fill="#32496F"/>
<path d="M38.7848 56.5981L38.0774 57.3054C37.4265 57.9562 37.4265 59.0117 38.0774 59.6626C38.4029 59.9879 38.8295 60.1507 39.2557 60.1507C39.6826 60.1507 40.1088 59.9879 40.4345 59.6626L41.1418 58.9553C41.7924 58.3045 41.7924 57.2492 41.1418 56.5981C40.4909 55.9471 39.4359 55.9471 38.7848 56.5981Z" fill="#32496F"/>
<path d="M65.183 26.0717C65.3627 26.1336 65.546 26.1631 65.726 26.1631C66.4174 26.1631 67.0638 25.7294 67.3018 25.0387C67.3824 24.8039 67.4714 24.5706 67.5658 24.345C67.9207 23.4956 67.5204 22.5195 66.671 22.1644C65.8219 21.8098 64.8452 22.2098 64.4903 23.0592C64.3686 23.3501 64.2544 23.6511 64.1502 23.9531C63.8503 24.8233 64.3128 25.7719 65.183 26.0717Z" fill="#32496F"/>
<path d="M26.3883 56.946C28.2291 56.946 29.7214 55.4538 29.7214 53.6129C29.7214 51.7721 28.2291 50.2798 26.3883 50.2798C24.5475 50.2798 23.0552 51.7721 23.0552 53.6129C23.0552 55.4538 24.5475 56.946 26.3883 56.946Z" fill="#32496F"/>
<path d="M53.6117 29.7232C55.4527 29.7232 56.945 28.2309 56.945 26.3899C56.945 24.549 55.4527 23.0566 53.6117 23.0566C51.7708 23.0566 50.2784 24.549 50.2784 26.3899C50.2784 28.2309 51.7708 29.7232 53.6117 29.7232Z" fill="#32496F"/>
</svg>
