<svg width="80" height="80" viewBox="0 0 80 80" fill="none" xmlns="http://www.w3.org/2000/svg">
<g clip-path="url(#clip0_977_24696)">
<path d="M77.4133 14.5865C76.632 13.8051 75.3666 13.8051 74.5853 14.5865L40 49.1719L21.4133 30.5865C20.6319 29.8051 19.3666 29.8051 18.5853 30.5865C17.8041 31.3679 17.8041 32.6333 18.5853 33.4145L38.5853 53.4145C38.9759 53.8051 39.488 53.9998 40 53.9998C40.512 53.9998 41.0241 53.8039 41.4133 53.4145L77.4133 17.4145C78.1947 16.6331 78.1947 15.3678 77.4133 14.5865Z" fill="#3B873E"/>
<path d="M76.5959 23.8894L73.52 26.9641C75.1 31.0133 76 35.3986 76 40C76 59.8506 59.8506 76 40 76C20.1494 76 4 59.8506 4 40C4 20.1494 20.1494 4 40 4C50.8186 4 60.5133 8.81859 67.1188 16.3973L69.9587 13.5573C62.6294 5.26141 51.9414 0 40 0C17.9094 0 0 17.9094 0 40C0 62.0906 17.9094 80 40 80C62.0906 80 80 62.0906 80 40C80 34.2641 78.7706 28.8214 76.5959 23.8894Z" fill="#3B873E"/>
</g>
<defs>
<clipPath id="clip0_977_24696">
<rect width="80" height="80" fill="white"/>
</clipPath>
</defs>
</svg>
