<svg width="80" height="80" viewBox="0 0 80 80" fill="none" xmlns="http://www.w3.org/2000/svg">
<g clip-path="url(#clip0_1263_18094)">
<path d="M17.3732 72H17.3585C16.6238 72 16.0332 72.5973 16.0332 73.3333C16.0332 74.0692 16.6359 74.6666 17.3732 74.6666C18.1091 74.6666 18.7065 74.0692 18.7065 73.3333C18.7065 72.5973 18.1093 72 17.3732 72Z" fill="#32496F"/>
<path d="M38.6668 74.6666H41.3335C42.0708 74.6666 42.6668 74.0692 42.6668 73.3333C42.6668 72.5973 42.0708 72 41.3335 72H38.6668C37.9294 72 37.3335 72.5973 37.3335 73.3333C37.3335 74.0692 37.9294 74.6666 38.6668 74.6666Z" fill="#32496F"/>
<path d="M57.3333 58.6665H38.6668C37.9294 58.6665 37.3335 59.2638 37.3335 59.9998C37.3335 60.7357 37.9294 61.3331 38.6668 61.3331H57.3335C58.0708 61.3331 58.6668 60.7357 58.6668 59.9998C58.6668 59.2638 58.0707 58.6665 57.3333 58.6665Z" fill="#32496F"/>
<path d="M30.6667 34.6665H4C1.79469 34.6665 0 36.4612 0 38.6665V75.9998C0 78.2051 1.79469 79.9998 4 79.9998H30.6667C32.872 79.9998 34.6667 78.2051 34.6667 75.9998V38.6665C34.6667 36.4612 32.872 34.6665 30.6667 34.6665ZM32 75.9998C32 76.7345 31.4027 77.3331 30.6667 77.3331H4C3.26406 77.3331 2.66672 76.7345 2.66672 75.9998V38.6665C2.66672 37.9318 3.26406 37.3332 4 37.3332H30.6667C31.4027 37.3332 32 37.9318 32 38.6665V75.9998V75.9998Z" fill="#32496F"/>
<path d="M52.0001 72H48.0001V65.3333C48.0001 64.5973 47.4041 64 46.6668 64C45.9294 64 45.3335 64.5973 45.3335 65.3333V73.3333C45.3335 74.0692 45.9294 74.6666 46.6668 74.6666H52.0001C54.508 74.6666 55.4468 76.148 55.796 77.3333H38.6668C37.9294 77.3333 37.3335 77.9306 37.3335 78.6666C37.3335 79.4025 37.9294 79.9998 38.6668 79.9998H57.3335C58.0708 79.9998 58.6668 79.4025 58.6668 78.6666C58.6668 76.3614 57.2733 72 52.0001 72Z" fill="#32496F"/>
<path d="M40.0002 55.9999C41.4708 55.9999 42.6669 54.804 42.6669 53.3332C42.6669 51.8626 41.471 50.6665 40.0002 50.6665C38.5308 50.6665 37.3335 51.8624 37.3335 53.3332C37.3335 54.804 38.5308 55.9999 40.0002 55.9999Z" fill="#32496F"/>
<path d="M76.0002 45.3335H65.3335C63.1282 45.3335 61.3335 47.1282 61.3335 49.3335V76.0002C61.3335 78.2055 63.1282 80.0002 65.3335 80.0002H76.0002C78.2055 80.0002 80.0002 78.2055 80.0002 76.0002V49.3335C80.0002 47.1282 78.2055 45.3335 76.0002 45.3335ZM77.3335 76.0002C77.3335 76.7349 76.7362 77.3335 76.0002 77.3335H65.3335C64.5976 77.3335 64.0002 76.7349 64.0002 76.0002V49.3335C64.0002 48.5988 64.5976 48.0002 65.3335 48.0002H76.0002C76.7362 48.0002 77.3335 48.5988 77.3335 49.3335V76.0002Z" fill="#32496F"/>
<path d="M73.3333 0H6.66672C2.99062 0 0 2.99062 0 6.66672V30.6667C0 31.4027 0.595938 32 1.33328 32C2.07062 32 2.66656 31.4027 2.66656 30.6667V6.66672C2.66656 4.46141 4.46125 2.66672 6.66656 2.66672H73.3333C75.5386 2.66672 77.3333 4.46141 77.3333 6.66672V41.3334C77.3333 42.0694 77.9292 42.6667 78.6666 42.6667C79.4039 42.6667 79.9998 42.0694 79.9998 41.3334V6.66672C80 2.99062 77.0094 0 73.3333 0Z" fill="#32496F"/>
<path d="M70.7067 72H70.692C69.9573 72 69.3667 72.5973 69.3667 73.3333C69.3667 74.0692 69.9694 74.6666 70.7067 74.6666C71.4426 74.6666 72.04 74.0692 72.04 73.3333C72.04 72.5973 71.4426 72 70.7067 72Z" fill="#32496F"/>
<path d="M57.3333 45.3335H38.6668C37.9294 45.3335 37.3335 45.9308 37.3335 46.6668C37.3335 47.4027 37.9294 48.0001 38.6668 48.0001H57.3335C58.0708 48.0001 58.6668 47.4027 58.6668 46.6668C58.6668 45.9308 58.0707 45.3335 57.3333 45.3335Z" fill="#32496F"/>
<path d="M70.6668 13.3332C71.0082 13.3332 71.3495 13.2026 71.6095 12.9426C72.1309 12.4212 72.1309 11.5785 71.6095 11.0573L68.9428 8.39057C68.4213 7.86916 67.5787 7.86916 67.0574 8.39057C66.5362 8.91197 66.5362 9.75463 67.0574 10.2759L69.7242 12.9426C69.9842 13.2026 70.3254 13.3332 70.6668 13.3332Z" fill="#32496F"/>
<path d="M70.6668 21.3332C71.0082 21.3332 71.3495 21.2026 71.6095 20.9426C72.1309 20.4212 72.1309 19.5785 71.6095 19.0573L60.9428 8.39057C60.4215 7.86916 59.5787 7.86916 59.0574 8.39057C58.5362 8.91197 58.5362 9.75463 59.0574 10.2759L69.7242 20.9426C69.9842 21.2026 70.3254 21.3332 70.6668 21.3332Z" fill="#32496F"/>
</g>
<defs>
<clipPath id="clip0_1263_18094">
<rect width="80" height="80" fill="white"/>
</clipPath>
</defs>
</svg>
