<svg width="66" height="72" viewBox="0 0 66 72" fill="none" xmlns="http://www.w3.org/2000/svg">
<path d="M43 12.3125C42.0938 11.6562 41.125 11.0937 40.1094 10.6406C38.8438 10.0625 37.5 9.64061 36.125 9.39061C34.0938 9.01561 31.8906 9.03123 29.8594 9.43748C28.5781 9.68748 27.3125 10.0937 26.1094 10.6406C25.625 10.8594 25.1406 11.1094 24.6563 11.3906C20.9219 13.5469 18.1719 17.0156 16.9375 21.125C16.4687 22.7031 16.2188 24.3437 16.2188 26.0156C16.2188 26.3281 16.2344 26.6406 16.25 26.9219C16.5781 33.2656 20.3906 38.8281 26.2031 41.4219C28.375 42.4062 30.7031 42.8906 33.1094 42.8906C35.5156 42.8906 37.8438 42.3906 40.0156 41.4219C46.0781 38.7031 49.9844 32.6562 49.9844 26.0156C49.9844 20.5937 47.375 15.4687 43 12.3125ZM39.125 39.3906C37.2344 40.2344 35.2187 40.6719 33.125 40.6719C31.0312 40.6719 29 40.2344 27.1094 39.3906C22.0625 37.125 18.75 32.2812 18.4531 26.7656C18.4375 26.5156 18.4375 26.2656 18.4375 25.9844C18.4375 24.5312 18.6406 23.0937 19.0625 21.7344C20.1406 18.1562 22.5313 15.1406 25.7812 13.2656C26.2031 13.0312 26.625 12.8125 27.0313 12.6094C28.0781 12.1406 29.1719 11.7812 30.2813 11.5625C31.2031 11.375 32.1563 11.2812 33.1094 11.2812C34 11.2812 34.875 11.3594 35.7344 11.5156C36.9375 11.7344 38.0938 12.0937 39.2031 12.6094C40.0781 13.0156 40.9219 13.5 41.7188 14.0625C45.5312 16.8281 47.8125 21.2656 47.8125 25.9687C47.7969 31.7656 44.3906 37.0312 39.125 39.3906Z" fill="#32496F"/>
<path d="M42.1875 20.4688C42.1719 20.4375 42.1563 20.4219 42.1406 20.3906C40.7188 18.1094 38.5156 16.4531 35.9219 15.75C35.0156 15.5 34.0781 15.375 33.1094 15.375C29.4063 15.375 26.0469 17.25 24.0937 20.3906C24.0781 20.4219 24.0625 20.4375 24.0469 20.4688C23.8906 20.7031 23.75 20.9687 23.625 21.2187C22.875 22.7031 22.5 24.3125 22.5 25.9844C22.5 26.3125 22.5156 26.6094 22.5312 26.8594C22.7969 30.2031 24.6875 33.2656 27.5625 35.0312C29.2344 36.0625 31.1406 36.5937 33.1094 36.5937C38.9688 36.5937 43.7188 31.8281 43.7188 25.9844C43.7188 24.4375 43.3906 22.9375 42.75 21.5469C42.5781 21.1719 42.3906 20.8125 42.1875 20.4688ZM33.1094 34.4219C31.5469 34.4219 30.0313 34 28.7031 33.1719C26.4219 31.7656 24.9219 29.3438 24.7031 26.6719C24.6875 26.4688 24.6719 26.25 24.6719 25.9844C24.6719 24.6562 24.9687 23.375 25.5625 22.2031C25.6719 21.9844 25.7813 21.7813 25.9063 21.5938C25.9219 21.5781 25.9219 21.5625 25.9375 21.5469C27.4844 19.0625 30.1563 17.5781 33.0938 17.5781C33.8594 17.5781 34.6094 17.6719 35.3281 17.875C37.375 18.4375 39.125 19.7344 40.25 21.5469C40.2656 21.5625 40.2656 21.5781 40.2813 21.5938C40.4531 21.8594 40.6094 22.1562 40.75 22.4844C41.2656 23.5938 41.5156 24.7813 41.5156 26.0156C41.5469 30.6406 37.7656 34.4219 33.1094 34.4219Z" fill="#32496F"/>
<path d="M38.2188 26.522H36.7258V25.0871H38.2188C38.4431 25.0871 38.625 24.9054 38.625 24.681C38.625 24.4566 38.4431 24.2748 38.2188 24.2748H36.7258V22.2838C36.7258 21.9932 36.6683 21.7798 36.5551 21.6499C36.4475 21.5263 36.306 21.4688 36.1101 21.4688C35.9232 21.4688 35.787 21.5259 35.6815 21.6487C35.5696 21.7788 35.5128 21.9925 35.5128 22.2839V24.2751H32.7043L31.5102 22.4681C31.408 22.3068 31.3119 22.1558 31.2186 22.0108C31.1346 21.8802 31.0526 21.7738 30.9752 21.6945C30.9067 21.6242 30.8286 21.5698 30.7373 21.528C30.6511 21.4886 30.5416 21.4689 30.4119 21.4689C30.2466 21.4689 30.0966 21.5142 29.9529 21.6072C29.8107 21.6993 29.7124 21.8131 29.6523 21.9551C29.5996 22.0901 29.5717 22.297 29.5717 22.5641V24.2749H28.0935C27.8692 24.275 27.6875 24.4567 27.6875 24.6811C27.6875 24.9055 27.8692 25.0872 28.0936 25.0872H29.5718V26.5223H28.0936C27.8692 26.5223 27.6875 26.704 27.6875 26.9285C27.6875 27.1528 27.8692 27.3344 28.0936 27.3344H29.5718V29.6076C29.5718 29.8897 29.631 30.1008 29.7484 30.235C29.86 30.363 30.0016 30.4224 30.1938 30.4224C30.3792 30.4224 30.5197 30.3627 30.6361 30.2345C30.7554 30.1032 30.8157 29.8922 30.8157 29.6077V27.3344H33.3571L34.7323 29.4432C34.828 29.5826 34.9267 29.7233 35.0252 29.8613C35.114 29.9852 35.211 30.0943 35.3132 30.1855C35.4053 30.268 35.5041 30.3284 35.6067 30.3653C35.7124 30.4033 35.8358 30.4226 35.9729 30.4226C36.3448 30.4226 36.7257 30.3088 36.7257 29.4644V27.3344H38.2188C38.4431 27.3344 38.625 27.1525 38.625 26.9282C38.625 26.7039 38.4431 26.522 38.2188 26.522ZM35.5128 25.0871V26.522H34.1895L33.2413 25.0871H35.5128ZM30.8157 23.4383L31.3614 24.2748H30.8157V23.4383ZM30.8157 26.522V25.0871H31.8913L32.8273 26.522H30.8157ZM35.5128 28.5248L34.7264 27.3344H35.5128V28.5248Z" fill="#32496F"/>
<path d="M57.7969 1.09375C57.5938 0.75 57.2344 0.546875 56.8438 0.546875H9.375C8.98438 0.546875 8.625 0.75 8.42188 1.09375L0.921875 14C0.71875 14.3438 0.71875 14.75 0.921875 15.0938C1.125 15.4375 1.48438 15.6406 1.875 15.6406H8.625V50.0781H1.64063C1.03125 50.0781 0.546875 50.5625 0.546875 51.1719V70.3438C0.546875 70.9531 1.03125 71.4375 1.64063 71.4375H11.9688C12.5781 71.4375 13.0625 70.9531 13.0625 70.3438V67.375L46.5625 68.9688C46.5781 68.9688 46.5938 68.9688 46.6094 68.9688C46.9531 68.9688 47.2656 68.8125 47.4688 68.5469L60.9844 51.1562C61.4844 50.5156 61.75 49.7344 61.75 48.9062C61.75 47.5938 61.0313 46.3594 59.8906 45.7188C59.1719 45.3125 58.375 45.1719 57.5938 45.2656V15.6406H64.3594C64.75 15.6406 65.1094 15.4375 65.3125 15.0938C65.5156 14.75 65.5 14.3438 65.3125 14L57.7969 1.09375ZM10.875 69.25H2.73438V52.2812H9.71875H10.875V55.0625V66.2344V69.25ZM58.8125 47.625C59.2813 47.8906 59.5625 48.375 59.5625 48.9062C59.5625 49.2344 59.4531 49.5469 59.25 49.8125L46.0938 66.75L13.0625 65.1875V55.6094L23.7656 47.8125L42.2656 51.2031L42.2188 51.4688L29.9844 53.4687C29.4688 53.5469 29.0938 53.9844 29.0625 54.4844C29.0313 55 29.375 55.4687 29.875 55.5938L45.0313 59.7187C45.0781 59.7344 45.125 59.7344 45.1719 59.75C45.1875 59.75 45.2031 59.75 45.2031 59.75C45.2344 59.75 45.2656 59.75 45.3125 59.75H45.3281C45.375 59.75 45.4063 59.75 45.4531 59.7344C45.4688 59.7344 45.4844 59.7344 45.4844 59.7344C45.5156 59.7344 45.5469 59.7187 45.5781 59.7187C45.5938 59.7187 45.5938 59.7188 45.6094 59.7031C45.6563 59.6875 45.6875 59.6719 45.7344 59.6562C45.7656 59.6406 45.8125 59.625 45.8438 59.5938C45.8594 59.5938 45.8594 59.5781 45.875 59.5781C45.9063 59.5625 45.9219 59.5469 45.9531 59.5156C45.9688 59.5 45.9688 59.5 45.9844 59.4844C46.0156 59.4531 46.0469 59.4219 46.0781 59.3906L56.9688 47.875C57.0156 47.8125 57.0781 47.7656 57.1406 47.7188C57.6563 47.375 58.2969 47.3281 58.8125 47.625ZM56.5 13.4531C55.8906 13.4531 55.4063 13.9375 55.4063 14.5469V46.4062L44.9844 57.4375L35.3281 54.8125L43.3594 53.5C43.8281 53.4219 44.1875 53.0625 44.2656 52.5938L44.5938 50.5C44.6875 49.9219 44.2969 49.3594 43.7031 49.25L23.7031 45.5781C23.4063 45.5312 23.1094 45.5938 22.8594 45.7656L13.0625 52.9062V51.1875C13.0625 50.5781 12.5781 50.0938 11.9688 50.0938H10.8125V14.5469C10.8125 13.9375 10.3281 13.4531 9.71875 13.4531H3.76563L10 2.73437H56.2344L62.4688 13.4531H56.5Z" fill="#32496F"/>
</svg>
