<svg width="24" height="16" viewBox="0 0 24 16" fill="none" xmlns="http://www.w3.org/2000/svg">
<path d="M0.75 14C0.75 14.825 1.425 15.5 2.25 15.5H21.75C22.575 15.5 23.25 14.825 23.25 14V5H0.75V14ZM3 10.25H12C12.414 10.25 12.75 10.586 12.75 11C12.75 11.414 12.414 11.75 12 11.75H3C2.586 11.75 2.25 11.414 2.25 11C2.25 10.586 2.586 10.25 3 10.25ZM3 12.5H6.75C7.164 12.5 7.5 12.836 7.5 13.25C7.5 13.664 7.164 14 6.75 14H3C2.586 14 2.25 13.664 2.25 13.25C2.25 12.836 2.586 12.5 3 12.5ZM23.25 2V2.75H0.75V2C0.75 1.175 1.425 0.5 2.25 0.5H21.75C22.575 0.5 23.25 1.175 23.25 2Z" fill="#A6A4A8"/>
</svg>
