<svg width="40" height="40" viewBox="0 0 40 40" fill="none" xmlns="http://www.w3.org/2000/svg">
<path d="M1.25 30C1.25 31.375 2.375 32.5 3.75 32.5H36.25C37.625 32.5 38.75 31.375 38.75 30V15H1.25V30ZM5 23.75H20C20.69 23.75 21.25 24.31 21.25 25C21.25 25.69 20.69 26.25 20 26.25H5C4.31 26.25 3.75 25.69 3.75 25C3.75 24.31 4.31 23.75 5 23.75ZM5 27.5H11.25C11.94 27.5 12.5 28.06 12.5 28.75C12.5 29.44 11.94 30 11.25 30H5C4.31 30 3.75 29.44 3.75 28.75C3.75 28.06 4.31 27.5 5 27.5ZM38.75 10V11.25H1.25V10C1.25 8.625 2.375 7.5 3.75 7.5H36.25C37.625 7.5 38.75 8.625 38.75 10Z" fill="#FCFDFF"/>
</svg>
