<svg width="22" height="14" viewBox="0 0 22 14" fill="none" xmlns="http://www.w3.org/2000/svg">
<path d="M3.125 0.924805V1.61855H20.7313V10.5061H21.4062V0.924805H3.125Z" fill="#A6A4A8"/>
<path d="M1.86877 2.87471H19.475V11.7622H20.15V2.19971H1.86877V2.87471Z" fill="#A6A4A8"/>
<path d="M3.48125 3.51221H0.59375V6.39971V10.1872V13.0747H3.48125H15.9875H18.875V10.1872V6.39971V3.51221H15.9875H3.48125ZM18.125 6.28721V10.2622C17.1313 10.5247 16.3625 11.3122 16.0812 12.3247H3.36875C3.10625 11.3122 2.31875 10.5435 1.325 10.2622V6.28721C2.31875 6.02471 3.0875 5.23721 3.36875 4.22471H16.0812C16.325 5.23721 17.1125 6.02471 18.125 6.28721Z" fill="#A6A4A8"/>
<path d="M9.72498 11.6685C11.5889 11.6685 13.1 10.1574 13.1 8.29346C13.1 6.4295 11.5889 4.91846 9.72498 4.91846C7.86101 4.91846 6.34998 6.4295 6.34998 8.29346C6.34998 10.1574 7.86101 11.6685 9.72498 11.6685Z" fill="#A6A4A8"/>
<path d="M10.9092 8.12873H10.5757V7.80822H10.9092C10.9593 7.80822 11 7.76764 11 7.71752C11 7.66739 10.9593 7.62679 10.9092 7.62679H10.5757V7.18206C10.5757 7.11714 10.5629 7.06949 10.5376 7.04046C10.5136 7.01285 10.482 7 10.4382 7C10.3965 7 10.3661 7.01276 10.3425 7.0402C10.3175 7.06926 10.3048 7.11699 10.3048 7.18209V7.62684H9.67748L9.41075 7.22322C9.38792 7.1872 9.36646 7.15345 9.34562 7.12107C9.32685 7.0919 9.30855 7.06815 9.29126 7.05042C9.27595 7.03472 9.25851 7.02257 9.23811 7.01323C9.21886 7.00444 9.19439 7.00003 9.16544 7.00003C9.12851 7.00003 9.09499 7.01015 9.06289 7.03093C9.03113 7.05149 9.00917 7.07691 8.99576 7.10864C8.98399 7.1388 8.97776 7.18501 8.97776 7.24466V7.62681H8.64758C8.59748 7.62682 8.55688 7.66742 8.55688 7.71754C8.55688 7.76766 8.59748 7.80824 8.64759 7.80824H8.97777V8.12879H8.64759C8.59748 8.12879 8.55688 8.16938 8.55688 8.21952C8.55688 8.26963 8.59748 8.31019 8.64759 8.31019H8.97777V8.81796C8.97777 8.88096 8.99101 8.92812 9.01723 8.9581C9.04216 8.98667 9.07378 8.99994 9.11671 8.99994C9.15813 8.99994 9.1895 8.98661 9.21551 8.95798C9.24215 8.92865 9.25562 8.88151 9.25562 8.81796V8.31019H9.82328L10.1305 8.78123C10.1518 8.81237 10.1739 8.8438 10.1959 8.87462C10.2157 8.90229 10.2374 8.92667 10.2602 8.94704C10.2808 8.96546 10.3028 8.97896 10.3258 8.9872C10.3494 8.99569 10.377 9 10.4076 9C10.4906 9 10.5757 8.97457 10.5757 8.78595V8.31019H10.9092C10.9593 8.31019 11 8.26957 11 8.21946C11 8.16935 10.9593 8.12873 10.9092 8.12873ZM10.3048 7.80821V8.12873H10.0092L9.79743 7.80821H10.3048ZM9.25563 7.43993L9.37752 7.62679H9.25563V7.43993ZM9.25563 8.12873V7.80822H9.49588L9.70494 8.12873H9.25563ZM10.3048 8.57609L10.1291 8.31019H10.3048V8.57609Z" fill="white"/>
</svg>
