<svg width="50" height="50" viewBox="0 0 50 50" fill="none" xmlns="http://www.w3.org/2000/svg">
<rect width="50" height="50" rx="4" fill="url(#paint0_linear_2220_18284)"/>
<path d="M36.6574 5H13.3426C12.0044 5 10.9156 6.08886 10.9156 7.42708V42.5729C10.9156 43.9111 12.0044 45 13.3426 45H36.6574C37.9956 45 39.0844 43.9111 39.0844 42.5729V7.42708C39.0844 6.08886 37.9956 5 36.6574 5ZM37.0041 42.5729C37.0041 42.7642 36.8486 42.9196 36.6574 42.9196H13.3426C13.1515 42.9196 12.9959 42.7642 12.9959 42.5729V7.42708C12.9959 7.23583 13.1515 7.08036 13.3426 7.08036H36.6574C36.8486 7.08036 37.0041 7.23583 37.0041 7.42708V42.5729Z" fill="#FCFDFF"/>
<path d="M33.8835 9.16016H16.1165C15.542 9.16016 15.0763 9.62574 15.0763 10.2003V17.7875C15.0763 18.3621 15.542 18.8277 16.1165 18.8277H33.8835C34.4581 18.8277 34.9237 18.3621 34.9237 17.7875V10.2003C34.9237 9.62574 34.4581 9.16016 33.8835 9.16016ZM32.8434 16.7474H17.1566V11.2405H32.8434V16.7474V16.7474Z" fill="#FCFDFF"/>
<path d="M20.1587 21.084H16.1165C15.542 21.084 15.0763 21.5496 15.0763 22.1242V26.1663C15.0763 26.7409 15.542 27.2065 16.1165 27.2065H20.1587C20.7332 27.2065 21.1989 26.7409 21.1989 26.1663V22.1242C21.1989 21.5496 20.7332 21.084 20.1587 21.084ZM19.1186 25.1261H17.1566V23.1643H19.1186V25.1261Z" fill="#FCFDFF"/>
<path d="M27.0211 21.084H22.9789C22.4044 21.084 21.9387 21.5496 21.9387 22.1242V26.1663C21.9387 26.7409 22.4044 27.2065 22.9789 27.2065H27.0211C27.5957 27.2065 28.0613 26.7409 28.0613 26.1663V22.1242C28.0613 21.5496 27.5956 21.084 27.0211 21.084ZM25.981 25.1261H24.019V23.1643H25.981V25.1261Z" fill="#FCFDFF"/>
<path d="M33.8835 21.084H29.8413C29.2667 21.084 28.8011 21.5496 28.8011 22.1242V26.1663C28.8011 26.7409 29.2667 27.2065 29.8413 27.2065H33.8835C34.4581 27.2065 34.9237 26.7409 34.9237 26.1663V22.1242C34.9237 21.5496 34.4581 21.084 33.8835 21.084ZM32.8434 25.1261H30.8815V23.1643H32.8434V25.1261V25.1261Z" fill="#FCFDFF"/>
<path d="M20.1587 27.9004H16.1165C15.542 27.9004 15.0763 28.366 15.0763 28.9406V32.9828C15.0763 33.5574 15.542 34.023 16.1165 34.023H20.1587C20.7332 34.023 21.1989 33.5574 21.1989 32.9828V28.9406C21.1989 28.3661 20.7332 27.9004 20.1587 27.9004ZM19.1186 31.9428H17.1566V29.9807H19.1186V31.9428Z" fill="#FCFDFF"/>
<path d="M27.0211 27.9004H22.9789C22.4044 27.9004 21.9387 28.366 21.9387 28.9406V32.9828C21.9387 33.5574 22.4044 34.023 22.9789 34.023H27.0211C27.5957 34.023 28.0613 33.5574 28.0613 32.9828V28.9406C28.0613 28.3661 27.5956 27.9004 27.0211 27.9004ZM25.981 31.9428H24.019V29.9807H25.981V31.9428Z" fill="#FCFDFF"/>
<path d="M20.1587 34.7168H16.1165C15.542 34.7168 15.0763 35.1824 15.0763 35.757V39.7992C15.0763 40.3738 15.542 40.8394 16.1165 40.8394H20.1587C20.7332 40.8394 21.1989 40.3738 21.1989 39.7992V35.757C21.1989 35.1824 20.7332 34.7168 20.1587 34.7168ZM19.1186 38.7589H17.1566V36.797H19.1186V38.7589Z" fill="#FCFDFF"/>
<path d="M27.0211 34.7168H22.9789C22.4044 34.7168 21.9387 35.1824 21.9387 35.757V39.7992C21.9387 40.3738 22.4044 40.8394 22.9789 40.8394H27.0211C27.5957 40.8394 28.0613 40.3738 28.0613 39.7992V35.757C28.0613 35.1824 27.5956 34.7168 27.0211 34.7168ZM25.981 38.7589H24.019V36.797H25.981V38.7589Z" fill="#FCFDFF"/>
<path d="M33.8835 27.9004H29.8413C29.2667 27.9004 28.8011 28.366 28.8011 28.9406V39.7989C28.8011 40.3735 29.2667 40.8391 29.8413 40.8391H33.8835C34.4581 40.8391 34.9237 40.3735 34.9237 39.7989V28.9406C34.9237 28.3661 34.4581 27.9004 33.8835 27.9004ZM32.8434 38.7587H30.8815V29.9807H32.8434V38.7587V38.7587Z" fill="#FCFDFF"/>
<defs>
<linearGradient id="paint0_linear_2220_18284" x1="11.4679" y1="50" x2="49.0659" y2="-1.3987" gradientUnits="userSpaceOnUse">
<stop offset="0.103794" stop-color="#013781"/>
<stop offset="1" stop-color="#287CEE"/>
</linearGradient>
</defs>
</svg>
