<svg width="350" height="247" viewBox="0 0 350 247" fill="none" xmlns="http://www.w3.org/2000/svg">
<path d="M32.0863 180.153C32.0863 180.153 22.8565 162.288 26.9785 154.624C27.0823 154.435 27.3511 153.982 28.0256 153.902C30.8742 153.577 37.1281 160.349 37.1281 160.349C37.1281 160.349 49.4001 158.109 51.131 168.259C52.8619 178.408 49.9707 181.002 49.9707 181.002C49.9707 181.002 59.3138 172.201 61.8512 179.356C64.3839 186.506 58.38 196.783 58.38 196.783C58.38 196.783 73.6751 197.391 68.6239 206.225C63.5727 215.059 51.1828 222.827 51.1828 222.827C43.8206 204.004 37.2696 190.185 32.0863 180.153Z" fill="#4C84A9"/>
<path d="M52.8807 215.106H52.6119C52.4043 214.682 32.0769 172.673 32.2703 162.67L32.5674 162.774C32.374 172.73 52.6779 214.682 52.8807 215.106Z" fill="white"/>
<path d="M37.279 179.686L37.0055 179.507L44.3111 168.324L44.5847 168.503L37.279 179.686Z" fill="white"/>
<path d="M41.6275 190.396L41.4813 190.538L34.369 184.864L34.5199 184.723L41.6275 190.396Z" fill="white"/>
<path d="M47.5371 203.769L47.2541 203.604L54.937 187.285L55.22 187.45L47.5371 203.769Z" fill="white"/>
<path d="M250.288 196.859C232.923 196.859 216.529 189.487 205.313 176.631C195.206 165.052 178.453 160.774 163.625 165.995C155.301 168.924 146.547 170.414 137.61 170.414C116.188 170.414 95.6439 161.604 81.2354 146.243C67.3128 131.396 60.3562 112.139 61.6484 92.0287C64.016 55.1799 94.5025 25.6037 132.563 23.2267C162.739 21.3402 191.235 36.8664 205.167 62.7733C212.732 76.8374 228.008 84.874 244.091 83.2375C256.151 82.0159 268.762 84.4543 280.562 90.2931C288.208 94.0804 297.612 103.173 301.522 110.564C311.794 129.991 311.667 151.125 301.173 168.542C290.641 186.011 271.149 196.859 250.288 196.859ZM176.539 163.014C187.664 163.014 198.522 167.655 205.903 176.116C216.972 188.799 233.149 196.076 250.288 196.076C270.875 196.076 290.113 185.375 300.494 168.146C310.841 150.964 310.964 130.113 300.824 110.937C296.98 103.669 287.731 94.7218 280.209 91.0006C268.545 85.2278 256.08 82.813 244.166 84.0204C227.768 85.6805 212.189 77.4883 204.474 63.1458C190.688 37.5078 162.479 22.1467 132.611 24.0143C94.9458 26.3678 64.7754 55.6327 62.4313 92.0853C61.1532 111.979 68.0344 131.023 81.8108 145.71C96.0683 160.916 116.41 169.636 137.615 169.636C146.462 169.636 155.131 168.165 163.371 165.264C167.662 163.745 172.119 163.014 176.539 163.014Z" fill="#D2C8BC"/>
<path d="M76.0946 213.99C76.0946 213.99 84.9943 202.713 78.4669 191.733C78.4669 191.733 84.4001 178.975 72.5337 170.665C60.6627 162.355 61.5541 185.8 61.5541 185.8C61.5541 185.8 44.6413 189.361 47.6078 204.793C50.5744 220.225 50.5744 220.225 50.5744 220.225C50.5744 220.225 6.06627 162.954 3.09969 173.934C0.133109 184.913 6.06627 189.366 6.06627 189.366C6.06627 189.366 -7.58284 197.676 6.06627 203.906C19.7154 210.136 19.7154 210.136 19.7154 210.136C19.7154 210.136 9.92424 213.4 12.5937 220.225C15.2631 227.049 30.9922 230.313 30.9922 230.313C21.6774 232.426 6.33038 236.147 5.76914 238.029C5.7597 238.057 5.56634 238.741 5.17488 240.104H124.758C124.758 240.104 122.683 217.258 105.765 222.003C105.765 222.003 93.3045 203.604 76.0946 213.99Z" fill="#FECB74"/>
<path d="M59.8939 221.379C63.4217 213.437 71.4018 183.361 71.482 183.059L70.9066 182.908C70.8264 183.21 62.8605 213.244 59.3515 221.144L59.8939 221.379Z" fill="#FFF9ED"/>
<path d="M76.1233 197.246L65.7603 201.846L66.0014 202.389L76.3644 197.789L76.1233 197.246Z" fill="#FFF9ED"/>
<path d="M56.9136 201.859L56.3666 202.092L61.7611 214.793L62.308 214.561L56.9136 201.859Z" fill="#FFF9ED"/>
<path d="M50.1782 231.219L50.6735 230.889C44.7922 222.064 13.8624 189.63 13.5511 189.305L13.1219 189.715C13.4332 190.04 44.3253 222.442 50.1782 231.219Z" fill="#FFF9ED"/>
<path d="M7.4317 196.035L7.37976 196.627L20.883 197.812L20.935 197.22L7.4317 196.035Z" fill="#FFF9ED"/>
<path d="M32.171 198.677L31.5843 198.771L33.654 211.69L34.2408 211.596L32.171 198.677Z" fill="#FFF9ED"/>
<path d="M20.8171 216.517L20.6742 217.094L43.4665 222.744L43.6094 222.167L20.8171 216.517Z" fill="#FFF9ED"/>
<path d="M274.634 214.244C274.634 214.244 265.819 203.076 272.285 192.205C272.285 192.205 266.409 179.569 278.162 171.339C289.915 163.109 289.033 186.328 289.033 186.328C289.033 186.328 305.785 189.856 302.847 205.137C299.909 220.418 299.909 220.418 299.909 220.418C299.909 220.418 343.992 163.699 346.931 174.575C349.869 185.446 343.992 189.856 343.992 189.856C343.992 189.856 357.509 198.086 343.992 204.255C330.475 210.429 330.475 210.429 330.475 210.429C330.475 210.429 340.172 213.659 337.526 220.422C334.88 227.181 319.307 230.416 319.307 230.416C328.532 232.51 343.733 236.194 344.285 238.057C344.294 238.085 344.488 238.76 344.874 240.113H226.438C226.438 240.113 228.494 217.484 245.246 222.186C245.246 222.177 257.589 203.958 274.634 214.244Z" fill="#4C84A9"/>
<path d="M290.674 221.563L291.212 221.323C287.736 213.498 279.845 183.757 279.765 183.455L279.195 183.606C279.275 183.908 287.179 213.696 290.674 221.563Z" fill="#FFF9ED"/>
<path d="M274.604 197.68L274.364 198.219L284.622 202.777L284.861 202.238L274.604 197.68Z" fill="#FFF9ED"/>
<path d="M293.625 202.229L288.295 214.811L288.838 215.041L294.168 202.459L293.625 202.229Z" fill="#FFF9ED"/>
<path d="M300.295 231.304C306.092 222.611 336.691 190.526 336.998 190.201L336.574 189.795C336.267 190.12 305.63 222.243 299.805 230.978L300.295 231.304Z" fill="#FFF9ED"/>
<path d="M342.665 196.463L329.294 197.639L329.345 198.226L342.717 197.05L342.665 196.463Z" fill="#FFF9ED"/>
<path d="M318.152 199.082L316.1 211.879L316.682 211.972L318.734 199.175L318.152 199.082Z" fill="#FFF9ED"/>
<path d="M329.358 216.754L306.778 222.342L306.92 222.914L329.499 217.327L329.358 216.754Z" fill="#FFF9ED"/>
<path d="M198.064 228.219L198.314 232.19L198.804 239.962C198.804 239.962 206.61 236.915 206.61 235.175V226.912L198.064 228.219Z" fill="#FDA57F"/>
<path d="M212.251 242.102C212.251 242.102 211.991 242.88 211.472 244.432H198.257C198.257 244.432 198.234 243.413 198.238 242.225C198.243 241.055 198.271 239.716 198.38 239.037C198.658 237.348 198.79 236.509 199.422 235.881C200.927 234.377 203.676 234.943 204.473 235.103C205.124 235.235 205.775 235.381 206.417 235.881C207.393 236.645 207.223 237.372 207.973 238.603C207.973 238.603 208.308 239.145 209.006 239.857C209.666 240.532 210.652 241.343 211.996 241.989C212.081 242.022 212.166 242.06 212.251 242.102Z" fill="#FFC77F"/>
<path d="M212.251 242.103C212.251 242.103 211.991 242.882 211.472 244.433H198.257C198.257 244.433 198.234 243.415 198.238 242.226C200.413 243.216 204.931 244.377 212.001 241.99C212.081 242.023 212.166 242.061 212.251 242.103Z" fill="#4C84A9"/>
<path d="M166.346 226.912V235.779C166.346 237.647 174.152 240.91 174.152 240.91L174.699 231.567L174.893 228.313L166.346 226.912Z" fill="#FDA57F"/>
<path d="M160.71 243.045C160.71 243.045 160.97 243.824 161.489 245.375H174.704C174.704 245.375 174.727 244.357 174.723 243.168C174.718 241.998 174.69 240.659 174.581 239.98C174.303 238.291 174.171 237.452 173.539 236.825C172.034 235.32 169.285 235.886 168.488 236.046C167.837 236.179 167.186 236.325 166.545 236.825C165.568 237.589 165.738 238.315 164.988 239.546C164.988 239.546 164.653 240.088 163.955 240.8C163.295 241.475 162.309 242.286 160.96 242.932C160.876 242.97 160.795 243.008 160.71 243.045Z" fill="#FFC77F"/>
<path d="M160.71 243.047C160.71 243.047 160.97 243.825 161.489 245.377H174.704C174.704 245.377 174.727 244.358 174.723 243.169C172.548 244.16 168.03 245.32 160.96 242.934C160.876 242.971 160.795 243.009 160.71 243.047Z" fill="#4C84A9"/>
<path d="M206.615 226.912L198.064 228.219L198.314 232.19C201.238 232.043 204.186 231.331 206.615 230.558V226.912Z" fill="#CD7D6C"/>
<path d="M166.346 226.912V230.685C169.492 231.232 172.61 231.463 174.704 231.562L174.897 228.308L166.346 226.912Z" fill="#CD7D6C"/>
<path d="M207.049 227.859C206.836 227.868 206.624 227.877 206.412 227.892C206.256 227.896 206.096 227.906 205.94 227.915C203.158 228.052 200.375 228.193 197.592 228.33C192.862 194.443 188.136 160.556 183.406 126.669C180.727 160.872 178.048 195.075 175.369 229.273C172.214 229.118 169.063 228.962 165.913 228.802C164.809 202.404 164.29 181.747 164.021 167.334C163.578 143.61 164.234 159.684 164.021 146.054C164.021 146.054 163.856 135.517 165.361 120.373C165.559 118.392 165.781 116.336 166.04 114.209C166.403 111.228 166.828 108.12 167.328 104.918C167.559 103.46 167.818 101.923 168.983 100.423C174.907 92.8296 194.248 99.0835 200.804 101.394C200.927 103.856 201.125 107.733 201.375 112.483C201.413 113.237 201.455 113.982 201.493 114.718C201.615 117.081 201.738 119.345 201.856 121.519C203.375 149.789 204.285 163.164 205.157 180.101C205.728 191.147 206.478 207.541 207.049 227.859Z" fill="#32496F"/>
<path d="M167.497 228.982C163.753 219.95 167.327 123.459 167.478 119.355L167.95 119.374C167.912 120.379 164.229 219.87 167.931 228.803L167.497 228.982Z" fill="#32496F"/>
<path d="M206.412 227.893C206.256 227.898 206.096 227.907 205.94 227.917C203.497 188.186 198.187 121.256 198.13 120.563L198.602 120.525C198.658 121.219 203.969 188.158 206.412 227.893Z" fill="#32496F"/>
<path d="M249.062 71.9273C249.062 71.9273 258.112 65.5602 257.598 64.6028C257.084 63.6454 256.466 64.3198 256.155 64.5887C255.844 64.8575 252.854 66.994 252.854 66.994C252.873 66.8667 252.896 66.7441 252.915 66.6167C255.882 64.1878 258.051 62.3013 258.678 61.6363C258.933 61.3674 259.192 61.0184 259.15 60.66C259.126 60.4477 258.994 60.2355 258.829 60.1506C258.367 59.9195 257.561 60.6411 256.443 61.5514C254.321 63.2775 252.259 64.7113 252.25 64.716C252.208 64.6358 252.16 64.551 252.118 64.4708C254.028 62.9663 255.528 61.6693 256.599 60.6977C257.523 59.8629 258.678 58.7781 258.438 58.1179C258.433 58.099 258.339 57.8585 258.098 57.7641C257.613 57.5802 256.929 58.1556 256.599 58.4433C251.84 62.5512 251.245 63.1785 251.245 63.1785C251.17 63.0606 251.099 62.9474 251.024 62.8295C256.424 57.816 256.811 56.802 256.674 56.552C256.504 56.2313 256.235 56.1747 256.235 56.1747C256.155 56.1606 255.929 56.1323 255.57 56.387C255.037 56.7643 252.807 58.7498 249.812 61.5042C249.161 62.0041 248.51 62.5041 247.854 63.004C247.854 63.004 248.703 59.4479 248.345 58.7168C248.255 58.5329 248.086 58.4716 248.086 58.4716C248.086 58.4716 247.803 58.3395 247.345 58.5376C246.496 58.9055 245.242 62.0041 244.421 63.768C243.822 65.0556 242.464 67.56 242.464 67.56C241.52 69.0456 240.577 70.5266 239.629 72.0122C240.775 73.1724 241.917 74.3279 243.063 75.4882C245.062 74.3044 247.062 73.1158 249.062 71.9273Z" fill="#FDA57F"/>
<path d="M248.788 69.705L248.991 69.7899C249.321 69.1202 249.467 68.3467 249.43 67.4836C249.397 66.7998 249.25 66.064 248.986 65.2952C248.543 63.9841 247.911 63.0172 247.906 63.0078L247.713 63.1399C247.718 63.1493 248.335 64.102 248.769 65.3896C249.175 66.5639 249.5 68.2665 248.788 69.705Z" fill="#32496F"/>
<path d="M239.634 70.7858L241.992 67.4844L246.359 73.5968L242.935 75.5022L239.634 70.7858Z" fill="#32496F"/>
<path d="M244.822 75.0313C243.232 78.0781 239.205 84.7376 231.144 89.1804C226.796 91.5763 222.702 92.5384 219.825 92.9534C217.019 92.3828 212.666 91.1471 208.034 88.2371C206.105 87.025 204.464 85.7327 203.082 84.4735C202.29 83.7566 201.582 83.0491 200.96 82.3747C200.167 81.5257 199.502 80.724 198.96 80.0259C198.135 76.6868 195.668 65.8533 199.205 63.9715C200.554 63.2546 202.332 64.0753 204.261 65.127C208.388 67.3814 214.614 71.4752 221.476 79.0214C221.556 79.1063 221.636 79.1912 221.712 79.2761C222.193 78.8516 222.702 78.4177 223.244 77.9791C224.824 76.7009 226.664 75.3662 228.786 74.0881C232.625 71.7723 236.233 70.3103 239.162 69.3717C239.874 69.5698 240.935 69.9613 241.992 70.7866C243.911 72.2864 244.595 74.2437 244.822 75.0313Z" fill="#F84558"/>
<path d="M203.082 84.4726C202.29 83.7557 201.582 83.0483 200.96 82.3738V68.8945L203.082 84.4726Z" fill="#32496F"/>
<path d="M223.244 77.9785L221.24 83.9919L221.476 79.0208C221.556 79.1057 221.636 79.1906 221.712 79.2755C222.193 78.851 222.702 78.4171 223.244 77.9785Z" fill="#32496F"/>
<path d="M169.412 79.5678C167.988 81.9778 166.46 83.9681 164.955 85.6C163.776 86.8828 162.611 87.944 161.526 88.8213L161.522 88.826C159.989 90.0664 158.612 90.9389 157.569 91.5379C154.886 93.0754 152.664 94.3488 149.552 94.3677C144.599 94.4007 140.954 91.236 135.874 86.8215C133.752 84.9774 130.856 82.1948 127.856 78.3321C129.682 76.1532 131.092 74.5355 131.677 73.9035C131.903 73.6629 132.205 73.3564 132.615 73.0121C132.922 72.7574 133.219 72.5452 133.492 72.3706C138.218 74.9882 142.939 77.6105 147.665 80.2328C147.863 80.3413 148.066 80.4545 148.264 80.5629C148.698 80.1243 149.137 79.6857 149.575 79.2518C153.362 75.4787 157.437 71.6632 161.819 67.8571C162.187 67.5411 162.545 67.2298 162.908 66.9186C162.937 66.895 162.965 66.8667 162.998 66.8431C164.441 65.5933 164.993 64.9518 165.705 64.4283C165.894 64.2916 166.097 64.1642 166.328 64.0322C167.2 63.5511 167.639 63.3106 167.997 63.3813C169.068 63.5935 170.025 66.6827 169.412 79.5678Z" fill="#F84558"/>
<path d="M164.172 73.1445C164.432 77.2949 164.696 81.45 164.955 85.6004C163.776 86.8832 162.611 87.9444 161.526 88.8217C162.408 83.5959 163.29 78.3702 164.172 73.1445Z" fill="#32496F"/>
<path d="M149.575 79.252L147.665 85.4068V80.2329C147.863 80.3414 148.066 80.4546 148.264 80.5631C148.698 80.1245 149.137 79.6859 149.575 79.252Z" fill="#32496F"/>
<path d="M183.038 69.8425C188.508 69.8425 192.942 66.8863 192.942 63.2396C192.942 59.5929 188.508 56.6367 183.038 56.6367C177.568 56.6367 173.133 59.5929 173.133 63.2396C173.133 66.8863 177.568 69.8425 183.038 69.8425Z" fill="#F84558"/>
<path d="M133.068 69.0599C132.53 68.2487 132.096 67.678 131.691 67.1734C131.691 67.1734 127.918 62.5561 126.729 62.8579C125.541 63.1598 128.602 66.0556 128.602 66.0556L128.776 66.1169C128.701 66.0981 128.644 66.0698 128.602 66.0556C127.743 65.6783 125.522 63.9946 124.588 64.3436C124.272 64.4615 124.3 64.735 123.833 65.9424C123.319 67.2724 123.116 67.3903 121.989 70.1022C121.669 70.8757 121.447 71.4323 121.65 72.0454C121.819 72.5642 122.211 72.8802 122.437 73.0452C124.961 74.894 128.965 75.4647 132.073 77.8795C132.917 78.5351 133.29 79.0067 133.78 78.8794C134.926 78.5822 135.105 75.4411 135.072 72.7575C134.653 71.786 134.011 70.489 133.068 69.0599Z" fill="#FDA57F"/>
<path d="M202.488 117.576C202.526 119.335 202.191 120.779 201.903 121.722C196.965 122.745 190.73 123.608 183.509 123.608C178.468 123.608 172.185 123.189 165.116 121.722C165.191 120.637 165.281 119.543 165.384 118.435C165.474 117.454 165.568 116.463 165.677 115.459C165.79 114.402 165.913 113.355 166.04 112.322C177.859 112.492 189.674 112.662 201.493 112.832C201.842 113.666 202.195 114.756 202.375 116.062C202.445 116.591 202.483 117.095 202.488 117.576Z" fill="#F84558"/>
<path d="M202.488 117.576C182.406 122.33 170.879 120.331 165.384 118.435C165.474 117.454 165.568 116.463 165.677 115.459C165.79 114.402 165.913 113.355 166.04 112.322C177.859 112.492 189.674 112.662 201.493 112.832C201.842 113.666 202.195 114.756 202.375 116.062C202.445 116.591 202.483 117.095 202.488 117.576Z" fill="#32496F"/>
<path d="M204.261 112.29C203.884 113.978 203.04 115.247 202.375 116.063C199.337 116.723 194.904 117.572 189.452 118.19C188.966 118.247 186.698 118.501 184.825 118.629C180.948 118.893 174.798 118.865 166.53 117.006C165.134 116.884 163.352 116.478 162.286 115.12C160.824 113.257 161.748 110.899 162.757 106.159C162.757 106.159 164.257 99.1266 164.63 90.491C164.696 88.9581 164.724 87.3735 164.705 85.7652C164.701 85.2511 164.691 84.737 164.672 84.2229C164.653 83.69 164.63 83.025 164.63 83.025C164.62 82.7609 164.611 82.4967 164.597 82.2326C164.554 81.0677 164.498 79.9311 164.446 78.9076C164.309 76.3089 164.172 74.3988 164.172 74.3988C163.979 71.7105 163.734 69.0835 163.46 66.5413C164.658 65.65 165.851 64.7539 167.045 63.8625C167.309 63.7729 167.573 63.6927 167.832 63.6172C168.318 63.471 168.799 63.3295 169.275 63.2022C170.252 62.9333 171.204 62.6928 172.143 62.4853C179.651 60.7968 186.056 60.8817 190.994 61.5656C191.518 61.6411 192.022 61.7165 192.513 61.8014C193.093 61.9052 193.654 62.0089 194.187 62.1221C196.39 62.589 198.172 63.1409 199.484 63.6125C200.455 64.0747 201.318 64.5652 202.068 65.0463C201.422 70.2437 201.167 74.8846 201.12 78.8793C201.106 80.0537 201.111 81.1715 201.13 82.2279C201.148 83.4589 201.186 84.6144 201.238 85.685C201.238 85.7652 201.243 85.8501 201.248 85.9302C201.328 87.5432 201.398 89.043 201.469 90.4344C201.894 98.7493 202.247 103.235 203.318 105.687C203.695 106.555 204.945 109.224 204.261 112.29Z" fill="#F84558"/>
<path d="M178.086 51.0713V61.9472C178.086 63.546 178.982 65.0505 180.439 65.7061C181.368 66.1258 182.392 66.2862 183.41 66.1447C183.821 66.0881 184.198 65.9796 184.542 65.8476C186.127 65.2344 187.146 63.6733 187.146 61.9755V51.0713C187.146 48.765 185.273 46.8926 182.967 46.8926H182.269C179.958 46.8926 178.086 48.765 178.086 51.0713Z" fill="#FCA67D"/>
<path d="M178.732 53.3594C178.732 53.3594 178.732 55.9439 181.321 57.8918C183.033 59.1841 185.608 59.6085 187.141 59.7547V54.562L178.732 53.3594Z" fill="#CD7D6C"/>
<path d="M189.268 45.8274C189.268 45.8274 191.022 44.9549 190.376 43.0117C190.376 43.0117 194.904 39.7763 191.669 39.1302C191.4 39.0783 190.716 38.8425 190.008 39.1773C189.725 39.3094 189.532 39.4886 189.414 39.6207C190.348 38.8142 190.768 37.6304 190.489 36.5645C190.235 35.5788 189.405 34.7628 188.476 34.5506C186.452 34.0884 185.452 36.8192 183.434 36.5645C181.33 36.3051 180.887 33.1498 178.934 33.2159C177.883 33.2536 177.123 34.2016 176.788 34.6072C173.553 38.4887 175.496 39.781 175.496 39.781C175.496 39.781 171.615 42.3703 173.558 44.9549C175.496 47.5441 178.085 48.8553 178.085 48.8553L189.268 45.8274Z" fill="#32496F"/>
<path d="M177.114 50.1249C178.007 50.1249 178.732 49.257 178.732 48.1865C178.732 47.1159 178.007 46.248 177.114 46.248C176.221 46.248 175.496 47.1159 175.496 48.1865C175.496 49.257 176.221 50.1249 177.114 50.1249Z" fill="#FCA67D"/>
<path d="M189.084 43.0123C189.084 43.0123 189.73 50.7754 189.084 52.7138C188.438 54.6522 187.792 55.9492 184.556 56.5953C181.321 57.2415 179.382 54.6569 178.736 53.3599C178.09 52.0676 178.09 43.0075 178.09 43.0075C180.67 44.1442 183.344 44.0404 184.957 42.6067C185.311 42.2907 185.75 41.7907 186.084 41.0078C187.08 41.6775 188.079 42.3473 189.084 43.0123Z" fill="#FCA67D"/>
<path d="M187.032 46.6763C187.032 46.9735 187.273 47.214 187.57 47.214C187.867 47.214 188.108 46.9735 188.108 46.6763C188.108 46.3792 187.867 46.1387 187.57 46.1387C187.278 46.1387 187.032 46.3792 187.032 46.6763Z" fill="#322223"/>
<path d="M181.995 46.6763C181.995 46.9735 182.236 47.214 182.533 47.214C182.83 47.214 183.071 46.9735 183.071 46.6763C183.071 46.3792 182.83 46.1387 182.533 46.1387C182.236 46.1387 181.995 46.3792 181.995 46.6763Z" fill="#322223"/>
<path d="M185.396 49.9024H183.792C183.66 49.9024 183.556 49.7986 183.556 49.6666C183.556 49.5345 183.66 49.4308 183.792 49.4308H185.396C185.443 49.4308 185.457 49.4166 185.471 49.3978C185.702 49.044 185.226 47.3697 184.646 46.0161C184.594 45.8982 184.651 45.7567 184.769 45.7049C184.886 45.653 185.028 45.7096 185.08 45.8275C185.297 46.3368 186.358 48.9073 185.867 49.6572C185.759 49.8175 185.594 49.9024 185.396 49.9024Z" fill="#322223"/>
<path d="M181.17 45.1288C181.222 45.1288 181.274 45.1146 181.316 45.0816C181.604 44.8741 181.915 44.7184 182.25 44.6147C182.896 44.4166 183.476 44.4732 183.854 44.5534C183.99 44.5817 184.122 44.4968 184.151 44.36C184.179 44.2232 184.094 44.0912 183.957 44.0629C183.523 43.9686 182.849 43.9072 182.104 44.1383C181.717 44.2562 181.354 44.4402 181.019 44.6807C180.906 44.7609 180.882 44.9213 180.962 45.0344C181.014 45.0958 181.09 45.1288 181.17 45.1288Z" fill="#32496F"/>
<path d="M188.48 44.8789C188.579 44.8789 188.669 44.8223 188.711 44.7279C188.768 44.6006 188.707 44.4497 188.579 44.3978C188.32 44.2893 188.056 44.1997 187.782 44.1337C187.141 43.978 186.476 43.9544 185.811 44.0629C185.674 44.0865 185.58 44.2138 185.603 44.3506C185.627 44.4874 185.759 44.5817 185.891 44.5581C186.495 44.4638 187.089 44.4827 187.669 44.6242C187.914 44.6808 188.155 44.7609 188.386 44.8647C188.41 44.8741 188.443 44.8789 188.48 44.8789Z" fill="#32496F"/>
<path d="M177.138 49.0393C177.104 49.0393 177.071 49.0252 177.048 49.0016C176.539 48.4922 176.359 48.0913 176.491 47.7753C176.694 47.2895 177.548 47.2754 177.642 47.2754C177.713 47.2754 177.77 47.332 177.77 47.4027C177.77 47.4735 177.713 47.5301 177.642 47.5301C177.425 47.5301 176.84 47.5914 176.722 47.8744C176.638 48.0819 176.812 48.412 177.227 48.8271C177.274 48.8742 177.274 48.9544 177.227 49.0063C177.204 49.0252 177.171 49.0393 177.138 49.0393Z" fill="#322223"/>
<path d="M194.187 62.1215C193.583 63.4657 192.305 65.8002 190.348 66.7765C187.518 68.1914 183.071 67.484 183.071 67.484L192.513 61.8008C193.093 61.9045 193.654 62.0083 194.187 62.1215Z" fill="#32496F"/>
<path d="M181.995 67.2404C181.995 67.2404 175.312 69.7353 169.275 63.2032C170.252 62.9344 171.204 62.6938 172.143 62.4863L181.995 67.2404Z" fill="#32496F"/>
<path d="M185.768 50.538C185.768 50.538 182.929 50.538 181.514 50.0664C181.514 50.0664 181.514 51.486 182.462 51.9577C183.406 52.4293 185.297 51.9577 185.768 50.538Z" fill="white"/>
<path d="M124.857 64.2782C125.239 64.4621 129.781 66.6411 130.988 67.4759C131.719 67.9852 131.695 68.3295 131.686 68.4238C131.686 68.4238 131.658 68.5983 131.497 68.7634C131.002 69.2586 127.012 67.4051 124.187 66.0043C124.154 66.0609 124.121 66.1222 124.088 66.1788C124.678 66.5043 125.965 67.2117 127.701 68.1692C129.734 69.2916 131.064 70.0368 130.908 70.5934C130.908 70.5934 130.889 70.6688 130.828 70.7396C130.634 70.9659 129.715 71.3008 123.315 68.2163C123.291 68.254 123.272 68.2965 123.249 68.3342C126.517 69.9708 130.078 71.9234 129.8 72.6355C129.79 72.6591 129.776 72.6921 129.719 72.7346C128.724 73.4892 122.593 70.4236 122.593 70.4236C122.593 70.4236 127.663 73.0694 127.493 74.2815C127.323 75.4937 121.112 71.73 121.112 71.73C121.112 71.73 120.296 70.8009 121.678 69.9991C121.678 69.9991 121.041 68.9473 122.291 68.2493C122.291 68.2493 121.621 66.7448 123.423 66.0892C123.418 66.0892 122.749 63.8018 124.857 64.2782Z" fill="#ED957A"/>
<path d="M185.867 64.1824C188.183 61.3904 188.155 58.9473 189.527 58.7681C191.216 58.5464 193.503 61.9846 193.503 61.9846C193.503 61.9846 193.414 62.7675 190.112 65.5974C189.617 66.0218 188.688 66.5406 187.419 66.9179C185.41 67.5216 183.618 67.2622 182.566 67.0123C183.391 66.5123 184.674 65.6209 185.867 64.1824Z" fill="#F84558"/>
<path d="M182.566 67.014C181.561 66.4858 179.694 65.335 178.321 63.2409C177.713 62.3165 177.076 61.345 176.906 59.9395C176.784 58.916 177.001 58.435 176.737 58.2793C175.789 57.7228 171.52 63.0098 171.52 63.0098C171.964 63.6795 172.539 64.3776 173.294 65.0048C176.803 67.9337 181.458 67.2168 182.566 67.014Z" fill="#F84558"/>
<path d="M181.514 66.4192C180.84 66.0985 180.222 65.674 179.665 65.1788C179.104 64.693 178.604 64.1365 178.152 63.5422C177.708 62.9432 177.312 62.3065 177.02 61.6132L176.807 61.0944L176.628 60.5662C176.576 60.387 176.534 60.203 176.501 60.0191C176.463 59.8399 176.43 59.6559 176.406 59.4673L176.449 59.4531C176.699 60.1323 176.972 60.8067 177.336 61.434C177.685 62.0707 178.081 62.6791 178.524 63.2545C179.387 64.4147 180.396 65.4759 181.538 66.372L181.514 66.4192Z" fill="#32496F"/>
<path d="M182.335 66.7538C183.146 66.6453 183.783 66.1501 184.353 65.6454C184.915 65.1172 185.41 64.5135 185.863 63.8674C186.315 63.2212 186.726 62.5421 187.146 61.8535C187.561 61.1649 187.938 60.4433 188.395 59.75L188.438 59.7689L187.98 60.9055C187.829 61.2828 187.641 61.646 187.471 62.0186C187.117 62.7543 186.707 63.4618 186.249 64.1409C185.768 64.8012 185.231 65.4285 184.585 65.9378C183.943 66.4283 183.174 66.8575 182.33 66.8009L182.335 66.7538Z" fill="#32496F"/>
<path d="M201.469 90.4349C196.998 91.1942 191.367 91.4489 185.801 91.4489C176.902 91.4489 168.172 90.7933 164.63 90.4915C164.696 88.9587 164.724 87.374 164.705 85.7657C169.907 86.2091 190.225 87.7372 201.238 85.6855C201.238 85.7657 201.243 85.8506 201.247 85.9308C201.328 87.5438 201.398 89.0436 201.469 90.4349Z" fill="white"/>
<path d="M201.13 82.2275C196.743 82.9538 191.249 83.1991 185.816 83.1991C176.859 83.1991 168.063 82.5294 164.597 82.2322C164.554 81.0673 164.498 79.9307 164.446 78.9072C169.294 79.3222 189.82 80.9022 201.12 78.8789C201.106 80.0533 201.111 81.1711 201.13 82.2275Z" fill="white"/>
<path d="M175.963 85.1716H175.492C175.492 85.0914 175.506 83.2002 176.925 79.8893C178.307 76.6633 178.741 66.2921 178.746 66.1836L179.217 66.2025C179.199 66.6316 178.774 76.7718 177.359 80.0732C175.987 83.2851 175.963 85.1527 175.963 85.1716Z" fill="#32496F"/>
<path d="M193.414 88.0012H192.942C192.942 86.6334 191.032 81.8558 189.188 77.2432C187.311 72.5457 186.82 66.3861 186.815 66.3248L187.287 66.2871C187.292 66.3484 187.778 72.4372 189.631 77.064C191.574 81.9406 193.414 86.5391 193.414 88.0012Z" fill="#32496F"/>
<path d="M81.6363 171.714C81.1788 173.342 81.3109 174.573 81.6363 175.487C84.4001 183.293 106.265 183.727 122.668 177.846C127.173 176.233 135.341 173.115 136.096 168.253C137.138 161.527 125.97 155.207 125.97 155.207C125.97 155.207 100.502 129.739 81.6363 171.714Z" fill="#D2C8BC"/>
<path d="M149.773 240.569C148.811 240.838 147.311 241.13 145.481 240.998C143.496 240.857 141.954 240.272 141.015 239.829C138.501 230.655 135.186 218.214 131.493 203.315C131.073 201.617 130.644 199.886 130.215 198.127C128.177 189.779 126.526 183.011 124.946 175.884C124.48 173.781 124.017 171.644 123.555 169.423C123.046 166.971 122.513 164.344 121.975 161.537C119.707 149.756 117.278 134.918 115.401 117.491C114.594 131.409 113.778 145.318 112.943 159.24C112.906 159.915 112.868 160.594 112.825 161.268C112.566 165.593 112.307 169.918 112.047 174.243C111.462 183.935 110.873 193.627 110.274 203.315C109.694 212.747 109.109 222.18 108.519 231.613H108.477C108.472 232.24 108.501 232.877 108.642 233.485C108.765 234.023 108.925 234.589 108.925 234.589C109.133 235.348 109.241 235.725 109.411 236.15C109.864 237.315 110.378 238.018 110.953 239.437C111 239.56 111.057 239.697 111.109 239.833C111.109 239.833 111.302 240.343 111.467 240.89C111.58 241.262 111.797 242.187 112.014 243.488C112.094 243.979 112.179 244.517 112.255 245.101C112.255 245.101 110.571 245.205 108.057 245.347C107.425 245.38 106.741 245.422 106.02 245.46C104.1 245.568 101.926 245.691 99.7235 245.8C93.7997 246.092 90.6209 246.243 86.7959 246.233C86.5979 246.233 86.3998 246.233 86.197 246.229C84.1548 246.205 82.4946 246.148 81.4948 246.106V244.465C85.1924 243.375 88.1543 242.149 90.2719 241.173C95.5165 238.744 98.8321 237.145 99.5961 234.037C99.7093 233.584 99.681 232.91 99.6386 231.613H99.5584C98.5679 222.614 97.7426 213.172 97.1247 203.315C96.4267 192.123 96.0117 180.393 95.9598 168.173C95.9409 163.825 95.9692 159.415 96.0541 154.944C96.0636 154.335 96.073 153.727 96.0872 153.114C96.5069 133.14 97.8888 114.487 99.8461 97.3242H126.465C133.035 126.622 136.718 149.562 138.897 165.848C138.992 166.56 139.086 167.258 139.176 167.942C139.812 172.814 140.463 178.233 141.671 187.18C141.779 187.968 141.888 188.788 142.005 189.637C142.656 194.401 143.298 198.966 143.93 203.315C146.165 218.723 148.226 231.424 149.773 240.569Z" fill="#FDA57F"/>
<path d="M112.014 243.488C110.915 244.012 109.566 244.644 108.057 245.347C107.425 245.38 106.741 245.422 106.02 245.46C104.1 245.568 101.926 245.691 99.7235 245.799C93.7997 246.092 90.6209 246.243 86.7959 246.233C86.5979 246.233 86.3998 246.233 86.197 246.229C84.1548 246.205 82.4946 246.148 81.4948 246.106V244.465C85.1924 243.375 88.1543 242.149 90.2719 241.173C95.5165 238.744 98.8321 237.145 99.5961 234.037C99.7093 233.584 99.681 232.91 99.6386 231.613H99.5584C98.9877 226.41 98.4689 221.062 98.0114 215.568C97.9595 214.936 97.9124 214.299 97.8605 213.662C97.7426 212.2 97.6341 210.729 97.5256 209.248C97.4785 208.616 97.436 207.974 97.3889 207.338C97.2992 206.003 97.2096 204.663 97.1247 203.314H110.274C110.189 204.687 110.104 206.064 110.019 207.437C109.982 208.073 109.944 208.705 109.901 209.342C109.821 210.663 109.741 211.988 109.656 213.308C109.618 213.955 109.576 214.596 109.533 215.242C109.199 220.699 108.859 226.156 108.519 231.613H108.477C108.472 232.24 108.501 232.877 108.642 233.485C108.765 234.023 108.925 234.589 108.925 234.589C109.133 235.348 109.241 235.725 109.411 236.15C109.864 237.315 110.378 238.017 110.953 239.437C111 239.56 111.057 239.696 111.109 239.833C111.109 239.833 111.302 240.342 111.467 240.89C111.58 241.262 111.797 242.187 112.014 243.488Z" fill="#5D95BA"/>
<path d="M149.773 240.569C148.811 240.838 147.311 241.13 145.481 240.998C143.496 240.857 141.954 240.272 141.015 239.828C139.18 233.131 136.917 224.698 134.393 214.836C134.228 214.195 134.063 213.549 133.898 212.893C133.549 211.521 133.195 210.12 132.832 208.696C132.672 208.054 132.511 207.408 132.351 206.753C132.063 205.625 131.78 204.475 131.493 203.314H143.93C144.114 204.597 144.302 205.861 144.482 207.106C144.576 207.738 144.67 208.366 144.765 208.984C144.977 210.436 145.194 211.865 145.406 213.261C145.5 213.898 145.595 214.525 145.689 215.143C147.236 225.297 148.641 233.886 149.773 240.569Z" fill="#5D95BA"/>
<path d="M104.444 41.5625C104.119 41.9587 103.784 42.336 103.412 42.6708C103.053 43.0199 102.676 43.3453 102.275 43.633C101.865 43.9065 101.473 44.2037 101.035 44.43C100.822 44.5479 100.601 44.6517 100.379 44.7508C100.148 44.8451 99.9404 44.9253 99.6762 45.0384C99.4263 45.1422 99.181 45.2978 98.9452 45.4629C98.832 45.5714 98.7141 45.6657 98.6104 45.7931C98.5207 45.9346 98.4123 46.0619 98.3745 46.2364C98.2519 46.5665 98.3038 46.892 98.351 47.1702C98.4123 47.4438 98.5066 47.6937 98.5962 47.9296C98.7801 48.4012 98.9311 48.8634 99.0065 49.3445C99.0961 49.8255 99.0584 50.3208 98.9971 50.8348L99.0395 50.849C99.181 50.3585 99.2659 49.8444 99.2329 49.3303C99.1952 48.8162 99.0678 48.321 98.9169 47.8305C98.7802 47.3495 98.5773 46.8401 98.7424 46.3637C98.9075 45.8874 99.4027 45.6233 99.8508 45.4299C100.794 45.0526 101.704 44.5479 102.487 43.8877C103.27 43.2321 103.963 42.4633 104.482 41.5814L104.444 41.5625Z" fill="#F84558"/>
<path d="M117.363 41.5905C117.929 41.7933 118.499 41.9725 119.046 42.2036C119.603 42.4111 120.145 42.6375 120.669 42.9016C121.711 43.4204 122.763 43.9817 123.56 44.774C123.98 45.156 124.338 45.5899 124.645 46.071C124.956 46.5473 125.215 47.0992 125.555 47.5991C125.88 48.1085 126.22 48.6084 126.578 49.0895C126.956 49.5611 127.324 50.0374 127.739 50.4761L127.772 50.4525C127.074 49.4809 126.427 48.4763 125.838 47.4387C125.541 46.9199 125.281 46.3823 124.97 45.8682C124.659 45.3541 124.281 44.8778 123.848 44.4627C122.966 43.6374 121.886 43.0714 120.791 42.595C119.688 42.1281 118.532 41.7933 117.363 41.5527V41.5905Z" fill="#F84558"/>
<path d="M115.519 51.5852C115.622 51.4767 117.15 49.8024 116.627 47.8499C116.132 45.9916 113.972 44.6427 111.571 45.0625C111.047 45.3785 110.118 46.0341 109.35 47.1943C108.585 48.3498 108.35 49.4581 108.265 50.0618C107.93 52.4436 107.34 54.0943 108.086 55.6365C109.024 57.5844 110.991 57.6976 110.873 58.5182C110.717 59.5983 107.175 60.1784 104.27 59.9331C102.016 59.7445 100.233 59.0606 99.082 58.5182C99.1245 57.3391 99.398 50.9957 101.459 45.9963C101.77 45.2417 102.308 44.223 103.364 42.1761C104.699 39.5962 105.171 38.8699 106.062 38.3983C107.147 37.8229 108.312 37.9172 109.076 38.0634C112.231 36.0118 114.155 36.5353 114.769 36.7617C115.448 37.0117 116.325 37.7474 118.051 39.2095C119.174 40.1622 120.221 41.1102 120.556 41.4356C122.527 43.3599 124.98 48.4205 126.904 55.2121C118.122 58.9993 113.566 60.5698 113.226 59.9284C113.038 59.57 114.17 58.5135 116.632 56.7637C116.264 55.0423 115.891 53.3161 115.519 51.5852Z" fill="#F84558"/>
<path d="M108.397 65.5403C108.255 67.9079 109.901 69.9454 112.028 70.2755C114.212 70.6151 116.094 69.0257 116.754 67.3231C117.264 66.0166 116.99 64.8093 116.849 64.3188C116.773 62.154 116.698 59.9892 116.622 57.8244L114.306 57.6215L109.085 57.1641C108.854 59.9561 108.623 62.7482 108.397 65.5403Z" fill="#FCA67D"/>
<path d="M111.481 61.0227C113.094 61.3434 115.419 61.1642 116.872 60.9991L116.622 57.8298L114.306 57.627L109.859 59.2918C109.859 59.2871 108.977 60.5181 111.481 61.0227Z" fill="#CD7D6C"/>
<path d="M106.166 48.7138C106.039 50.855 106.223 52.6189 106.43 53.8735C106.902 56.7127 107.628 57.7456 108.005 58.2172C108.708 59.0803 109.425 59.4859 109.614 59.5897C110.764 60.2169 111.849 60.217 112.344 60.2075C112.495 60.2075 115.764 60.1179 117.466 57.6607C118.046 56.8212 118.287 55.9345 118.447 53.831C118.598 51.8879 118.669 49.11 118.268 45.7048C117.433 45.2567 116.193 44.5776 114.712 43.7003C112.014 42.1062 111.566 41.6628 110.84 41.6864C110.194 41.7053 108.218 42.1298 106.166 48.7138Z" fill="#FCA67D"/>
<path d="M113.698 50.8022C113.689 51.0333 113.873 51.2267 114.104 51.2361C114.335 51.2455 114.528 51.0616 114.538 50.8305C114.547 50.5994 114.363 50.406 114.132 50.3966C113.901 50.3919 113.707 50.5711 113.698 50.8022Z" fill="#322223"/>
<path d="M109.071 51.0759C109.062 51.307 109.246 51.5004 109.477 51.5098C109.708 51.5192 109.901 51.3353 109.911 51.1042C109.92 50.8731 109.736 50.6797 109.505 50.6703C109.274 50.6608 109.076 50.8448 109.071 51.0759Z" fill="#322223"/>
<path d="M111.694 53.8688C111.514 53.8641 111.321 53.7887 111.146 53.6047C110.717 53.1472 111.047 50.6853 111.213 49.6477C111.231 49.5298 111.345 49.4543 111.458 49.4685C111.576 49.4874 111.656 49.5958 111.637 49.7137C111.392 51.2654 111.264 53.0812 111.462 53.3076C111.708 53.5717 111.953 53.3689 112 53.3265C112.085 53.2463 112.222 53.251 112.302 53.3359C112.382 53.4208 112.377 53.5576 112.293 53.6377C112.156 53.7651 111.934 53.8783 111.694 53.8688Z" fill="#322223"/>
<path d="M107.496 51.4584C107.472 52.2036 106.85 52.7884 106.105 52.7648C105.36 52.7413 104.775 52.1187 104.798 51.3735C104.822 50.6283 105.444 50.0435 106.19 50.0671C106.94 50.0907 107.52 50.7132 107.496 51.4584Z" fill="#FDA57F"/>
<path d="M106.213 51.7981C106.199 51.7981 106.185 51.7934 106.171 51.7887C105.808 51.6189 105.643 51.4491 105.657 51.2604C105.685 50.968 106.161 50.8313 106.256 50.8077C106.317 50.7935 106.378 50.8313 106.392 50.8878C106.407 50.9492 106.374 51.0105 106.312 51.0246C106.114 51.0765 105.892 51.1944 105.883 51.2793C105.883 51.2982 105.892 51.4066 106.265 51.5811C106.322 51.6094 106.345 51.6755 106.322 51.7321C106.298 51.7745 106.256 51.7981 106.213 51.7981Z" fill="#322223"/>
<path d="M117.679 51.354C117.655 52.0992 118.24 52.7217 118.985 52.7453C119.73 52.7689 120.353 52.1841 120.376 51.4389C120.4 50.6937 119.815 50.0711 119.07 50.0476C118.325 50.024 117.702 50.6088 117.679 51.354Z" fill="#FDA57F"/>
<path d="M118.938 51.7739C118.952 51.7739 118.966 51.7739 118.98 51.7645C119.353 51.6183 119.532 51.4579 119.527 51.2693C119.518 50.9768 119.051 50.8071 118.961 50.7788C118.9 50.7599 118.839 50.7929 118.82 50.8495C118.801 50.9108 118.834 50.9721 118.891 50.991C119.084 51.0523 119.301 51.1844 119.301 51.274C119.301 51.2928 119.287 51.4013 118.9 51.5522C118.844 51.5758 118.811 51.6419 118.834 51.6985C118.853 51.7456 118.895 51.7739 118.938 51.7739Z" fill="#322223"/>
<path d="M119.914 48.2926C117.73 48.8821 116.207 48.5755 115.198 48.1416C114.637 47.9011 114.283 47.6417 113.094 46.788C112.231 46.1655 110.939 45.2411 109.316 44.0903C109.302 44.3921 109.142 46.939 107.034 48.3114C106.01 48.9764 104.973 49.0755 104.435 49.0849C104.43 47.7125 104.553 44.6987 105.94 42.2651C106.949 40.4964 107.935 40.2418 108.152 40.1899C108.675 40.072 109.137 40.1474 109.439 40.2323C109.925 39.9446 110.665 39.5862 111.609 39.4447C114.622 38.9919 117.834 41.0011 119.211 43.779C120.093 45.5524 120.041 47.288 119.914 48.2926Z" fill="#F84558"/>
<path d="M129.639 75.8177C128.809 79.2842 127.781 83.6326 126.913 89.1791C126.508 91.7778 126.036 95.2773 125.701 99.4701C121.579 99.1824 117.358 98.8287 113.042 98.3948C109.416 98.0316 105.864 97.6308 102.393 97.1968C101.143 92.1645 99.9027 87.1275 98.667 82.0904C97.7049 78.1664 96.7475 74.2424 95.7901 70.3137C98.1482 68.4413 103.435 64.805 110.882 64.1824C116.731 63.6919 121.357 65.2719 123.617 66.069C126.899 67.2245 129.436 68.6913 131.163 69.842C130.771 71.2711 130.234 73.3274 129.639 75.8177Z" fill="#FCA67D"/>
<path d="M108.067 48.9304C108.005 48.9304 107.944 48.9021 107.902 48.8503C107.826 48.7559 107.84 48.6239 107.935 48.5484C108.934 47.7372 110.26 47.8693 110.316 47.874C110.434 47.8881 110.519 47.9919 110.505 48.1098C110.491 48.2277 110.387 48.3126 110.269 48.3032C110.255 48.3032 109.062 48.19 108.203 48.8833C108.161 48.9116 108.114 48.9304 108.067 48.9304Z" fill="#322223"/>
<path d="M115.023 48.8724C114.981 48.8724 114.934 48.8583 114.896 48.83C114.005 48.1791 112.816 48.3489 112.802 48.3536C112.689 48.3725 112.576 48.2923 112.557 48.1744C112.538 48.0565 112.618 47.948 112.736 47.9292C112.792 47.9197 114.108 47.7264 115.146 48.4857C115.24 48.5564 115.264 48.6885 115.193 48.7875C115.155 48.8394 115.089 48.8724 115.023 48.8724Z" fill="#322223"/>
<path d="M113.773 53.3359C113.283 53.8312 112.821 54.1 112.486 54.2556C112.038 54.4631 111.665 54.5339 110.463 54.8074C111.076 55.7507 112.024 56.2648 112.854 56.095C113.024 56.062 113.462 55.9394 113.773 55.5432C114.212 54.9819 114.217 54.1141 113.773 53.3359Z" fill="#32496F"/>
<path d="M81.4948 244.46V246.106C82.4946 246.149 84.1501 246.205 86.197 246.229C86.3998 246.234 86.5979 246.234 86.7959 246.234C90.569 246.22 94.0214 246.045 100.006 245.738C102.44 245.616 104.85 245.479 106.968 245.356C109.151 245.229 111.014 245.121 112.25 245.05C112.071 242.762 111.552 241.022 111.109 239.834C111.062 239.697 111.005 239.565 110.953 239.438C107.048 240.489 101.237 241.734 95.6202 241.734C93.2385 241.734 91.517 241.508 90.2719 241.168C88.0505 242.079 85.0792 243.239 81.4948 244.46Z" fill="#32496F"/>
<path d="M85.8103 245.131C86.0225 245.135 86.2253 245.135 86.4281 245.135C90.3851 245.145 93.6724 244.998 99.8036 244.701C102.077 244.593 104.331 244.47 106.312 244.362C108.982 244.22 111.132 244.098 112.142 244.041C112.184 244.366 112.222 244.697 112.25 245.046C112.25 245.06 112.255 245.083 112.255 245.102C112.255 245.102 109.618 245.263 106.02 245.461C104.105 245.569 101.926 245.692 99.7282 245.8C93.8045 246.097 90.6209 246.244 86.8007 246.234C86.6026 246.234 86.4045 246.234 86.2017 246.229C84.1548 246.206 82.4994 246.154 81.4995 246.107V245.031C82.5418 245.069 84.0322 245.112 85.8103 245.131Z" fill="#172949"/>
<path d="M154.57 242.606C154.57 242.606 154.301 243.502 153.768 245.29H140.147C140.147 245.29 140.124 244.12 140.128 242.752C140.138 240.276 140.062 240.017 140.194 239.206C140.275 238.701 140.383 238.3 140.454 238.055C140.987 238.461 142.779 239.71 145.279 239.522C147.604 239.347 149.151 238.041 149.665 237.564C149.99 238.267 150.486 239.149 151.226 240.026C152.438 241.46 153.74 242.215 154.57 242.606Z" fill="#32496F"/>
<path d="M154.57 242.606C154.57 242.606 154.301 243.502 153.768 245.289H140.147C140.147 245.289 140.124 244.12 140.128 242.752C142.369 243.893 147.024 245.223 154.31 242.479C154.4 242.516 154.485 242.563 154.57 242.606Z" fill="#172949"/>
<path d="M112.943 159.24C112.906 159.914 112.868 160.594 112.825 161.268C112.566 165.593 112.307 169.918 112.047 174.243C106.902 171.342 100.289 169.309 95.9598 168.173C95.941 163.824 95.9693 159.414 96.0542 154.943L112.943 159.24Z" fill="#CD7D6C"/>
<path d="M141.671 187.18C137.077 181.549 129.818 177.87 124.946 175.884C124.48 173.781 124.017 171.644 123.555 169.423C123.046 166.97 122.513 164.343 121.975 161.537L138.897 165.848C138.992 166.56 139.086 167.258 139.176 167.942C139.812 172.814 140.463 178.233 141.671 187.18Z" fill="#CD7D6C"/>
<path d="M150.967 168.887C141.487 174.669 134.238 175.207 129.271 174.546C118.829 173.155 112.425 165.699 98.1435 163.699C95.6344 163.35 91.6585 162.977 87.7675 165.114C84.3246 167 82.4994 170 81.6363 171.717L100.03 87.7656L126.913 89.1805C131.431 104.16 135.954 119.139 140.473 134.118C140.676 134.783 140.874 135.448 141.076 136.113C141.18 136.462 141.289 136.816 141.392 137.165C142.114 139.556 142.836 141.942 143.557 144.333C146.029 152.516 148.495 160.704 150.967 168.887Z" fill="#32496F"/>
<path d="M132.573 174.998C131.45 174.998 130.337 174.923 129.238 174.781C124.362 174.13 120.334 172.154 116.066 170.065C110.986 167.575 105.737 165 98.1058 163.934C96.2664 163.679 91.9604 163.08 87.876 165.32C85.3811 166.688 83.2917 168.938 81.8438 171.824L80.9996 173.499L99.8367 87.5195L127.083 88.9533L127.13 89.1136L143.774 144.267C145.01 148.356 146.246 152.449 147.476 156.543C148.712 160.637 149.943 164.726 151.184 168.82L151.235 168.994L151.08 169.089C144.647 173.017 138.435 174.998 132.573 174.998ZM94.7241 163.198C95.9598 163.198 97.1248 163.316 98.1718 163.462C105.874 164.542 111.396 167.249 116.273 169.636C120.504 171.711 124.498 173.668 129.3 174.31C135.959 175.196 143.156 173.333 150.684 168.777C149.467 164.745 148.25 160.712 147.033 156.675C145.797 152.582 144.566 148.492 143.331 144.399L126.734 89.4061L100.214 88.01L82.2022 170.211C83.6266 167.91 85.4895 166.089 87.6496 164.905C90.0597 163.585 92.5075 163.198 94.7241 163.198Z" fill="#32496F"/>
<path d="M99.997 89.556L97.5964 77.7416C97.5964 77.7416 106.925 70.5491 129.182 77.7416L126.668 90.82C126.668 90.8153 107.043 93.23 99.997 89.556Z" fill="#32496F"/>
<path d="M101.917 124.08L99.7046 129.268L87.7675 126.438V119.363L101.917 124.08Z" fill="#32496F"/>
<g opacity="0.19">
<g opacity="0.19">
<g opacity="0.19">
<g opacity="0.19">
<g opacity="0.19">
<path opacity="0.19" d="M92.9225 152.991C92.9744 155.104 94.394 156.783 96.0966 156.741C97.7945 156.698 99.1339 154.953 99.082 152.84C99.0302 150.727 97.6106 149.048 95.9079 149.091C94.2053 149.128 92.8706 150.878 92.9225 152.991Z" fill="#F84558"/>
</g>
</g>
</g>
</g>
<g opacity="0.19">
<g opacity="0.19">
<g opacity="0.19">
<g opacity="0.19">
<path opacity="0.19" d="M99.964 151.322L101.516 150.449C100.384 147.407 97.7992 145.544 95.2288 145.926C93.0404 146.247 91.1727 148.091 90.3615 150.737L91.9604 151.515C92.5499 149.6 93.8846 148.27 95.4457 148.039C97.2898 147.761 99.1434 149.115 99.964 151.322Z" fill="#F84558"/>
</g>
</g>
</g>
</g>
</g>
<g opacity="0.19">
<g opacity="0.19">
<g opacity="0.19">
<g opacity="0.19">
<g opacity="0.19">
<path opacity="0.19" d="M112.26 159.122C112.311 161.235 113.731 162.914 115.434 162.871C117.132 162.829 118.471 161.084 118.419 158.971C118.367 156.858 116.948 155.179 115.245 155.221C113.542 155.259 112.208 157.009 112.26 159.122Z" fill="#F84558"/>
</g>
</g>
</g>
</g>
<g opacity="0.19">
<g opacity="0.19">
<g opacity="0.19">
<g opacity="0.19">
<path opacity="0.19" d="M119.301 157.453L120.853 156.58C119.721 153.538 117.136 151.675 114.566 152.057C112.377 152.378 110.51 154.222 109.699 156.868L111.297 157.646C111.887 155.731 113.222 154.401 114.783 154.17C116.627 153.892 118.48 155.245 119.301 157.453Z" fill="#F84558"/>
</g>
</g>
</g>
</g>
</g>
<g opacity="0.19">
<g opacity="0.19">
<g opacity="0.19">
<g opacity="0.19">
<g opacity="0.19">
<path opacity="0.19" d="M133.955 160.065C134.007 162.178 135.426 163.857 137.129 163.815C138.827 163.772 140.166 162.027 140.114 159.914C140.062 157.801 138.643 156.122 136.94 156.165C135.238 156.203 133.903 157.952 133.955 160.065Z" fill="#F84558"/>
</g>
</g>
</g>
</g>
<g opacity="0.19">
<g opacity="0.19">
<g opacity="0.19">
<g opacity="0.19">
<path opacity="0.19" d="M140.996 158.396L142.548 157.524C141.416 154.482 138.831 152.619 136.261 153.001C134.073 153.321 132.205 155.165 131.394 157.811L132.993 158.589C133.582 156.675 134.917 155.345 136.478 155.114C138.322 154.835 140.176 156.189 140.996 158.396Z" fill="#F84558"/>
</g>
</g>
</g>
</g>
</g>
<g opacity="0.19">
<g opacity="0.19">
<g opacity="0.19">
<g opacity="0.19">
<g opacity="0.19">
<path opacity="0.19" d="M122.164 143.557C122.216 145.67 123.635 147.349 125.338 147.307C127.036 147.264 128.375 145.519 128.323 143.407C128.272 141.294 126.852 139.615 125.149 139.657C123.447 139.695 122.112 141.445 122.164 143.557Z" fill="#F84558"/>
</g>
</g>
</g>
</g>
<g opacity="0.19">
<g opacity="0.19">
<g opacity="0.19">
<g opacity="0.19">
<path opacity="0.19" d="M129.205 141.888L130.757 141.016C129.625 137.974 127.041 136.111 124.47 136.493C122.282 136.814 120.414 138.658 119.603 141.303L121.202 142.082C121.791 140.167 123.126 138.837 124.687 138.606C126.531 138.327 128.385 139.681 129.205 141.888Z" fill="#F84558"/>
</g>
</g>
</g>
</g>
</g>
<g opacity="0.19">
<g opacity="0.19">
<g opacity="0.19">
<g opacity="0.19">
<g opacity="0.19">
<path opacity="0.19" d="M102.827 139.313C102.879 141.426 104.298 143.105 106.001 143.063C107.699 143.02 109.038 141.275 108.986 139.162C108.935 137.049 107.515 135.37 105.812 135.413C104.11 135.451 102.775 137.2 102.827 139.313Z" fill="#F84558"/>
</g>
</g>
</g>
</g>
<g opacity="0.19">
<g opacity="0.19">
<g opacity="0.19">
<g opacity="0.19">
<path opacity="0.19" d="M109.868 137.644L111.42 136.772C110.288 133.73 107.704 131.867 105.133 132.249C102.945 132.569 101.077 134.413 100.266 137.059L101.865 137.838C102.454 135.923 103.789 134.593 105.35 134.362C107.194 134.083 109.048 135.437 109.868 137.644Z" fill="#F84558"/>
</g>
</g>
</g>
</g>
</g>
<g opacity="0.19">
<g opacity="0.19">
<g opacity="0.19">
<g opacity="0.19">
<g opacity="0.19">
<path opacity="0.19" d="M143.557 144.333C143.312 144.423 143.057 144.474 142.788 144.479C141.086 144.522 139.666 142.843 139.614 140.73C139.577 139.154 140.308 137.777 141.392 137.164C142.114 139.555 142.836 141.942 143.557 144.333Z" fill="#F84558"/>
</g>
</g>
</g>
</g>
<g opacity="0.19">
<g opacity="0.19">
<g opacity="0.19">
<g opacity="0.19">
<path opacity="0.19" d="M141.076 136.112C139.987 136.664 139.1 137.787 138.657 139.244L137.058 138.47C137.681 136.433 138.93 134.872 140.473 134.117C140.676 134.782 140.874 135.447 141.076 136.112Z" fill="#F84558"/>
</g>
</g>
</g>
</g>
</g>
<g opacity="0.19">
<g opacity="0.19">
<g opacity="0.19">
<g opacity="0.19">
<g opacity="0.19">
<path opacity="0.19" d="M113.203 123.749C113.255 125.862 114.674 127.541 116.377 127.498C118.075 127.456 119.414 125.711 119.362 123.598C119.31 121.485 117.891 119.806 116.188 119.848C114.486 119.886 113.151 121.636 113.203 123.749Z" fill="#F84558"/>
</g>
</g>
</g>
</g>
<g opacity="0.19">
<g opacity="0.19">
<g opacity="0.19">
<g opacity="0.19">
<path opacity="0.19" d="M120.244 122.08L121.796 121.207C120.664 118.165 118.079 116.302 115.509 116.684C113.321 117.005 111.453 118.849 110.642 121.495L112.241 122.273C112.83 120.358 114.165 119.028 115.726 118.797C117.57 118.519 119.424 119.872 120.244 122.08Z" fill="#F84558"/>
</g>
</g>
</g>
</g>
</g>
<g opacity="0.19">
<g opacity="0.19">
<g opacity="0.19">
<g opacity="0.19">
<g opacity="0.19">
<path opacity="0.19" d="M130.653 121.862C130.705 123.975 132.125 125.654 133.827 125.612C135.525 125.569 136.865 123.824 136.813 121.711C136.761 119.598 135.341 117.919 133.639 117.962C131.936 117.999 130.601 119.749 130.653 121.862Z" fill="#F84558"/>
</g>
</g>
</g>
</g>
<g opacity="0.19">
<g opacity="0.19">
<g opacity="0.19">
<g opacity="0.19">
<path opacity="0.19" d="M137.695 120.193L139.246 119.32C138.115 116.278 135.53 114.415 132.96 114.797C130.771 115.118 128.903 116.962 128.092 119.608L129.691 120.386C130.281 118.472 131.615 117.141 133.177 116.91C135.021 116.632 136.874 117.986 137.695 120.193Z" fill="#F84558"/>
</g>
</g>
</g>
</g>
</g>
<g opacity="0.19">
<g opacity="0.19">
<g opacity="0.19">
<g opacity="0.19">
<g opacity="0.19">
<path opacity="0.19" d="M119.806 104.884C119.858 106.997 121.277 108.676 122.98 108.633C124.678 108.591 126.017 106.846 125.965 104.733C125.913 102.62 124.494 100.941 122.791 100.983C121.089 101.021 119.754 102.771 119.806 104.884Z" fill="#F84558"/>
</g>
</g>
</g>
</g>
<g opacity="0.19">
<g opacity="0.19">
<g opacity="0.19">
<g opacity="0.19">
<path opacity="0.19" d="M126.847 103.214L128.399 102.342C127.267 99.2999 124.682 97.4369 122.112 97.819C119.924 98.1397 118.056 99.9838 117.245 102.63L118.844 103.408C119.433 101.493 120.768 100.163 122.329 99.9319C124.173 99.6536 126.027 101.007 126.847 103.214Z" fill="#F84558"/>
</g>
</g>
</g>
</g>
</g>
<g opacity="0.19">
<g opacity="0.19">
<g opacity="0.19">
<g opacity="0.19">
<g opacity="0.19">
<path opacity="0.19" d="M101.884 104.884C101.935 106.997 103.355 108.676 105.058 108.633C106.756 108.591 108.095 106.846 108.043 104.733C107.991 102.62 106.572 100.941 104.869 100.983C103.166 101.021 101.832 102.771 101.884 104.884Z" fill="#F84558"/>
</g>
</g>
</g>
</g>
<g opacity="0.19">
<g opacity="0.19">
<g opacity="0.19">
<g opacity="0.19">
<path opacity="0.19" d="M108.925 103.214L110.477 102.342C109.345 99.2999 106.76 97.4369 104.19 97.819C102.001 98.1397 100.134 99.9838 99.3226 102.63L100.921 103.408C101.511 101.493 102.846 100.163 104.407 99.9319C106.251 99.6536 108.104 101.007 108.925 103.214Z" fill="#F84558"/>
</g>
</g>
</g>
</g>
</g>
<g opacity="0.19">
<g opacity="0.19">
<g opacity="0.19">
<g opacity="0.19">
<g opacity="0.19">
<path opacity="0.19" d="M111.316 88.3778C111.368 90.4907 112.788 92.1697 114.49 92.1273C116.188 92.0848 117.528 90.3398 117.476 88.2269C117.424 86.1139 116.004 84.4349 114.302 84.4773C112.599 84.5151 111.264 86.2648 111.316 88.3778Z" fill="#F84558"/>
</g>
</g>
</g>
</g>
<g opacity="0.19">
<g opacity="0.19">
<g opacity="0.19">
<g opacity="0.19">
<path opacity="0.19" d="M118.358 86.7086L119.909 85.8361C118.777 82.794 116.193 80.9311 113.623 81.3131C111.434 81.6338 109.566 83.4779 108.755 86.1238L110.354 86.902C110.944 84.9871 112.278 83.6571 113.839 83.426C115.684 83.1478 117.537 84.5014 118.358 86.7086Z" fill="#F84558"/>
</g>
</g>
</g>
</g>
</g>
<path d="M134.931 120.638C134.931 120.638 136.874 126.91 137.299 126.91C137.723 126.91 146.25 124.081 146.25 124.081V118.893L134.931 120.638Z" fill="#32496F"/>
<path d="M103.732 75.2087C103.435 71.2659 101.469 66.7995 101.45 66.757L102.742 66.1816C102.827 66.375 104.827 70.9121 105.143 75.105L103.732 75.2087Z" fill="#32496F"/>
<path d="M114.009 93.3679C103.902 93.3679 99.6622 90.4862 99.4216 90.3164L99.6952 89.9297C99.7754 89.9863 107.902 95.4761 128.281 91.3069L128.375 91.769C122.65 92.9387 117.896 93.3679 114.009 93.3679Z" fill="#32496F"/>
<path d="M104.44 65.5446C104.44 65.5446 97.6718 89.6499 92.4839 94.8378C87.2959 100.026 83.9944 93.8946 83.9944 93.8946C83.9944 93.8946 84.3576 92.0788 84.9849 89.4235C85.7819 86.0324 87.0129 81.2736 88.4703 77.1516C89.555 74.0812 90.7624 71.3693 92.0122 69.8412C96.2569 64.6532 104.44 65.5446 104.44 65.5446Z" fill="#FFC77F"/>
<path d="M111.821 81.1619L101.917 124.081C101.327 124.081 100.761 124.071 100.214 124.052C90.6728 123.732 87.2959 120.779 87.2959 120.779C87.2959 120.779 86.3526 113.705 87.2959 109.932C87.3053 109.894 87.3147 109.851 87.3289 109.809C87.8571 107.823 90.8567 98.7728 94.0167 89.359C97.936 77.7001 102.096 65.4848 102.096 65.4848L106.623 64.2397L108.387 63.7539L111.821 81.1619Z" fill="#FFC77F"/>
<path d="M144.835 120.778L136.841 121.919L134.931 122.193C134.931 122.193 133.714 120.754 132.299 118.575C130.79 116.25 129.059 113.09 128.328 109.93C128.125 109.044 127.743 107.761 127.243 106.204C124.263 96.9838 117.009 78.3307 117.009 78.3307V64.1816C117.513 64.309 118.004 64.4363 118.48 64.5684C130.573 67.8462 134.28 72.1287 135.172 75.7273C135.888 78.6325 134.436 80.8445 134.521 85.325C134.54 86.4522 134.657 87.7209 134.931 89.1783C136.195 95.9226 138.214 101.912 143.01 109.171C143.576 110.034 144.184 110.916 144.835 111.817C150.967 120.306 144.835 120.778 144.835 120.778Z" fill="#FFC77F"/>
<path d="M147.236 96.3484C143.109 99.7961 124.531 80.2798 123.315 76.3652C123.315 76.3652 123.654 68.9511 125.102 66.8477C125.102 66.8477 128.54 68.2154 134.478 72.96C136.124 74.2759 137.968 75.8512 139.982 77.7283C140.808 78.497 141.576 79.2517 142.288 79.9874C149.575 87.51 150.995 93.2073 147.236 96.3484Z" fill="#FFC77F"/>
<path d="M127.649 74.8281C128.767 73.1821 129.564 71.654 130.134 70.3995C131.403 67.6074 130.795 67.7866 131.592 66.4849C131.785 66.1689 132.318 65.3388 132.016 64.8719C131.997 64.8389 131.879 64.6549 131.667 64.6219C131.101 64.5229 130.262 65.5746 128.885 67.3244C128.88 67.3338 128.87 67.3386 128.861 67.3433C128.587 67.4376 127.522 64.7163 125.744 61.5799C124.593 59.5519 123.607 58.1747 122.98 58.3303C122.9 58.3492 122.716 58.4199 122.617 58.585C122.376 58.9765 122.763 59.6085 122.923 59.8726C123.357 60.6083 123.885 61.6459 124.564 63.207C124.975 64.0654 125.39 64.9238 125.8 65.7822L125.008 65.9095C125.008 65.9095 122.159 58.2502 121.032 58.835C119.909 59.4198 123.423 66.1642 123.423 66.1642C123.423 66.1642 120.056 59.7075 119.367 60.0093C119.31 60.0329 119.273 60.1037 119.244 60.3395C119.079 61.5988 119.645 62.7213 120.598 64.5465C121.022 65.3671 121.353 65.9944 121.485 66.2491C121.4 66.367 121.315 66.4802 121.235 66.5981C119.509 63.5749 118.806 62.9241 118.513 63.0372C118.372 63.0938 118.278 63.3391 118.263 63.3863C118.075 63.8768 118.367 64.4097 118.457 64.5842C118.839 65.3105 119.655 67.2159 120.773 69.8382L123.956 77.0401L127.649 74.8281Z" fill="#FCA67D"/>
<path d="M111.821 81.1619L101.917 124.081C101.327 124.081 100.761 124.071 100.214 124.052L109.934 81.6336L106.624 64.2397L108.387 63.7539L111.821 81.1619Z" fill="#32496F"/>
<path d="M100.393 74.5356C99.5537 72.734 99.0066 71.0974 98.6387 69.7674C97.8275 66.8103 98.3982 67.0838 97.8228 65.6736C97.6813 65.3293 97.2851 64.4285 97.6577 64.0135C97.6813 63.9852 97.8275 63.8248 98.0397 63.8201C98.6151 63.8107 99.2754 64.9803 100.36 66.9282C100.365 66.9376 100.37 66.947 100.384 66.9517C100.638 67.0885 102.119 64.5653 104.374 61.7543C105.831 59.9338 107.024 58.7264 107.619 58.9811C107.694 59.0141 107.864 59.1132 107.939 59.2924C108.114 59.7169 107.633 60.2781 107.435 60.5186C106.888 61.1742 106.204 62.1175 105.284 63.5513C104.742 64.3342 104.199 65.1171 103.657 65.9L104.416 66.15C104.416 66.15 108.444 59.0377 109.463 59.7923C110.481 60.5469 105.94 66.6499 105.94 66.6499C105.94 66.6499 110.283 60.8111 110.92 61.2167C110.972 61.2497 110.996 61.3251 110.991 61.561C110.953 62.8297 110.217 63.8484 108.991 65.4991C108.439 66.2396 108.015 66.8103 107.845 67.0414C107.911 67.1687 107.972 67.296 108.038 67.4234C110.217 64.7115 111.019 64.1785 111.288 64.3389C111.415 64.4144 111.472 64.6738 111.481 64.7209C111.59 65.235 111.217 65.7161 111.104 65.8717C110.614 66.5273 109.505 68.2817 107.987 70.6918L103.704 77.2994L100.393 74.5356Z" fill="#FCA67D"/>
<path d="M136.841 121.919L134.931 122.193C134.931 122.193 133.714 120.754 132.299 118.575C130.79 116.25 129.059 113.09 128.328 109.93C128.125 109.044 127.743 107.761 127.243 106.204C124.263 96.9838 117.009 78.3307 117.009 78.3307V64.1816C117.513 64.309 118.004 64.4363 118.48 64.5684L118.895 78.3307C118.895 78.3307 130.215 108.987 131.158 111.817C132.101 114.647 136.841 121.919 136.841 121.919Z" fill="#32496F"/>
<path d="M98.1435 73.5915L98.1293 70.7617L106.633 73.5444L104.628 77.8551C104.624 77.8598 100.049 77.3552 98.1435 73.5915Z" fill="#32496F"/>
<path d="M124.083 76.9173L122.569 74.0073L129.271 70.3145L131.219 73.0971C131.219 73.0971 129.271 79.7471 124.083 76.9173Z" fill="#32496F"/>
<path d="M102.388 98.141C99.0821 102.551 92.0547 106.956 87.3289 109.809C87.8571 107.824 90.8567 98.773 94.0167 89.3591L105.218 81.1621C105.218 81.1621 106.633 92.4813 102.388 98.141Z" fill="#32496F"/>
<path d="M143.01 109.171C133.832 106.771 130.37 99.7387 128.328 94.7912C125.97 89.0845 125.149 83.0664 125.149 83.0664L134.521 85.3255C134.54 86.4527 134.657 87.7214 134.931 89.1788C136.195 95.9232 138.214 101.913 143.01 109.171Z" fill="#32496F"/>
<path d="M99.3509 73.097L84.9849 89.425C85.782 86.034 87.0129 81.2752 88.4703 77.1531C92.7716 74.6251 97.9265 72.0264 99.3509 73.097Z" fill="#32496F"/>
<path d="M142.288 79.9863L141.534 82.1039L130.134 72.2656C130.134 72.2656 131.931 72.4684 134.478 72.9589C136.124 74.2748 137.968 75.85 139.982 77.7271C140.808 78.4959 141.576 79.2505 142.288 79.9863Z" fill="#32496F"/>
<path d="M82.9757 93.5459C83.6973 90.617 84.9188 88.4192 87.3524 84.0283C90.602 78.1753 92.4084 76.5387 93.9082 75.5011C95.3466 74.5107 96.705 73.9306 97.6718 73.5957C99.8791 74.6852 102.086 75.7747 104.294 76.8594C104.628 77.7602 105.091 79.2365 105.26 81.0994C105.996 89.2115 100.313 95.4513 98.7471 97.1727C96.3088 99.8469 94.1393 101.125 93.5827 101.446C92.531 102.045 86.0413 105.761 83.2162 103.389C81.0042 101.531 82.1503 96.8803 82.9757 93.5459Z" fill="#FFC77F"/>
<path d="M124.319 77.1659C126.258 75.534 128.196 73.8975 130.134 72.2656C130.856 72.4307 131.87 72.6995 133.044 73.1429C143.416 77.0669 151.58 89.202 149.146 97.5547C148.858 98.5451 147.892 102.007 144.892 103.129C143.048 103.818 141.053 103.304 140.081 103.049C140.081 103.049 137.888 102.578 135.86 100.946C133.422 98.979 131.262 93.758 127.385 87.7635C125.824 85.3488 124.178 83.1132 124.083 79.7457C124.05 78.661 124.192 77.7649 124.319 77.1659Z" fill="#FFC77F"/>
<path d="M110.019 207.437C109.981 208.074 109.944 208.706 109.901 209.342C108.26 209.498 106.534 209.555 104.808 209.555C102.266 209.555 99.7376 209.423 97.5256 209.248C97.4785 208.616 97.436 207.975 97.3889 207.338C101.176 207.64 105.958 207.838 110.019 207.437Z" fill="#32496F"/>
<path d="M144.765 208.985C143.571 209.055 142.345 209.084 141.124 209.084C138.185 209.084 135.266 208.909 132.832 208.697C132.672 208.056 132.511 207.409 132.351 206.754C135.775 207.065 140.35 207.334 144.482 207.108C144.576 207.74 144.67 208.367 144.765 208.985Z" fill="#32496F"/>
<path d="M145.689 215.144C144.651 215.191 143.595 215.215 142.538 215.215C139.661 215.215 136.799 215.045 134.393 214.838C134.228 214.196 134.063 213.55 133.898 212.895C137.171 213.192 141.463 213.442 145.406 213.262C145.5 213.899 145.595 214.526 145.689 215.144Z" fill="#32496F"/>
<path d="M109.656 213.309C109.618 213.955 109.576 214.596 109.533 215.242C107.345 215.563 104.893 215.686 102.45 215.686C100.945 215.686 99.4452 215.638 98.0114 215.568C97.9596 214.936 97.9124 214.299 97.8605 213.662C101.742 213.87 106.138 213.889 109.656 213.309Z" fill="#32496F"/>
<path d="M203.412 17.2455C203.412 17.2455 199.238 7.62413 200.205 7.09118C201.172 6.55352 201.323 7.40718 201.441 7.77505C201.559 8.14764 202.922 11.35 202.922 11.35C202.974 11.2368 203.026 11.1237 203.077 11.0105C201.898 7.57696 201.097 4.97355 200.932 4.1246C200.866 3.78031 200.832 3.36999 201.068 3.09172C201.205 2.93137 201.436 2.81818 201.625 2.82761C202.148 2.86062 202.431 3.84634 202.879 5.13861C203.728 7.5864 204.686 9.76063 204.69 9.77478C204.775 9.72762 204.856 9.68518 204.94 9.63801C204.148 7.47321 203.592 5.68099 203.219 4.36513C202.894 3.2285 202.512 1.78058 203.082 1.35611C203.096 1.34667 203.309 1.19103 203.568 1.23348C204.082 1.31838 204.346 2.12487 204.469 2.52105C206.242 8.20424 206.402 9.00602 206.402 9.00602C206.53 8.94471 206.657 8.88811 206.785 8.8268C204.964 2.09186 205.195 1.06841 205.454 0.926918C205.78 0.747697 206.035 0.832593 206.035 0.832593C206.11 0.856174 206.318 0.945784 206.483 1.33252C206.728 1.89849 207.53 4.6151 208.548 8.33158C208.827 9.0579 209.105 9.78421 209.383 10.5105C209.383 10.5105 210.628 7.1808 211.336 6.75161C211.515 6.64313 211.694 6.67614 211.694 6.67614C211.694 6.67614 212.005 6.70444 212.288 7.09118C212.807 7.80335 212.161 10.9586 211.883 12.8027C211.68 14.1516 211.449 16.8682 211.449 16.8682C211.43 18.5472 211.411 20.2215 211.392 21.9005C209.779 22.2967 208.166 22.6929 206.553 23.089C205.497 21.1365 204.455 19.1886 203.412 17.2455Z" fill="#FDA57F"/>
<path d="M204.874 15.5513L204.653 15.523C204.742 14.8109 205.044 14.1034 205.554 13.4196C205.959 12.8725 206.492 12.3395 207.143 11.8349C208.247 10.9765 209.317 10.4813 209.327 10.4766L209.421 10.6794C209.412 10.6841 208.36 11.1699 207.28 12.0141C206.285 12.7829 205.063 14.0233 204.874 15.5513Z" fill="#32496F"/>
<path d="M243.841 242.838L243.949 244.187C243.949 244.187 220.349 245.597 218.09 245.319C215.83 245.045 213.397 242.517 213.288 241.168C213.18 239.819 214.986 240.249 214.986 240.249L243.841 242.838Z" fill="#1A2949"/>
<path d="M240.148 231.934C240.129 232.321 240.105 232.712 240.087 233.099C240.874 236.655 238.629 239.466 236.653 239.584C234.983 239.683 232.918 237.891 232.413 235.127C231.941 234.287 231.465 233.443 230.993 232.604C230.965 232.424 230.937 232.245 230.909 232.066C230.88 231.887 230.852 231.707 230.824 231.528C230.767 231.165 230.71 230.802 230.654 230.444C230.626 230.264 230.602 230.085 230.569 229.906C230.229 227.736 229.89 225.562 229.546 223.393C233.22 223.723 236.889 224.048 240.558 224.374C240.464 226.185 240.365 227.986 240.266 229.793C240.261 229.972 240.252 230.151 240.237 230.33C240.214 230.689 240.2 231.042 240.181 231.401C240.162 231.58 240.153 231.755 240.148 231.934Z" fill="white"/>
<path d="M242.954 242.909C242.954 242.909 240.426 243.06 236.969 243.248C235.139 243.347 233.05 243.465 230.942 243.574C224.876 243.88 218.66 244.144 217.976 243.975C216.609 243.63 214.722 242.418 214.137 240.654C214.137 240.654 217.953 238.848 221.698 237.06H221.702C222.325 236.763 222.952 236.466 223.556 236.174C223.91 236.009 224.254 235.839 224.589 235.679C224.81 235.57 225.027 235.471 225.24 235.363C225.357 235.311 225.475 235.249 225.584 235.197C225.952 235.023 226.296 234.858 226.617 234.702C226.956 234.532 227.277 234.377 227.555 234.245C227.89 234.08 228.168 233.938 228.381 233.834C228.451 233.797 228.517 233.759 228.574 233.735C228.687 233.679 228.767 233.627 228.796 233.608C229.564 233.184 230.272 232.787 230.795 232.67C231.658 232.481 232.805 232.872 233.455 233.735C234.125 234.613 234.021 235.622 233.988 235.863C234.502 236.018 235.309 236.164 236.115 235.863C237.021 235.528 237.139 234.924 238.243 234.264C238.695 233.99 239.983 233.226 240.775 233.646C241.535 234.051 241.228 235.386 241.568 236.721C242.223 239.258 242.883 242.013 242.954 242.909Z" fill="#F84558"/>
<path d="M302.588 233.607L303.097 234.815C299.461 236.234 296.669 237.701 294.782 238.791C291.344 240.772 290.268 241.847 287.283 242.837C285.882 243.299 283.368 244.092 280.119 243.771C277.964 243.559 273.903 242.696 273.799 241.559C273.686 240.206 279.161 237.88 302.588 233.607Z" fill="#1A2949"/>
<path d="M295.815 224.709C295.914 225.072 296.018 225.435 296.117 225.798C297.942 228.812 296.753 232.085 294.98 232.802C293.48 233.41 291.033 232.411 289.712 230.034C289.019 229.411 288.321 228.784 287.627 228.161C287.547 228.006 287.462 227.855 287.382 227.694C287.302 227.539 287.217 227.388 287.137 227.227C286.972 226.916 286.811 226.6 286.646 226.284C286.566 226.128 286.486 225.973 286.401 225.817C285.415 223.931 284.43 222.049 283.449 220.162C286.915 219.327 290.382 218.488 293.844 217.648C294.315 219.337 294.787 221.021 295.254 222.704C295.306 222.874 295.348 223.034 295.395 223.204C295.485 223.539 295.584 223.869 295.673 224.204C295.716 224.374 295.763 224.539 295.815 224.709Z" fill="white"/>
<path d="M301.781 233.89C299.385 234.565 297.588 235.414 296.405 236.055C293.862 237.432 292.919 238.517 290.221 240.087C288.17 241.281 286.373 242.016 285.203 242.446C283.873 242.691 282.119 242.88 280.062 242.748C277.666 242.587 275.709 242.04 274.318 241.535C274.983 240.705 275.714 239.852 276.511 238.984C277.869 237.512 279.213 236.23 280.496 235.116H280.501C280.977 234.65 281.463 234.183 281.925 233.73C282.194 233.47 282.458 233.206 282.718 232.956C282.887 232.791 283.053 232.631 283.218 232.466C283.307 232.381 283.397 232.291 283.482 232.207C283.765 231.933 284.029 231.674 284.274 231.433C284.533 231.174 284.779 230.933 284.991 230.726C285.246 230.471 285.458 230.254 285.618 230.094C285.67 230.037 285.722 229.98 285.764 229.943C285.849 229.853 285.906 229.787 285.93 229.754C286.5 229.127 287.028 228.547 287.472 228.278C288.203 227.839 289.372 227.844 290.24 228.429C291.127 229.028 291.339 229.98 291.386 230.216C291.905 230.197 292.688 230.084 293.339 229.556C294.065 228.966 293.985 228.382 294.796 227.434C295.126 227.047 296.07 225.943 296.928 226.085C297.749 226.221 297.881 227.537 298.607 228.66C299.984 230.773 301.442 233.093 301.781 233.89Z" fill="#F84558"/>
<path d="M241.813 42.5667C242.959 48.132 242.822 49.4432 242.464 49.5611C242.181 49.6554 241.813 48.9857 240.106 47.2029C238.639 45.6701 238.563 45.8021 238.219 45.3164C236.512 42.9157 237.351 38.3503 239.162 37.7702C239.497 37.6617 240.091 37.6193 241.049 38.2418C240.497 37.3599 240.516 36.7043 240.577 36.3553C240.954 34.1764 244.963 32.5728 246.708 33.9971C246.911 34.1669 247.595 34.7895 247.652 36.3553C247.859 35.9356 248.416 34.9593 249.538 34.4688C251.241 33.7236 253.731 34.332 254.255 35.8837C254.585 36.86 254.023 37.8598 253.783 38.2418C255.443 37.3363 257.452 38.1381 258.028 39.6568C258.556 41.0575 257.778 42.8403 256.141 43.4298C258.146 44.4391 258.414 45.6701 258.457 45.8965C258.825 47.8726 256.504 50.6317 252.274 51.6033C252.288 51.4995 252.359 50.7402 251.797 50.1789C251.439 49.8158 251.01 49.7262 250.845 49.7026C247.836 47.3255 244.822 44.9438 241.813 42.5667Z" fill="#32496F"/>
<path d="M295.758 221.709C294.386 222.497 292.811 223.284 291.028 223.982C289.622 224.534 288.25 224.968 286.934 225.303C286.453 225.425 285.981 225.534 285.519 225.633C282.982 226.175 280.685 226.378 278.779 226.425C277.407 223.85 275.888 220.884 274.275 217.549C274.049 217.082 273.823 216.611 273.596 216.134C273.346 215.611 273.096 215.082 272.846 214.54C272.629 214.078 272.412 213.606 272.191 213.13C270.799 210.097 269.366 206.819 267.932 203.315C266.974 200.981 264.951 195.939 262.272 187.926C262.117 187.459 261.956 186.982 261.796 186.492C261.621 185.968 261.447 185.426 261.268 184.874C261.117 184.407 260.966 183.936 260.81 183.455C260.074 181.153 259.301 178.658 258.499 175.96C257.018 170.999 255.415 165.287 253.778 158.883C253.66 158.411 253.538 157.935 253.42 157.458C253.311 157.024 253.198 156.586 253.09 156.142C252.976 155.675 252.858 155.204 252.741 154.727C251.123 148.096 249.496 140.786 247.958 132.848C247.812 132.084 247.666 131.315 247.52 130.542C247.171 132.466 246.817 134.541 246.468 136.763C245.633 142.045 244.812 148.139 244.166 154.907C244.119 155.374 244.077 155.845 244.034 156.317C243.982 156.836 243.935 157.359 243.893 157.887C243.888 157.939 243.883 157.986 243.879 158.038C243.864 158.166 243.827 158.623 243.77 159.335C243.567 161.939 243.124 167.98 242.935 174.074C242.832 177.323 242.803 180.559 242.832 183.752C242.836 184.223 242.841 184.695 242.85 185.167C242.86 185.808 242.869 186.45 242.883 187.086C242.893 187.572 242.907 188.058 242.921 188.544C243.157 197.509 243.817 205.985 244.567 213.238C244.619 213.71 244.666 214.177 244.713 214.639C244.794 215.347 244.869 216.035 244.944 216.714C245.001 217.205 245.058 217.686 245.11 218.162C245.496 221.44 245.883 224.383 246.237 226.897C244.572 227.713 241.492 228.982 237.478 229.236C237.021 229.265 236.549 229.283 236.064 229.283C235.686 229.283 235.304 229.274 234.918 229.255C234.337 229.227 233.781 229.175 233.243 229.109C232.748 229.048 232.267 228.972 231.809 228.883C229.777 228.501 228.117 227.897 226.9 227.369C226.494 224.048 226.089 220.346 225.706 216.29C225.664 215.804 225.617 215.309 225.57 214.814C225.48 213.804 225.391 212.776 225.306 211.724C225.268 211.225 225.225 210.725 225.183 210.22C224.692 203.999 224.292 197.099 224.07 189.638C224.051 188.954 224.032 188.289 224.013 187.648C223.999 187.157 223.985 186.676 223.971 186.204C223.947 185.351 223.924 184.53 223.9 183.742C223.886 183.275 223.877 182.818 223.862 182.37C223.688 175.404 223.683 170.744 224.07 165.113C224.207 163.127 224.381 161.085 224.589 159.01C224.636 158.543 224.683 158.067 224.73 157.595C224.806 156.869 224.886 156.138 224.971 155.407C225.018 154.963 225.07 154.515 225.126 154.067C226.268 144.37 227.918 134.343 229.324 126.137C229.404 125.665 229.484 125.203 229.564 124.746C229.682 124.048 229.8 123.364 229.913 122.699C229.994 122.237 230.074 121.779 230.149 121.336C230.989 116.497 231.654 112.639 231.927 110.361C231.946 110.196 232.092 108.998 232.295 107.347C232.602 104.913 232.918 102.499 233.253 100.107C244.034 102.64 254.806 105.182 265.588 107.715L265.64 108.026L266.116 110.908L268.064 122.67L268.295 124.071L268.418 124.816L268.653 126.241L273.172 153.558L273.408 154.963L273.544 155.812L273.78 157.222L276.525 173.814C277.629 176.64 278.742 179.474 279.864 182.313C280.043 182.771 280.227 183.233 280.411 183.695C280.591 184.153 280.77 184.61 280.954 185.068C281.133 185.53 281.317 185.997 281.501 186.459C283.001 190.237 284.51 194.024 286.038 197.825C287.943 202.57 289.853 207.291 291.768 211.979C291.957 212.441 292.146 212.904 292.33 213.361C292.518 213.819 292.702 214.276 292.891 214.729C293.079 215.191 293.268 215.653 293.457 216.115C294.226 217.983 294.99 219.851 295.758 221.709Z" fill="#32496F"/>
<path d="M269.955 62.5414C269.394 64.2771 268.62 66.9465 268.003 70.3093C267.814 71.3516 267.639 72.4552 267.489 73.6154C267.456 73.8795 267.423 74.1342 267.394 74.3889C267.385 74.4832 267.375 74.5728 267.366 74.6577V74.6625C267.333 74.9407 267.309 75.219 267.281 75.4878C267.14 76.9688 267.069 78.3223 267.041 79.6241C267.003 81.5059 267.045 83.2745 267.092 85.1705C267.158 87.9248 267.224 90.9339 267.017 94.8956C266.866 97.7348 266.522 102.135 265.588 107.559C257.952 109.922 252.052 110.181 248.468 110.073C246.109 110.002 244.374 109.752 243.813 109.672C238.846 108.927 234.917 107.337 232.3 106.04C231.126 99.8053 230.154 92.2875 229.923 83.7461C229.909 83.2321 229.899 82.7227 229.895 82.218C229.88 81.7228 229.876 81.2276 229.876 80.7371C229.866 79.1383 229.885 77.5772 229.928 76.0538C229.937 75.7142 229.946 75.3746 229.956 75.0351C229.965 74.804 229.97 74.5823 229.984 74.3606V74.3559C230.036 72.9174 230.121 71.5119 230.215 70.1536C230.437 66.9324 230.758 63.9281 231.126 61.1737C231.885 60.7351 232.748 60.287 233.729 59.8626C234.29 59.6833 234.936 59.4853 235.667 59.2872C235.762 59.2636 235.87 59.2306 235.969 59.207C235.998 59.2023 236.021 59.1928 236.049 59.1834C236.601 59.0372 237.2 58.8957 237.837 58.7589C239.139 58.4712 240.62 58.2071 242.266 57.9996C246.977 57.4053 253.009 57.3063 260.065 58.6127C260.768 58.7401 261.48 58.8816 262.202 59.0419C262.211 59.0419 262.216 59.0466 262.225 59.0466C262.362 59.0796 262.503 59.1079 262.64 59.1457C263.598 59.3579 264.569 59.6032 265.56 59.8673C265.819 59.938 266.083 60.0135 266.347 60.0937C267.55 60.9096 268.753 61.7255 269.955 62.5414Z" fill="#EEE7D0"/>
<path d="M252.396 50.712V61.6492C252.396 63.2575 251.495 64.7667 250.029 65.4317C249.095 65.8515 248.067 66.0166 247.043 65.8704C246.628 65.8138 246.251 65.7053 245.902 65.5732C244.308 64.9554 243.284 63.3896 243.284 61.6775V50.712C243.284 48.3916 245.166 46.5098 247.487 46.5098H248.189C250.514 46.5098 252.396 48.3916 252.396 50.712Z" fill="#FCA67D"/>
<path d="M251.745 53.0137C251.745 53.0137 251.745 55.6124 249.142 57.5697C247.421 58.8667 244.827 59.2958 243.289 59.4468V54.2258L251.745 53.0137Z" fill="#CD7D6C"/>
<path d="M253.368 49.7645C254.266 49.7645 254.995 48.8903 254.995 47.8119C254.995 46.7336 254.266 45.8594 253.368 45.8594C252.469 45.8594 251.741 46.7336 251.741 47.8119C251.741 48.8903 252.469 49.7645 253.368 49.7645Z" fill="#FCA67D"/>
<path d="M252.396 42.6049C252.396 42.6049 252.396 43.4915 252.377 44.7555C252.335 47.5334 252.193 52.1177 251.745 53.0138C251.095 54.3156 249.142 56.919 245.888 56.2681C242.638 55.6173 241.987 54.3156 241.336 52.363C241.148 51.8017 241.072 50.7594 241.053 49.5615C241.006 46.576 241.336 42.6049 241.336 42.6049C241.709 42.5483 242.303 42.4021 242.935 42.0153C243.709 41.539 244.147 40.9353 244.36 40.5957C244.746 40.9023 245.374 41.3173 246.237 41.5437C248.053 42.02 249.571 41.2984 250.01 41.0721C250.807 41.5814 251.599 42.0955 252.396 42.6049Z" fill="#FCA67D"/>
<path d="M252.377 44.7559C252.472 45.8784 252.542 47.5432 252.368 49.5618C252.226 51.2078 252.151 52.0332 251.745 53.0142C251.51 53.5896 250.378 56.1034 247.652 57.108C246.987 57.3532 245.081 58.056 243.407 57.108C242.35 56.5137 241.888 55.5421 241.52 54.7498C240.313 52.1417 240.719 49.5052 241.049 48.1469C241.101 48.411 241.219 48.7836 241.52 49.0902C242.11 49.6892 242.987 49.5995 244.822 49.5618C245.473 49.5477 246.444 49.5382 247.652 49.5618C248.029 49.5147 250.321 49.1751 251.604 47.1565C252.198 46.2274 252.34 45.303 252.377 44.7559Z" fill="#32496F"/>
<path d="M242.85 46.8367C243.15 46.8367 243.393 46.5939 243.393 46.2943C243.393 45.9948 243.15 45.752 242.85 45.752C242.551 45.752 242.308 45.9948 242.308 46.2943C242.308 46.5939 242.551 46.8367 242.85 46.8367Z" fill="#322223"/>
<path d="M248.463 46.2943C248.463 46.5915 248.222 46.8367 247.92 46.8367C247.619 46.8367 247.378 46.5962 247.378 46.2943C247.378 45.9972 247.619 45.752 247.92 45.752C248.222 45.752 248.463 45.9925 248.463 46.2943Z" fill="#322223"/>
<path d="M245.043 49.5384H246.656C246.789 49.5384 246.892 49.43 246.892 49.3026C246.892 49.1706 246.784 49.0668 246.656 49.0668H245.043C244.996 49.0668 244.982 49.0527 244.968 49.0338C244.732 48.6801 245.218 46.9916 245.798 45.6333C245.85 45.5107 245.793 45.3739 245.671 45.322C245.553 45.2702 245.411 45.3268 245.359 45.4447C245.143 45.954 244.072 48.5433 244.567 49.2932C244.676 49.4488 244.845 49.5384 245.043 49.5384Z" fill="#322223"/>
<path d="M253.349 48.6667C253.382 48.6667 253.415 48.6526 253.439 48.629C253.948 48.1196 254.132 47.714 254 47.3933C253.797 46.9028 252.939 46.8887 252.84 46.8887C252.769 46.8887 252.712 46.9453 252.712 47.016C252.712 47.0868 252.769 47.1434 252.84 47.1434C253.057 47.1434 253.646 47.2047 253.764 47.4877C253.849 47.6952 253.674 48.03 253.255 48.4451C253.207 48.4922 253.207 48.5724 253.255 48.6243C253.283 48.6526 253.316 48.6667 253.349 48.6667Z" fill="#322223"/>
<path d="M244.666 50.1756C244.666 50.1756 247.52 50.1756 248.944 49.6992C248.944 49.6992 248.944 51.1236 247.991 51.5999C247.043 52.081 245.143 51.6046 244.666 50.1756Z" fill="white"/>
<path d="M236.106 60.2299C236.04 60.4893 235.969 60.744 235.903 61.0034C235.748 61.6023 235.592 62.1966 235.436 62.7956C233.998 68.2571 232.569 73.7234 231.13 79.1849C230.588 78.4869 230.003 77.7323 229.376 76.921C229.333 76.8597 229.286 76.8079 229.239 76.7465C228.602 75.9117 227.923 75.0156 227.211 74.0676C224.806 70.8652 222.004 67.012 218.972 62.6022C215.906 58.1405 212.619 53.0375 211.265 50.7076C208.506 45.9535 204.337 36.3935 204.733 19.3816C206.935 18.594 209.133 17.8111 211.336 17.0234C214.802 26.2911 218.269 35.5634 221.735 44.831C226.527 49.9624 231.314 55.0938 236.106 60.2299Z" fill="#FDA57F"/>
<path d="M269.672 74.5436C268.889 75.2699 268.125 75.949 267.394 76.5857C267.385 76.6706 267.375 76.7555 267.366 76.8357L267.314 76.6565L265.352 69.9121L268.007 72.7561L269.672 74.5436Z" fill="#32496F"/>
<path d="M294.249 17.2455C294.249 17.2455 298.423 7.62413 297.456 7.09118C296.489 6.55352 296.338 7.40718 296.221 7.77505C296.103 8.14764 294.74 11.35 294.74 11.35C294.688 11.2368 294.636 11.1237 294.584 11.0105C295.763 7.57696 296.565 4.97355 296.73 4.1246C296.796 3.78031 296.829 3.36999 296.593 3.09172C296.456 2.93137 296.225 2.81818 296.037 2.82761C295.513 2.86062 295.23 3.84634 294.782 5.13861C293.933 7.5864 292.976 9.76063 292.971 9.77478C292.886 9.72762 292.806 9.68518 292.721 9.63801C293.513 7.47321 294.07 5.68099 294.442 4.36513C294.768 3.2285 295.15 1.78058 294.579 1.35611C294.565 1.34667 294.353 1.19103 294.093 1.23348C293.579 1.31838 293.315 2.12487 293.193 2.52105C291.419 8.20424 291.259 9.00602 291.259 9.00602C291.132 8.94471 291.004 8.88811 290.877 8.8268C292.697 2.09186 292.466 1.06841 292.207 0.926918C291.881 0.747697 291.627 0.832593 291.627 0.832593C291.551 0.856174 291.344 0.945784 291.179 1.33252C290.934 1.89849 290.132 4.6151 289.113 8.33158C288.835 9.0579 288.556 9.78421 288.278 10.5105C288.278 10.5105 287.033 7.1808 286.326 6.75161C286.146 6.64313 285.967 6.67614 285.967 6.67614C285.967 6.67614 285.651 6.70444 285.373 7.09118C284.854 7.80335 285.5 10.9586 285.779 12.8027C285.981 14.1516 286.212 16.8682 286.212 16.8682C286.231 18.5472 286.25 20.2215 286.269 21.9005C287.882 22.2967 289.495 22.6929 291.108 23.089C292.164 21.1365 293.207 19.1886 294.249 17.2455Z" fill="#FDA57F"/>
<path d="M292.787 15.5513L293.009 15.523C292.919 14.8109 292.617 14.1034 292.108 13.4196C291.702 12.8725 291.169 12.3395 290.518 11.8349C289.415 10.9765 288.344 10.4813 288.335 10.4766L288.24 10.6794C288.25 10.6841 289.302 11.1699 290.382 12.0141C291.377 12.7829 292.594 14.0233 292.787 15.5513Z" fill="#32496F"/>
<path d="M261.555 60.2299C261.621 60.4893 261.692 60.744 261.758 61.0034C261.914 61.6023 262.069 62.1966 262.225 62.7956C263.664 68.2571 265.093 73.7234 266.531 79.1849C267.073 78.4869 267.658 77.7323 268.286 76.921C268.328 76.8597 268.375 76.8079 268.422 76.7465C269.059 75.9117 269.738 75.0156 270.45 74.0676C275.176 67.776 277.431 64.5453 278.69 62.6022C278.69 62.6022 282.015 57.4661 284.911 50.9811C290.202 39.1337 291.575 26.758 291.985 19.8532C290.099 18.91 288.212 17.9667 286.326 17.0234C282.859 26.2911 279.393 35.5634 275.926 44.831C271.134 49.9624 266.347 55.0938 261.555 60.2299Z" fill="#FDA57F"/>
<path d="M275.478 70.7863L268.488 78.1108L267.041 79.6248L266.177 80.5303L265.574 81.1623C265.574 81.1623 258.499 68.4282 258.971 59.4671L260.065 58.6134L271.191 49.9023C271.191 49.9023 274.063 67.9565 275.478 70.7863Z" fill="#EEE7D0"/>
<path d="M237.837 58.7586C237.927 62.2911 232.088 83.0477 232.088 83.0477L230.229 81.1046L229.876 80.7367L228.008 78.7842L221.712 72.2001C219.354 67.9554 226.338 49.7598 226.338 49.7598L237.837 58.7586Z" fill="#EEE7D0"/>
<path d="M290.867 222.472C290.684 222.066 272.441 181.85 269.182 175.332C265.861 168.692 259.325 111.973 259.046 109.563L260.452 109.402C260.518 109.992 267.239 168.286 270.446 174.7C273.714 181.242 291.966 221.482 292.15 221.887L290.867 222.472Z" fill="#32496F"/>
<path d="M285.769 226.133C284.831 224.242 262.786 179.734 260.909 175.046C259.009 170.292 253.547 112.686 253.316 110.234L254.726 110.102C256.679 130.783 260.763 170.862 262.225 174.517C264.079 179.154 286.807 225.039 287.038 225.506L285.769 226.133Z" fill="#FFD394"/>
<path d="M237.771 112.454C237.743 112.581 236.997 116.481 235.979 122.41C235.899 122.858 235.823 123.315 235.743 123.787H235.738C235.649 124.339 235.554 124.905 235.455 125.485C235.38 125.947 235.3 126.414 235.219 126.895C233.913 134.842 232.375 145.015 231.347 154.613C231.3 155.07 231.253 155.528 231.206 155.981C231.14 156.636 231.074 157.282 231.012 157.929C230.965 158.41 230.923 158.886 230.88 159.358C230.38 164.904 230.102 170.078 230.201 174.294C230.262 176.898 230.371 179.911 230.512 183.194C230.531 183.647 230.555 184.109 230.574 184.571C230.607 185.298 230.64 186.033 230.678 186.778C230.701 187.26 230.725 187.745 230.744 188.231C231.121 195.787 231.616 204.219 232.111 212.02C232.14 212.487 232.173 212.949 232.201 213.407C232.258 214.246 232.309 215.077 232.357 215.892C232.39 216.378 232.423 216.859 232.456 217.34C232.739 221.698 233.012 225.726 233.243 229.108C232.748 229.046 232.267 228.971 231.809 228.881C231.578 225.495 231.305 221.495 231.027 217.166C230.994 216.69 230.961 216.204 230.927 215.718C230.876 214.874 230.819 214.015 230.767 213.152C230.734 212.69 230.706 212.228 230.678 211.761C230.187 203.993 229.692 195.626 229.324 188.137C229.3 187.646 229.277 187.165 229.258 186.689C229.22 185.925 229.182 185.175 229.154 184.439C229.131 183.972 229.112 183.51 229.093 183.057C228.951 179.841 228.848 176.884 228.786 174.323C228.687 170.078 228.966 164.871 229.465 159.301C229.508 158.829 229.55 158.358 229.597 157.877C229.659 157.216 229.725 156.551 229.796 155.882C229.843 155.429 229.89 154.976 229.937 154.523C230.965 144.911 232.498 134.734 233.809 126.763C233.889 126.287 233.97 125.815 234.045 125.357C234.144 124.754 234.243 124.169 234.342 123.598C234.422 123.127 234.498 122.669 234.573 122.221C235.601 116.246 236.356 112.317 236.38 112.189L237.771 112.454Z" fill="#FFD394"/>
<path d="M244.086 112.171C244.058 112.303 243.171 116.501 241.983 122.92C241.898 123.377 241.808 123.849 241.723 124.33C241.634 124.806 241.544 125.297 241.454 125.797C241.374 126.264 241.289 126.74 241.2 127.226C239.813 135.064 238.214 145.04 237.12 154.85C237.068 155.312 237.016 155.779 236.969 156.241H236.964C236.903 156.83 236.842 157.42 236.785 158.005C236.733 158.486 236.686 158.967 236.644 159.443C235.983 166.353 235.639 172.993 235.861 178.526C235.927 180.143 235.988 181.822 236.054 183.558C236.073 184.015 236.087 184.482 236.106 184.949C236.13 185.628 236.158 186.317 236.182 187.01C236.196 187.491 236.215 187.972 236.233 188.458C236.512 196.349 236.776 204.89 237.007 212.681C237.021 213.144 237.035 213.601 237.049 214.059C237.073 214.827 237.096 215.587 237.12 216.337C237.129 216.822 237.144 217.303 237.158 217.775C237.28 222.039 237.389 225.948 237.479 229.236C237.021 229.264 236.549 229.283 236.064 229.283C235.974 225.958 235.866 221.987 235.738 217.662C235.724 217.185 235.71 216.704 235.7 216.223H235.696C235.677 215.455 235.653 214.681 235.63 213.893C235.616 213.441 235.601 212.983 235.587 212.521C235.356 204.758 235.092 196.259 234.814 188.416C234.795 187.93 234.781 187.444 234.762 186.968C234.738 186.26 234.71 185.562 234.686 184.874C234.668 184.407 234.653 183.945 234.635 183.482C234.573 181.794 234.507 180.157 234.446 178.582C234.224 173.022 234.568 166.367 235.224 159.439C235.271 158.962 235.314 158.481 235.366 158C235.422 157.401 235.488 156.797 235.55 156.194H235.554C235.601 155.731 235.649 155.274 235.7 154.812C236.795 145.007 238.384 135.036 239.771 127.174C239.856 126.693 239.94 126.217 240.025 125.75C240.12 125.236 240.209 124.731 240.299 124.236C240.388 123.759 240.473 123.292 240.558 122.835C241.766 116.293 242.676 112.011 242.704 111.879L244.086 112.171Z" fill="#FFD394"/>
<path d="M268.295 124.071C266.404 124.18 264.376 124.279 262.268 124.369C261.796 124.383 261.32 124.402 260.843 124.42C259.301 124.472 257.721 124.519 256.127 124.548C255.66 124.557 255.188 124.567 254.717 124.571C253.627 124.586 252.538 124.595 251.448 124.595C250.382 124.595 249.317 124.586 248.26 124.567C247.788 124.562 247.317 124.552 246.845 124.543C245.1 124.501 243.383 124.435 241.723 124.331C241.242 124.303 240.766 124.274 240.299 124.236C238.705 124.123 237.181 123.977 235.743 123.788H235.738C235.262 123.732 234.8 123.671 234.342 123.6C232.72 123.355 231.229 123.057 229.913 122.699C229.994 122.237 230.074 121.779 230.149 121.336C231.432 121.69 232.922 121.982 234.573 122.223C235.031 122.289 235.498 122.355 235.979 122.411C237.412 122.586 238.95 122.727 240.558 122.836C241.025 122.869 241.502 122.897 241.983 122.921C243.572 123.01 245.223 123.076 246.911 123.114C247.378 123.123 247.85 123.133 248.326 123.138C250.373 123.166 252.467 123.166 254.571 123.142C255.042 123.133 255.514 123.128 255.985 123.119C257.551 123.09 259.117 123.048 260.664 122.996C261.14 122.982 261.617 122.963 262.088 122.944C264.135 122.869 266.14 122.774 268.064 122.671L268.295 124.071Z" fill="#FFD394"/>
<path d="M268.653 126.241C266.71 126.402 264.663 126.557 262.555 126.694C262.088 126.722 261.617 126.755 261.14 126.784C259.575 126.878 257.98 126.963 256.377 127.034C255.905 127.057 255.438 127.076 254.967 127.1C252.698 127.189 250.406 127.255 248.147 127.279C247.675 127.283 247.204 127.288 246.732 127.288C246.463 127.293 246.19 127.293 245.921 127.293C244.317 127.293 242.737 127.274 241.2 127.227C240.719 127.213 240.242 127.194 239.771 127.175C238.2 127.114 236.677 127.019 235.219 126.897C234.743 126.854 234.271 126.812 233.809 126.765C232.215 126.6 230.71 126.397 229.324 126.137C229.404 125.666 229.484 125.204 229.564 124.746C230.946 124.996 232.446 125.199 234.045 125.359C234.507 125.406 234.979 125.449 235.455 125.487C236.917 125.609 238.445 125.694 240.025 125.751C240.497 125.77 240.973 125.788 241.454 125.798C243.185 125.85 244.973 125.864 246.789 125.85C247.26 125.85 247.732 125.845 248.208 125.836C250.397 125.812 252.618 125.746 254.825 125.656C255.292 125.637 255.764 125.619 256.231 125.595C257.825 125.524 259.405 125.439 260.956 125.345C261.433 125.317 261.909 125.288 262.376 125.255C264.461 125.123 266.489 124.972 268.418 124.817L268.653 126.241Z" fill="#FFD394"/>
<path d="M244.166 154.906C244.119 155.373 244.077 155.844 244.034 156.316C243.69 156.321 243.35 156.321 243.011 156.321C240.978 156.321 238.955 156.297 236.969 156.241H236.964C236.493 156.226 236.021 156.212 235.554 156.193H235.549C234.073 156.146 232.621 156.076 231.206 155.981C230.729 155.953 230.258 155.92 229.796 155.882C228.116 155.76 226.499 155.599 224.971 155.406C225.018 154.963 225.07 154.514 225.126 154.066C226.645 154.25 228.258 154.401 229.937 154.524C230.404 154.557 230.871 154.585 231.347 154.614C232.762 154.698 234.219 154.764 235.7 154.812C236.172 154.826 236.644 154.84 237.12 154.849C239.431 154.906 241.794 154.92 244.166 154.906Z" fill="#FFD394"/>
<path d="M273.408 154.962C271.601 155.108 269.248 155.292 266.512 155.471C266.055 155.5 265.583 155.533 265.097 155.561C263.343 155.67 261.452 155.778 259.471 155.877C259.004 155.901 258.532 155.924 258.061 155.943C256.448 156.019 254.787 156.089 253.09 156.141C252.976 155.674 252.858 155.203 252.741 154.726C254.5 154.67 256.226 154.599 257.895 154.519C258.372 154.5 258.839 154.476 259.306 154.457C261.268 154.358 263.14 154.25 264.88 154.141C265.361 154.113 265.838 154.085 266.295 154.052C269.017 153.877 271.365 153.703 273.172 153.557L273.408 154.962Z" fill="#FFD394"/>
<path d="M243.893 157.888C243.888 157.94 243.883 157.987 243.879 158.039C243.864 158.166 243.827 158.624 243.77 159.336C241.384 159.407 239.002 159.445 236.658 159.445H236.644C236.167 159.445 235.696 159.445 235.224 159.44C233.753 159.43 232.305 159.402 230.88 159.36C230.404 159.341 229.932 159.327 229.465 159.303C227.786 159.237 226.155 159.138 224.589 159.011C224.636 158.544 224.683 158.067 224.73 157.596C226.291 157.718 227.918 157.813 229.597 157.879C230.064 157.898 230.536 157.916 231.012 157.931C232.437 157.973 233.889 157.997 235.366 158.001C235.837 158.001 236.309 158.006 236.785 158.006C239.124 158.001 241.506 157.959 243.893 157.888Z" fill="#FFD394"/>
<path d="M273.78 157.223C271.752 157.435 269.427 157.666 266.894 157.892C266.432 157.935 265.961 157.977 265.484 158.015C263.668 158.175 261.758 158.331 259.782 158.482C259.32 158.515 258.848 158.548 258.377 158.581C256.877 158.689 255.339 158.789 253.778 158.883C253.66 158.411 253.538 157.935 253.42 157.458C255.042 157.359 256.641 157.256 258.202 157.147C258.674 157.114 259.141 157.081 259.608 157.043C261.565 156.902 263.461 156.746 265.258 156.595C265.734 156.553 266.206 156.511 266.668 156.473C269.201 156.246 271.516 156.02 273.544 155.812L273.78 157.223Z" fill="#FFD394"/>
<path d="M242.85 185.166C240.558 185.128 238.299 185.062 236.106 184.949C235.63 184.93 235.153 184.902 234.686 184.874C233.281 184.793 231.904 184.694 230.574 184.572C230.093 184.534 229.621 184.487 229.154 184.44C227.301 184.251 225.537 184.02 223.9 183.742C223.886 183.275 223.877 182.817 223.862 182.369C225.48 182.647 227.235 182.874 229.093 183.058C229.56 183.11 230.031 183.152 230.512 183.195C231.842 183.308 233.22 183.407 234.634 183.482C235.101 183.511 235.578 183.534 236.054 183.558C238.252 183.661 240.525 183.723 242.832 183.751C242.836 184.223 242.841 184.694 242.85 185.166Z" fill="#FFD394"/>
<path d="M280.411 183.694C278.888 183.822 277.02 183.963 274.888 184.114C274.403 184.147 273.898 184.185 273.379 184.218C271.413 184.35 269.252 184.482 266.96 184.609C266.456 184.633 265.942 184.661 265.423 184.685C264.074 184.756 262.687 184.817 261.268 184.873C261.117 184.407 260.966 183.935 260.81 183.454C262.154 183.402 263.466 183.345 264.748 183.279C265.267 183.256 265.777 183.227 266.281 183.204C268.578 183.081 270.748 182.954 272.733 182.827C273.252 182.789 273.757 182.756 274.247 182.728C276.402 182.577 278.298 182.435 279.864 182.312C280.043 182.77 280.227 183.232 280.411 183.694Z" fill="#FFD394"/>
<path d="M242.921 188.542H242.435C240.341 188.542 238.266 188.519 236.233 188.458C235.757 188.448 235.285 188.434 234.814 188.415C233.432 188.368 232.073 188.307 230.743 188.231C230.267 188.198 229.791 188.17 229.324 188.137C227.484 188.009 225.706 187.844 224.013 187.646C223.999 187.156 223.985 186.675 223.971 186.203C225.655 186.406 227.423 186.566 229.258 186.689C229.725 186.722 230.201 186.755 230.677 186.779C232.007 186.859 233.37 186.925 234.762 186.967C235.229 186.986 235.705 187 236.181 187.01C238.37 187.071 240.615 187.095 242.883 187.085C242.893 187.571 242.907 188.057 242.921 188.542Z" fill="#FFD394"/>
<path d="M281.501 186.458C279.897 186.609 278.114 186.769 276.19 186.934C275.7 186.977 275.204 187.019 274.695 187.061C272.709 187.217 270.592 187.382 268.38 187.538C267.875 187.571 267.371 187.609 266.856 187.642C265.366 187.741 263.833 187.835 262.272 187.925C262.117 187.458 261.956 186.981 261.796 186.491C263.281 186.411 264.744 186.321 266.173 186.227C266.687 186.198 267.196 186.161 267.701 186.128C269.922 185.977 272.049 185.821 274.049 185.661C274.563 185.618 275.063 185.58 275.553 185.538C277.506 185.378 279.322 185.217 280.954 185.066C281.133 185.529 281.317 185.996 281.501 186.458Z" fill="#FFD394"/>
<path d="M244.713 214.638C242.039 214.501 239.459 214.313 237.049 214.058C236.568 214.006 236.097 213.949 235.63 213.893C234.441 213.751 233.295 213.591 232.201 213.407C231.71 213.327 231.234 213.242 230.767 213.152C228.701 212.761 226.857 212.289 225.306 211.723C225.268 211.223 225.225 210.723 225.183 210.219C226.678 210.832 228.541 211.341 230.678 211.761C231.14 211.851 231.621 211.94 232.111 212.02C233.21 212.209 234.37 212.374 235.587 212.52C236.054 212.572 236.526 212.629 237.007 212.681C239.374 212.926 241.917 213.11 244.567 213.237C244.619 213.709 244.666 214.176 244.713 214.638Z" fill="#FFD394"/>
<path d="M292.33 213.36C291.221 213.45 289.905 213.549 288.42 213.653C287.934 213.691 287.429 213.724 286.911 213.761C285.241 213.874 283.392 213.992 281.407 214.11C280.902 214.139 280.393 214.167 279.869 214.2C277.657 214.323 275.299 214.44 272.846 214.539C272.629 214.077 272.412 213.606 272.191 213.129C274.624 213.03 276.973 212.917 279.18 212.799C279.699 212.771 280.213 212.743 280.718 212.714C282.718 212.601 284.581 212.483 286.279 212.375C286.797 212.337 287.302 212.304 287.792 212.271C289.292 212.167 290.632 212.068 291.768 211.979C291.957 212.441 292.146 212.903 292.33 213.36Z" fill="#FFD394"/>
<path d="M245.109 218.161C242.365 218.09 239.7 217.963 237.158 217.774C236.681 217.741 236.205 217.704 235.738 217.661C234.616 217.572 233.521 217.463 232.456 217.34C231.97 217.289 231.493 217.227 231.027 217.166C229.131 216.925 227.348 216.633 225.706 216.289C225.664 215.803 225.617 215.308 225.57 214.812C227.211 215.171 229.008 215.468 230.927 215.718C231.399 215.779 231.875 215.841 232.356 215.893C233.437 216.02 234.55 216.128 235.696 216.223H235.7C236.167 216.265 236.639 216.298 237.12 216.336C239.615 216.515 242.242 216.642 244.944 216.713C245.001 217.204 245.058 217.685 245.109 218.161Z" fill="#FFD394"/>
<path d="M293.457 216.115C292.292 216.224 291.033 216.332 289.688 216.45C289.198 216.488 288.698 216.53 288.189 216.573C286.505 216.709 284.713 216.851 282.826 216.992C282.326 217.03 281.817 217.063 281.303 217.101C279.062 217.256 276.709 217.412 274.275 217.549C274.049 217.082 273.823 216.61 273.596 216.134C276.02 215.997 278.369 215.851 280.609 215.695C281.123 215.658 281.633 215.625 282.133 215.587C284.038 215.455 285.854 215.318 287.557 215.181C288.066 215.139 288.566 215.096 289.056 215.054C290.424 214.941 291.707 214.832 292.891 214.729C293.079 215.191 293.268 215.653 293.457 216.115Z" fill="#FFD394"/>
<path d="M266.116 110.908C266.05 110.931 265.989 110.955 265.923 110.978C265.588 111.106 265.258 111.224 264.928 111.342C261.508 112.544 258.249 113.285 255.207 113.695C254.839 113.742 254.481 113.785 254.122 113.822C252.429 114.006 250.812 114.087 249.269 114.087C240.964 114.087 234.809 111.733 231.927 110.361C232.045 109.351 232.168 108.351 232.3 107.352C234.644 108.554 242.888 112.219 254.302 110.884C254.651 110.846 254.995 110.804 255.349 110.747C258.211 110.346 261.263 109.625 264.461 108.469C264.763 108.366 265.06 108.252 265.361 108.13C265.456 108.101 265.55 108.064 265.644 108.026L266.116 110.908Z" fill="#32496F"/>
<path d="M232.305 112.062L233.248 111.925C232.819 108.907 234.017 107.624 234.069 107.572L233.394 106.902C233.328 106.968 231.805 108.539 232.305 112.062Z" fill="#FFC77F"/>
<path d="M243.855 115.186L244.529 114.511C243.548 113.53 244.27 111.125 244.628 110.281L243.756 109.908C243.69 110.054 242.218 113.549 243.855 115.186Z" fill="#FFC77F"/>
<path d="M255.382 113.638C255.372 113.742 255.358 113.851 255.349 113.959L254.122 113.808V113.789C254.344 111.823 254.354 110.785 254.325 110.257C254.731 110.21 255.132 110.158 255.542 110.092C255.599 110.795 255.566 111.889 255.382 113.638Z" fill="#FFC77F"/>
<path d="M265.923 110.978C265.894 111.502 265.791 112.068 265.555 112.648L264.668 112.294C264.796 111.969 264.88 111.648 264.923 111.337C265.112 110.054 264.687 108.946 264.451 108.465C264.753 108.361 265.05 108.248 265.352 108.125C265.611 108.682 265.993 109.729 265.923 110.978Z" fill="#FFC77F"/>
<path d="M267.092 85.1707L266.177 80.5298L263.598 67.4844L267.281 75.488L268.488 78.1103L267.041 79.6242C267.003 81.5061 267.045 83.2747 267.092 85.1707Z" fill="#32496F"/>
<path d="M233.135 71.4922L230.229 81.1041L229.895 82.2172C229.88 81.7219 229.876 81.2267 229.876 80.7362L228.008 78.7837L229.928 76.0529L233.135 71.4922Z" fill="#32496F"/>
<path d="M247.562 66.1211C247.34 66.1211 247.119 66.1022 246.902 66.0645C244.407 65.64 242.52 62.8857 242.695 59.9238L243.166 59.9521C242.987 63.0083 245.006 65.2627 246.977 65.6023C248.152 65.8004 249.491 65.3759 250.566 64.4609C251.868 63.3526 252.608 61.7066 252.599 59.9427L253.071 59.938C253.085 61.8434 252.283 63.6214 250.873 64.8194C249.892 65.6589 248.694 66.1211 247.562 66.1211Z" fill="#32496F"/>
<path d="M275.247 71.3091C271.979 56.8394 271.474 50.1186 271.469 50.0525L271.941 50.0195C271.946 50.0856 272.45 56.7781 275.709 71.2101L275.247 71.3091Z" fill="#32496F"/>
<path d="M221.462 69.9311L220.99 69.8839C221.679 62.7009 225.923 49.8489 225.966 49.7168L226.414 49.8677C226.371 49.9998 222.141 62.7999 221.462 69.9311Z" fill="#32496F"/>
<path d="M250.114 44.3361C248.779 43.4448 246.963 43.4306 246.944 43.4306V42.959C247.024 42.959 248.92 42.9684 250.378 43.94L250.114 44.3361Z" fill="#32496F"/>
<path d="M241.888 44.3353L241.629 43.9439C243.086 42.9723 244.982 42.9629 245.062 42.9629V43.4345C245.039 43.4298 243.223 43.444 241.888 44.3353Z" fill="#32496F"/>
</svg>
