<svg width="80" height="80" viewBox="0 0 80 80" fill="none" xmlns="http://www.w3.org/2000/svg">
<g clip-path="url(#clip0_824_29911)">
<path d="M40 24.0503C32.6788 24.0503 26.7224 30.0065 26.7224 37.3279C26.7224 44.6494 32.6788 50.6056 40 50.6056C47.3213 50.6056 53.2777 44.6494 53.2777 37.3279C53.2777 30.0065 47.3213 24.0503 40 24.0503ZM40 48.1003C34.0602 48.1003 29.2275 43.2678 29.2275 37.3278C29.2275 31.3878 34.06 26.5553 40 26.5553C45.94 26.5553 50.7725 31.3878 50.7725 37.3278C50.7725 43.2678 45.9399 48.1003 40 48.1003Z" fill="#32496F"/>
<path d="M79.5045 29.6491L74.6556 25.9708V15.9499C74.6556 15.258 74.0948 14.6972 73.403 14.6972H59.7952L42.3722 1.47971C40.9756 0.420176 39.0247 0.420176 37.6281 1.47971L20.205 14.6974H6.59719C5.90547 14.6974 5.34453 15.258 5.34453 15.95V25.971L0.495469 29.6491C0.186875 29.8838 0 30.2594 0 30.6472V78.7474C0 79.4394 0.560781 80 1.25266 80H54.6973C55.3891 80 55.95 79.4394 55.95 78.7474C55.95 78.0555 55.3892 77.4947 54.6973 77.4947H2.50516V32.8989L74.3541 77.4949H61.3778C60.6861 77.4949 60.1252 78.0555 60.1252 78.7475C60.1252 79.4394 60.6859 80.0002 61.3778 80.0002H78.7438C79.2303 80.0002 79.6805 79.7113 79.8845 79.2708C79.9595 79.1081 80.0002 78.9271 80.0002 78.7475V30.6472C80 30.2594 79.813 29.8838 79.5045 29.6491ZM5.34453 31.7127L3.46141 30.5438L5.34453 29.1153V31.7127ZM74.6555 29.1153L76.5386 30.5438L74.6555 31.7127V29.1153ZM10.6889 27.975V35.03L7.84969 33.2677V17.2025H33.3194C34.0111 17.2025 34.572 16.6419 34.572 15.9499C34.572 15.2578 34.0112 14.6972 33.3194 14.6972H24.35L39.142 3.4758C39.6472 3.09252 40.3527 3.09252 40.858 3.4758L55.65 14.6972H40C39.3083 14.6972 38.7473 15.2578 38.7473 15.9499C38.7473 16.6419 39.3081 17.2025 40 17.2025H72.1503V33.2677L69.3111 35.03V27.975C69.3111 27.2831 68.7503 26.7224 68.0584 26.7224C65.0655 26.7224 62.6305 24.2875 62.6305 21.2944C62.6305 20.6025 62.0697 20.0417 61.3778 20.0417H18.6222C17.9305 20.0417 17.3695 20.6024 17.3695 21.2944C17.3695 24.2875 14.9345 26.7224 11.9416 26.7224C11.2498 26.7224 10.6889 27.283 10.6889 27.975ZM13.1942 36.585V29.1286C16.5673 28.5913 19.2386 25.92 19.7761 22.5469H60.2242C60.7616 25.92 63.4327 28.5913 66.8061 29.1286V36.585L40.0002 53.2231L13.1942 36.585ZM77.4948 76.4958L42.3752 54.6974L77.4948 32.8989V76.4958Z" fill="#32496F"/>
<path d="M58.7056 2.67219H57.2859V1.25266C57.2859 0.560781 56.7252 0 56.0333 0C55.3414 0 54.7806 0.560625 54.7806 1.25266V2.67234H53.3609C52.6692 2.67234 52.1083 3.23297 52.1083 3.925C52.1083 4.61688 52.6691 5.17766 53.3609 5.17766H54.7806V6.59734C54.7806 7.28922 55.3414 7.85 56.0333 7.85C56.7252 7.85 57.2859 7.28937 57.2859 6.59734V5.17766H58.7056C59.3973 5.17766 59.9583 4.61703 59.9583 3.925C59.9583 3.23297 59.3973 2.67219 58.7056 2.67219Z" fill="#32496F"/>
<path d="M15.9498 6.68064H14.5301V5.26096C14.5301 4.56908 13.9694 4.0083 13.2775 4.0083C12.5856 4.0083 12.0248 4.56893 12.0248 5.26096V6.68064H10.6051C9.91342 6.68064 9.35248 7.24127 9.35248 7.9333C9.35248 8.62518 9.91326 9.18596 10.6051 9.18596H12.0248V10.6056C12.0248 11.2975 12.5856 11.8583 13.2775 11.8583C13.9694 11.8583 14.5301 11.2977 14.5301 10.6056V9.18596H15.9498C16.6415 9.18596 17.2025 8.62533 17.2025 7.9333C17.2025 7.24127 16.6417 6.68064 15.9498 6.68064Z" fill="#32496F"/>
<path d="M69.3945 6.68064H67.9748V5.26096C67.9748 4.56908 67.4141 4.0083 66.7222 4.0083C66.0305 4.0083 65.4695 4.56893 65.4695 5.26096V6.68064H64.0498C63.3581 6.68064 62.7972 7.24127 62.7972 7.9333C62.7972 8.62518 63.358 9.18596 64.0498 9.18596H65.4695V10.6056C65.4695 11.2975 66.0303 11.8583 66.7222 11.8583C67.4139 11.8583 67.9748 11.2977 67.9748 10.6056V9.18596H69.3945C70.0862 9.18596 70.6472 8.62533 70.6472 7.9333C70.6472 7.24127 70.0864 6.68064 69.3945 6.68064Z" fill="#32496F"/>
<path d="M26.6389 2.67219H25.2192V1.25266C25.2192 0.560781 24.6584 0 23.9666 0C23.2747 0 22.7139 0.560625 22.7139 1.25266V2.67234H21.2942C20.6025 2.67234 20.0416 3.23297 20.0416 3.925C20.0416 4.61688 20.6023 5.17766 21.2942 5.17766H22.7139V6.59734C22.7139 7.28922 23.2747 7.85 23.9666 7.85C24.6584 7.85 25.2192 7.28937 25.2192 6.59734V5.17766H26.6389C27.3306 5.17766 27.8916 4.61703 27.8916 3.925C27.8914 3.23297 27.3306 2.67219 26.6389 2.67219Z" fill="#32496F"/>
<path d="M47.9186 38.1607H45.5998V35.9321H47.9186C48.2671 35.9321 48.5495 35.65 48.5495 35.3015C48.5495 34.9529 48.2671 34.6706 47.9186 34.6706H45.5998V31.5784C45.5998 31.127 45.5106 30.7957 45.3348 30.5938C45.1677 30.4018 44.9479 30.3125 44.6437 30.3125C44.3533 30.3125 44.1419 30.4012 43.978 30.592C43.8042 30.794 43.716 31.126 43.716 31.5786V34.671H39.3542L37.4995 31.8646C37.3408 31.6141 37.1916 31.3795 37.0466 31.1543C36.9162 30.9515 36.7889 30.7863 36.6687 30.663C36.5623 30.5539 36.441 30.4694 36.2991 30.4045C36.1653 30.3434 35.9951 30.3127 35.7938 30.3127C35.5371 30.3127 35.304 30.383 35.0808 30.5276C34.86 30.6705 34.7073 30.8472 34.6141 31.0679C34.5322 31.2776 34.4889 31.5989 34.4889 32.0137V34.6708H32.1931C31.8448 34.6708 31.5625 34.9532 31.5625 35.3016C31.5625 35.6501 31.8448 35.9323 32.1932 35.9323H34.489V38.1611H32.1932C31.8448 38.1611 31.5625 38.4434 31.5625 38.792C31.5625 39.1404 31.8448 39.4224 32.1932 39.4224H34.489V42.953C34.489 43.391 34.581 43.719 34.7633 43.9274C34.9367 44.1261 35.1565 44.2183 35.455 44.2183C35.743 44.2183 35.9611 44.1257 36.142 43.9266C36.3272 43.7227 36.4209 43.3949 36.4209 42.953V39.4224H40.3679L42.5038 42.6976C42.6523 42.9141 42.8057 43.1327 42.9586 43.3469C43.0966 43.5394 43.2472 43.7089 43.406 43.8505C43.549 43.9786 43.7024 44.0725 43.8618 44.1297C44.0259 44.1888 44.2177 44.2187 44.4305 44.2187C45.0081 44.2187 45.5997 44.0419 45.5997 42.7305V39.4224H47.9186C48.267 39.4224 48.5494 39.14 48.5494 38.7916C48.5495 38.4432 48.2671 38.1607 47.9186 38.1607ZM43.716 35.9321V38.1607H41.6608L40.1882 35.9321H43.716ZM36.421 33.3714L37.2685 34.6706H36.421V33.3714ZM36.421 38.1607V35.9321H38.0914L39.5451 38.1607H36.421ZM43.716 41.2713L42.4945 39.4224H43.716V41.2713Z" fill="#32496F"/>
</g>
<defs>
<clipPath id="clip0_824_29911">
<rect width="80" height="80" fill="white"/>
</clipPath>
</defs>
</svg>
