<svg width="20" height="21" viewBox="0 0 20 21" fill="none" xmlns="http://www.w3.org/2000/svg">
<path d="M13.4097 15.4798C11.7399 16.7776 9.63851 17.3898 7.53338 17.1919C5.42824 16.9939 3.47766 16.0006 2.07881 14.4143C0.679961 12.8279 -0.0619809 10.7678 0.00405863 8.6533C0.0700982 6.53884 0.939153 4.52905 2.43427 3.03317C3.92939 1.53729 5.93814 0.66779 8.05152 0.601717C10.1649 0.535644 12.224 1.27796 13.8096 2.67753C15.3951 4.0771 16.3879 6.02868 16.5857 8.13489C16.7836 10.2411 16.1717 12.3436 14.8745 14.0142L19.6936 18.8178C20.1016 19.2244 20.1022 19.8849 19.695 20.2923C19.2878 20.6997 18.6273 20.6994 18.2204 20.2916L13.4201 15.4798H13.4097ZM8.31916 15.1472C9.13773 15.1472 9.94829 14.9859 10.7045 14.6725C11.4608 14.3591 12.148 13.8997 12.7268 13.3206C13.3056 12.7414 13.7647 12.0539 14.078 11.2973C14.3913 10.5406 14.5525 9.72967 14.5525 8.91068C14.5525 8.09169 14.3913 7.28072 14.078 6.52407C13.7647 5.76742 13.3056 5.07991 12.7268 4.50079C12.148 3.92168 11.4608 3.4623 10.7045 3.14889C9.94829 2.83547 9.13773 2.67416 8.31916 2.67416C6.66598 2.67416 5.08051 3.33122 3.91153 4.50079C2.74256 5.67037 2.08583 7.25665 2.08583 8.91068C2.08583 10.5647 2.74256 12.151 3.91153 13.3206C5.08051 14.4901 6.66598 15.1472 8.31916 15.1472Z" fill="#8B83BA"/>
</svg>
