<svg width="50" height="50" viewBox="0 0 50 50" fill="none" xmlns="http://www.w3.org/2000/svg">
<rect width="50" height="50" rx="4" fill="url(#paint0_linear_1453_17995)"/>
<g clip-path="url(#clip0_1453_17995)">
<path d="M6.69076 28.0216L9.31223 28.0379C9.70422 30.0551 10.48 32.0151 11.656 33.7954L9.79405 35.641C9.12439 36.3025 9.12439 37.3723 9.77772 38.042L11.7867 40.0755C12.4482 40.7451 13.518 40.7451 14.1877 40.0918L16.0496 38.2462C17.8136 39.4385 19.7654 40.247 21.7826 40.6553L21.7662 43.2768C21.7581 44.2159 22.5176 44.9754 23.4567 44.9836L26.315 44.9999C27.2542 45.0081 28.0137 44.2486 28.0218 43.3094L28.0382 40.688C30.0553 40.296 32.0153 39.5201 33.7956 38.3442L35.6412 40.2061C36.3027 40.8758 37.3725 40.8758 38.0422 40.2225L40.0757 38.2135C40.7453 37.552 40.7453 36.4822 40.092 35.8125L38.2464 33.9505C39.4387 32.1866 40.2472 30.2348 40.6555 28.2176L43.277 28.2339C44.2161 28.2421 44.9756 27.4826 44.9838 26.5435L45.0001 23.6852C45.0083 22.746 44.2488 21.9865 43.3096 21.9784L40.6882 21.962C40.2962 19.9449 39.5204 17.9849 38.3444 16.2046L40.2063 14.3589C40.876 13.6975 40.876 12.6276 40.2227 11.958L38.2137 9.9245C37.5522 9.25485 36.4824 9.25485 35.8127 9.90817L33.9508 11.7538C32.1868 10.5615 30.235 9.75301 28.2178 9.34468L28.2342 6.72321C28.2423 5.78406 27.4828 5.02456 26.5437 5.0164L23.6854 5.00007C22.7462 4.9919 21.9867 5.75139 21.9786 6.69054L21.9541 9.31201C19.9288 9.70401 17.9688 10.4798 16.1966 11.6558L14.351 9.79384C13.6895 9.12418 12.6197 9.12418 11.95 9.77751L9.92472 11.7865C9.25506 12.448 9.25506 13.5178 9.90838 14.1875L11.754 16.0494C10.5617 17.8134 9.75322 19.7652 9.34489 21.7824L6.72342 21.766C5.78427 21.7579 5.02478 22.5173 5.01661 23.4565L5.00028 26.3148C4.99211 27.2458 5.7516 28.0134 6.69076 28.0216ZM19.6429 19.5856C22.6319 16.6293 27.442 16.6538 30.3983 19.6427C33.3546 22.6317 33.3301 27.4418 30.3411 30.3981C27.3522 33.3544 22.5421 33.3299 19.5858 30.3409C16.6295 27.352 16.654 22.5418 19.6429 19.5856Z" fill="#FCFDFF"/>
</g>
<defs>
<linearGradient id="paint0_linear_1453_17995" x1="11.4679" y1="50" x2="49.0659" y2="-1.3987" gradientUnits="userSpaceOnUse">
<stop offset="0.103794" stop-color="#013781"/>
<stop offset="1" stop-color="#287CEE"/>
</linearGradient>
<clipPath id="clip0_1453_17995">
<rect width="40" height="40" fill="white" transform="translate(5 5)"/>
</clipPath>
</defs>
</svg>
