<svg width="24" height="24" viewBox="0 0 24 24" fill="none" xmlns="http://www.w3.org/2000/svg">
<path d="M1.01457 13.813L2.58745 13.8228C2.82265 15.0331 3.28814 16.209 3.99373 17.2772L2.87655 18.3846C2.47475 18.7815 2.47475 19.4234 2.86675 19.8252L4.07213 21.0453C4.46903 21.4471 5.11092 21.4471 5.51271 21.0551L6.6299 19.9477C7.68829 20.6631 8.85937 21.1482 10.0697 21.3932L10.0599 22.9661C10.055 23.5295 10.5107 23.9852 11.0741 23.9901L12.7891 23.9999C13.3526 24.0048 13.8083 23.5491 13.8132 22.9857L13.823 21.4128C15.0333 21.1776 16.2093 20.7121 17.2775 20.0065L18.3849 21.1237C18.7817 21.5255 19.4236 21.5255 19.8254 21.1335L21.0455 19.9281C21.4473 19.5312 21.4473 18.8893 21.0553 18.4875L19.9479 17.3703C20.6633 16.3119 21.1484 15.1409 21.3934 13.9306L22.9663 13.9404C23.5298 13.9453 23.9855 13.4896 23.9904 12.9261L24.0002 11.2111C24.0051 10.6476 23.5494 10.1919 22.9859 10.187L21.413 10.1772C21.1778 8.96693 20.7123 7.79094 20.0067 6.72276L21.1239 5.61537C21.5257 5.21847 21.5257 4.57658 21.1337 4.17479L19.9283 2.9547C19.5314 2.55291 18.8895 2.55291 18.4878 2.9449L17.3706 4.05229C16.3122 3.3369 15.1411 2.8518 13.9308 2.60681L13.9406 1.03393C13.9455 0.470433 13.4898 0.014739 12.9263 0.00983903L11.2113 3.91485e-05C10.6479 -0.00486079 10.1922 0.450834 10.1873 1.01433L10.1726 2.58721C8.95737 2.8224 7.78139 3.2879 6.7181 3.99349L5.61071 2.8763C5.21382 2.47451 4.57193 2.47451 4.17013 2.8665L2.95495 4.07189C2.55315 4.46878 2.55315 5.11068 2.94515 5.51247L4.05253 6.62966C3.33714 7.68804 2.85205 8.85913 2.60705 10.0694L1.03417 10.0596C0.470677 10.0547 0.0149831 10.5104 0.0100832 11.0739L0.000283289 12.7889C-0.00461665 13.3475 0.451078 13.8081 1.01457 13.813ZM8.78587 8.75133C10.5793 6.97755 13.4653 6.99225 15.2391 8.78563C17.0129 10.579 16.9982 13.4651 15.2048 15.2388C13.4114 17.0126 10.5254 16.9979 8.75157 15.2045C6.9778 13.4112 6.9925 10.5251 8.78587 8.75133Z" fill="#A6A4A8"/>
</svg>
