<svg width="24" height="24" viewBox="0 0 24 24" fill="none" xmlns="http://www.w3.org/2000/svg">
<path d="M23.6001 11.9999C23.6001 18.3999 18.4001 23.5999 12 23.5999C5.60001 23.5999 0.400024 18.3999 0.400024 11.9999C0.400024 5.59993 5.60005 0.399902 12 0.399902C18.4 0.399902 23.6001 5.59993 23.6001 11.9999Z" fill="#FFE100"/>
<path d="M18.4 7.99989C18.4 8.87987 17.68 9.59987 16.8001 9.59987C15.9201 9.59987 15.2001 8.87987 15.2001 7.99989C15.2001 7.1199 15.9201 6.3999 16.8001 6.3999C17.68 6.3999 18.4 7.11986 18.4 7.99989Z" fill="#63D3FD"/>
<path d="M16.8 6.3999C16.5999 6.3999 16.4 6.43989 16.2 6.5199C16.8 6.7599 17.1999 7.31992 17.1999 7.99989C17.1999 8.6799 16.8 9.23987 16.2 9.47987C16.4 9.55989 16.5999 9.59987 16.8 9.59987C17.6799 9.59987 18.3999 8.87987 18.3999 7.99989C18.3999 7.1199 17.6799 6.3999 16.8 6.3999Z" fill="#3DB9F9"/>
<path d="M12 0.399902C11.8 0.399902 11.6 0.399902 11.4 0.399902C17.52 0.719918 22.4 5.7999 22.4 11.9999C22.4 18.1999 17.52 23.2799 11.4 23.5999C11.6 23.5999 11.8 23.5999 12 23.5999C18.4 23.5999 23.6 18.3999 23.6 11.9999C23.6 5.59989 18.4 0.399902 12 0.399902Z" fill="#FFA800"/>
<path d="M12 0.399902C12.2001 0.399902 12.4 0.399902 12.6 0.399902C6.48004 0.719918 1.60002 5.7999 1.60002 11.9999C1.60002 18.1999 6.48004 23.2799 12.6 23.5999C12.4 23.5999 12.2001 23.5999 12 23.5999C5.60006 23.5999 0.400024 18.3999 0.400024 11.9999C0.400024 5.59993 5.60006 0.399902 12 0.399902Z" fill="white"/>
<path d="M6.55998 13.6001C6.11996 13.6001 5.87996 14.0801 6.11996 14.4401C7.39998 16.3601 9.51995 17.6001 12 17.6001C14.48 17.6001 16.5999 16.3601 17.9199 14.4401C18.1599 14.0801 17.9199 13.6001 17.4799 13.6001H6.55998Z" fill="#63D3FD"/>
<path d="M17.48 13.6001H16.28C16.72 13.6001 16.96 14.0801 16.72 14.4401C15.52 16.2001 13.64 17.4001 11.4 17.5601C11.6 17.5601 11.8 17.6001 12 17.6001C14.48 17.6001 16.6 16.3601 17.92 14.4401C18.16 14.0801 17.88 13.6001 17.48 13.6001Z" fill="#3DB9F9"/>
<path d="M12 24C5.4 24 0 18.6 0 12C0 5.4 5.4 0 12 0C18.6 0 24 5.4 24 12C24 18.6 18.6 24 12 24ZM12 0.800016C5.84002 0.800016 0.800016 5.84002 0.800016 12C0.800016 18.16 5.84002 23.2 12 23.2C18.16 23.2 23.2 18.16 23.2 12C23.2 5.84002 18.16 0.800016 12 0.800016Z" fill="black"/>
<path d="M12 17.9998C9.52003 17.9998 7.16006 16.7598 5.76004 14.6797C5.56003 14.3998 5.56003 13.9997 5.72006 13.7197C5.88004 13.3997 6.20006 13.2397 6.56006 13.2397H17.4801C17.8401 13.2397 18.1601 13.4398 18.3201 13.7197C18.48 14.0398 18.48 14.3998 18.2801 14.6797C16.84 16.7598 14.4801 17.9998 12 17.9998ZM6.56006 13.9998C6.48004 13.9998 6.44006 14.0398 6.44006 14.0798C6.44006 14.1198 6.40007 14.1598 6.44006 14.2398C7.68004 16.0798 9.76003 17.1997 12 17.1997C14.2401 17.1997 16.32 16.0798 17.56 14.2397C17.6 14.1597 17.6 14.1197 17.56 14.0797C17.56 14.0398 17.52 13.9997 17.44 13.9997L6.56006 13.9998Z" fill="black"/>
<path d="M16.7999 9.99998C15.68 9.99998 14.7999 9.12 14.7999 7.99997C14.7999 6.87994 15.68 6 16.7999 6C17.9199 6 18.8 6.87998 18.8 8.00002C18.8 9.12005 17.9199 9.99998 16.7999 9.99998ZM16.7999 6.80002C16.1199 6.80002 15.5999 7.32 15.5999 8.00002C15.5999 8.68003 16.1199 9.20002 16.7999 9.20002C17.48 9.20002 17.9999 8.68003 17.9999 8.00002C17.9999 7.32 17.48 6.80002 16.7999 6.80002Z" fill="black"/>
<path d="M8.79994 7.99989C8.79994 8.87987 8.07994 9.59987 7.19996 9.59987C6.31998 9.59987 5.59998 8.87987 5.59998 7.99989C5.59998 7.1199 6.31998 6.3999 7.19996 6.3999C8.07994 6.3999 8.79994 7.11986 8.79994 7.99989Z" fill="#63D3FD"/>
<path d="M7.19998 6.3999C6.99996 6.3999 6.79999 6.43989 6.59998 6.5199C7.19998 6.7599 7.59996 7.31992 7.59996 7.99989C7.59996 8.6799 7.19998 9.23987 6.59998 9.47987C6.79999 9.55989 6.99996 9.59987 7.19998 9.59987C8.07996 9.59987 8.79996 8.87987 8.79996 7.99989C8.79996 7.1199 8.07996 6.3999 7.19998 6.3999Z" fill="#3DB9F9"/>
<path d="M7.19997 9.99998C6.07998 9.99998 5.19995 9.12 5.19995 7.99997C5.19995 6.87994 6.07998 6 7.19997 6C8.31995 6 9.19998 6.87998 9.19998 8.00002C9.19998 9.12005 8.31995 9.99998 7.19997 9.99998ZM7.19997 6.80002C6.51995 6.80002 5.99997 7.32 5.99997 8.00002C5.99997 8.68003 6.51995 9.20002 7.19997 9.20002C7.87998 9.20002 8.39997 8.68003 8.39997 8.00002C8.39997 7.32 7.87998 6.80002 7.19997 6.80002Z" fill="black"/>
</svg>
