<svg width="50" height="50" viewBox="0 0 50 50" fill="none" xmlns="http://www.w3.org/2000/svg">
<rect width="50" height="50" rx="4" fill="url(#paint0_linear_2220_18269)"/>
<path d="M25 8.33398C15.81 8.33398 8.33334 15.8107 8.33334 25.0007V31.9056C8.33334 33.6123 9.82834 35.0007 11.6667 35.0007H13.3333C13.7754 35.0007 14.1993 34.8251 14.5118 34.5125C14.8244 34.1999 15 33.776 15 33.334V24.7623C15 24.3203 14.8244 23.8964 14.5118 23.5838C14.1993 23.2712 13.7754 23.0957 13.3333 23.0957H11.82C12.7467 16.6457 18.2967 11.6673 25 11.6673C31.7033 11.6673 37.2533 16.6457 38.18 23.0957H36.6667C36.2246 23.0957 35.8007 23.2712 35.4882 23.5838C35.1756 23.8964 35 24.3203 35 24.7623V35.0007C35 36.839 33.505 38.334 31.6667 38.334H28.3333V36.6673H21.6667V41.6673H31.6667C35.3433 41.6673 38.3333 38.6773 38.3333 35.0007C40.1717 35.0007 41.6667 33.6123 41.6667 31.9056V25.0007C41.6667 15.8107 34.19 8.33398 25 8.33398Z" fill="white"/>
<defs>
<linearGradient id="paint0_linear_2220_18269" x1="11.4679" y1="50" x2="49.0659" y2="-1.3987" gradientUnits="userSpaceOnUse">
<stop offset="0.103794" stop-color="#013781"/>
<stop offset="1" stop-color="#287CEE"/>
</linearGradient>
</defs>
</svg>
