<svg width="80" height="76" viewBox="0 0 80 76" fill="none" xmlns="http://www.w3.org/2000/svg">
<path d="M77.2856 15.3648H78.8158C79.47 15.3648 80 14.8347 80 14.1806V7.07594C80 6.42188 79.47 5.89172 78.8158 5.89172H77.2856C76.0036 5.89172 74.9608 4.84891 74.9608 3.56703V1.18422C74.9608 0.530156 74.4308 0 73.7766 0H22.2102C21.5559 0 21.0259 0.530156 21.0259 1.18422C21.0259 1.83828 21.5559 2.36844 22.2102 2.36844H72.5923V3.56703C72.5923 6.15484 74.6977 8.26016 77.2856 8.26016H77.6316V12.9964H77.2856C74.6977 12.9964 72.5923 15.1016 72.5923 17.6895C72.5923 20.2775 74.6977 22.3827 77.2856 22.3827H77.6316V27.1189H77.2856C74.6977 27.1189 72.5923 29.2241 72.5923 31.8119V34.4966H70.4956L56.3598 31.3134H66.8591C67.5133 31.3134 68.0433 30.7833 68.0433 30.1292V6.73578C68.0433 6.08172 67.5133 5.55156 66.8591 5.55156H13.1409C12.4867 5.55156 11.9567 6.08172 11.9567 6.73578V30.1292C11.9567 30.7833 12.4867 31.3134 13.1409 31.3134H16.1797L15.4628 34.4966H7.4075V33.298C7.4075 30.7102 5.30219 28.6048 2.71437 28.6048H2.36844V23.8686H2.71437C5.30219 23.8686 7.4075 21.7633 7.4075 19.1755C7.4075 16.5877 5.30219 14.4823 2.71437 14.4823H2.36844V9.74625H2.71437C5.30219 9.74625 7.4075 7.64109 7.4075 5.05312V2.36844H15.1873C15.8416 2.36844 16.3716 1.83828 16.3716 1.18422C16.3716 0.530156 15.8416 0 15.1873 0H6.22328C5.56906 0 5.03906 0.530156 5.03906 1.18422V5.05312C5.03906 6.33484 3.99625 7.37781 2.71437 7.37781H1.18422C0.53 7.37781 0 7.90797 0 8.56203V15.6667C0 16.3208 0.53 16.8509 1.18422 16.8509H2.71437C3.99625 16.8509 5.03906 17.8938 5.03906 19.1756C5.03906 20.4577 3.99625 21.5003 2.71437 21.5003H1.18422C0.53 21.5003 0 22.0305 0 22.6845V29.7892C0 30.4433 0.53 30.9734 1.18422 30.9734H2.71437C3.99625 30.9734 5.03906 32.0163 5.03906 33.2981V35.6809C5.03906 36.335 5.56906 36.8652 6.22328 36.8652H14.9294L14.8462 37.2339L14.1833 40.178C14.1833 40.1783 14.1833 40.1784 14.1831 40.1788L9.90297 59.1867C9.71625 60.0158 9.86453 60.8698 10.3209 61.5914C10.7772 62.313 11.4853 62.8133 12.3144 62.9999L65.4545 74.9661C65.6881 75.0188 65.9238 75.0447 66.1578 75.0447C66.7544 75.0447 67.3409 74.8758 67.8592 74.548C68.5806 74.0917 69.0808 73.3836 69.2677 72.5545L69.9481 69.5327C70.0919 68.8945 69.6911 68.2609 69.053 68.1174C68.4153 67.9734 67.7813 68.3744 67.6377 69.0125L66.9572 72.0344C66.9094 72.2464 66.7802 72.4283 66.5933 72.5464C66.4062 72.6647 66.1867 72.703 65.9748 72.6555L12.8345 60.6895C12.6225 60.6419 12.4408 60.5127 12.3227 60.3258C12.2044 60.1389 12.1656 59.9192 12.2134 59.7074L16.2338 41.8536L70.9772 54.1808L70.0383 58.3498C69.8945 58.988 70.2953 59.6217 70.9334 59.7653C71.5716 59.9094 72.2052 59.5083 72.3488 58.8702L76.7825 39.1825C76.9692 38.3534 76.8209 37.4994 76.3645 36.7778C76.0209 36.2344 75.5344 35.8169 74.9608 35.5639V31.812C74.9608 30.5303 76.0036 29.4875 77.2856 29.4875H78.8158C79.47 29.4875 80 28.9573 80 28.3033V21.1986C80.0002 20.5444 79.4702 20.0142 78.8159 20.0142H77.2858C76.0037 20.0142 74.9609 18.9714 74.9609 17.6895C74.9609 16.4077 76.0037 15.3648 77.2856 15.3648ZM14.3252 28.945V7.92H65.6752V28.945H45.8419L21.2306 23.403C20.4017 23.2164 19.5477 23.3647 18.8261 23.8211C18.1047 24.2773 17.6045 24.9855 17.4177 25.8145L16.7128 28.945H14.3252V28.945ZM71.4973 51.8702L16.7541 39.543L18.0384 33.8395L72.7817 46.1667L71.4973 51.8702ZM74.4722 38.6622L73.3025 43.8561L18.5586 31.5288L18.8192 30.3713C18.8195 30.3697 18.82 30.368 18.8203 30.3664L19.7283 26.3348C19.7761 26.1228 19.9053 25.9409 20.0922 25.8228C20.2794 25.7045 20.4984 25.6658 20.7106 25.7138L69.5809 36.7184C69.7502 36.8117 69.9445 36.8652 70.1516 36.8652H70.232L73.8506 37.68C74.293 37.7794 74.5716 38.2202 74.4722 38.6622Z" fill="#32496F"/>
<path d="M47.1182 53.2601C46.9502 52.9946 46.6838 52.807 46.3775 52.7379L22.6678 47.399C22.3616 47.3301 22.04 47.3856 21.7747 47.5534C21.5092 47.7212 21.3214 47.9878 21.2524 48.294L20.1864 53.0279C20.0427 53.666 20.4435 54.2996 21.0816 54.4432L44.7911 59.7821C44.8788 59.8018 44.9661 59.8114 45.0522 59.8114C45.5938 59.8114 46.0824 59.4374 46.2064 58.887L47.2725 54.1531C47.3417 53.8468 47.2863 53.5256 47.1182 53.2601ZM44.1561 57.2118L22.7571 52.3932L23.3027 49.9698L44.7017 54.7884L44.1561 57.2118Z" fill="#32496F"/>
<path d="M59.962 55.7966L51.5653 53.9058C51.2591 53.8369 50.9375 53.8924 50.6722 54.0602C50.4067 54.228 50.2189 54.4946 50.1498 54.8008L49.0839 59.5348C48.9401 60.1729 49.3409 60.8065 49.9791 60.9501L58.3758 62.8408C58.4619 62.8602 58.5492 62.8697 58.6358 62.8697C58.8581 62.8697 59.0778 62.8072 59.2687 62.6865C59.5342 62.5187 59.722 62.2521 59.7911 61.9458L60.857 57.2119C61.0009 56.574 60.6002 55.9404 59.962 55.7966ZM57.7408 60.2705L51.6545 58.9001L52.2001 56.4766L58.2864 57.8471L57.7408 60.2705Z" fill="#32496F"/>
</svg>
