<svg width="80" height="80" viewBox="0 0 80 80" fill="none" xmlns="http://www.w3.org/2000/svg">
<path d="M77.2856 17.8424H78.8158C79.47 17.8424 80 17.3122 80 16.6582V9.55348C80 8.89942 79.47 8.36926 78.8158 8.36926H77.2856C76.0036 8.36926 74.9608 7.32645 74.9608 6.04457V3.66176C74.9608 3.0077 74.4308 2.47754 73.7766 2.47754H22.2102C21.5559 2.47754 21.0259 3.0077 21.0259 3.66176C21.0259 4.31582 21.5559 4.84598 22.2102 4.84598H72.5923V6.04457C72.5923 8.63238 74.6977 10.7377 77.2856 10.7377H77.6316V15.4739H77.2856C74.6977 15.4739 72.5923 17.5791 72.5923 20.1671C72.5923 22.755 74.6977 24.8602 77.2856 24.8602H77.6316V29.5964H77.2856C74.6977 29.5964 72.5923 31.7016 72.5923 34.2894V36.9741H70.4956L56.3598 33.791H66.8591C67.5133 33.791 68.0433 33.2608 68.0433 32.6068V9.21332C68.0433 8.55926 67.5133 8.0291 66.8591 8.0291H13.1409C12.4867 8.0291 11.9567 8.55926 11.9567 9.21332V32.6068C11.9567 33.2608 12.4867 33.791 13.1409 33.791H16.1797L15.4628 36.9741H7.4075V35.7755C7.4075 33.1877 5.30219 31.0824 2.71437 31.0824H2.36844V26.3461H2.71437C5.30219 26.3461 7.4075 24.2408 7.4075 21.653C7.4075 19.0652 5.30219 16.9599 2.71437 16.9599H2.36844V12.2238H2.71437C5.30219 12.2238 7.4075 10.1186 7.4075 7.53066V4.84598H15.1873C15.8416 4.84598 16.3716 4.31582 16.3716 3.66176C16.3716 3.0077 15.8416 2.47754 15.1873 2.47754H6.22328C5.56906 2.47754 5.03906 3.0077 5.03906 3.66176V7.53066C5.03906 8.81238 3.99625 9.85535 2.71437 9.85535H1.18422C0.53 9.85535 0 10.3855 0 11.0396V18.1443C0 18.7983 0.53 19.3285 1.18422 19.3285H2.71437C3.99625 19.3285 5.03906 20.3713 5.03906 21.6532C5.03906 22.9352 3.99625 23.9779 2.71437 23.9779H1.18422C0.53 23.9779 0 24.508 0 25.1621V32.2668C0 32.9208 0.53 33.451 1.18422 33.451H2.71437C3.99625 33.451 5.03906 34.4938 5.03906 35.7757V38.1585C5.03906 38.8125 5.56906 39.3427 6.22328 39.3427H14.9294L14.8462 39.7115L14.1833 42.6555C14.1833 42.6558 14.1833 42.656 14.1831 42.6563L9.90297 61.6643C9.71625 62.4933 9.86453 63.3474 10.3209 64.069C10.7772 64.7905 11.4853 65.2908 12.3144 65.4774L65.4545 77.4436C65.6881 77.4963 65.9238 77.5222 66.1578 77.5222C66.7544 77.5222 67.3409 77.3533 67.8592 77.0255C68.5806 76.5693 69.0808 75.8611 69.2677 75.0321L69.9481 72.0102C70.0919 71.3721 69.6911 70.7385 69.053 70.5949C68.4153 70.451 67.7813 70.8519 67.6377 71.49L66.9572 74.5119C66.9094 74.724 66.7802 74.9058 66.5933 75.024C66.4062 75.1422 66.1867 75.1805 65.9748 75.133L12.8345 63.1671C12.6225 63.1194 12.4408 62.9902 12.3227 62.8033C12.2044 62.6164 12.1656 62.3968 12.2134 62.1849L16.2338 44.3311L70.9772 56.6583L70.0383 60.8274C69.8945 61.4655 70.2953 62.0993 70.9334 62.2429C71.5716 62.3869 72.2052 61.9858 72.3488 61.3477L76.7825 41.66C76.9692 40.831 76.8209 39.9769 76.3645 39.2554C76.0209 38.7119 75.5344 38.2944 74.9608 38.0415V34.2896C74.9608 33.0079 76.0036 31.965 77.2856 31.965H78.8158C79.47 31.965 80 31.4349 80 30.7808V23.6761C80.0002 23.0219 79.4702 22.4918 78.8159 22.4918H77.2858C76.0037 22.4918 74.9609 21.4489 74.9609 20.1671C74.9609 18.8852 76.0037 17.8424 77.2856 17.8424ZM14.3252 31.4225V10.3975H65.6752V31.4225H45.8419L21.2306 25.8805C20.4017 25.6939 19.5477 25.8422 18.8261 26.2986C18.1047 26.7549 17.6045 27.463 17.4177 28.2921L16.7128 31.4225H14.3252V31.4225ZM71.4973 54.3477L16.7541 42.0205L18.0384 36.3171L72.7817 48.6443L71.4973 54.3477ZM74.4722 41.1397L73.3025 46.3336L18.5586 34.0063L18.8192 32.8488C18.8195 32.8472 18.82 32.8455 18.8203 32.8439L19.7283 28.8124C19.7761 28.6004 19.9053 28.4185 20.0922 28.3004C20.2794 28.1821 20.4984 28.1433 20.7106 28.1913L69.5809 39.196C69.7502 39.2893 69.9445 39.3427 70.1516 39.3427H70.232L73.8506 40.1575C74.293 40.2569 74.5716 40.6977 74.4722 41.1397Z" fill="#32496F"/>
<path d="M47.1182 55.7376C46.9502 55.4722 46.6838 55.2845 46.3775 55.2155L22.6678 49.8765C22.3616 49.8076 22.04 49.8631 21.7747 50.0309C21.5092 50.1987 21.3214 50.4653 21.2524 50.7715L20.1864 55.5055C20.0427 56.1436 20.4435 56.7772 21.0816 56.9208L44.7911 62.2597C44.8788 62.2794 44.9661 62.2889 45.0522 62.2889C45.5938 62.2889 46.0824 61.915 46.2064 61.3645L47.2725 56.6306C47.3417 56.3244 47.2863 56.0031 47.1182 55.7376ZM44.1561 59.6894L22.7571 54.8708L23.3027 52.4473L44.7017 57.2659L44.1561 59.6894Z" fill="#32496F"/>
<path d="M59.962 58.2742L51.5653 56.3834C51.2591 56.3145 50.9375 56.3699 50.6722 56.5378C50.4067 56.7056 50.2189 56.9721 50.1498 57.2784L49.0839 62.0123C48.9401 62.6504 49.3409 63.284 49.9791 63.4276L58.3758 65.3184C58.4619 65.3378 58.5492 65.3473 58.6358 65.3473C58.8581 65.3473 59.0778 65.2848 59.2687 65.164C59.5342 64.9962 59.722 64.7296 59.7911 64.4234L60.857 59.6895C61.0009 59.0515 60.6002 58.4179 59.962 58.2742ZM57.7408 62.7481L51.6545 61.3776L52.2001 58.9542L58.2864 60.3246L57.7408 62.7481Z" fill="#32496F"/>
</svg>
