<svg width="24" height="22" viewBox="0 0 24 22" fill="none" xmlns="http://www.w3.org/2000/svg">
<path d="M17.9647 3.55067C17.6183 3.55067 17.2725 3.58065 16.9309 3.64013C15.6843 1.73063 13.5626 0.568359 11.2544 0.568359C8.36779 0.568359 5.82604 2.38566 4.87024 5.05831C2.14877 5.27286 0 7.55602 0 10.3316C0 13.2485 2.37302 15.6215 5.2898 15.6215H8.48981V20.2419C8.48981 20.6927 8.8553 21.0582 9.30613 21.0582H14.6939C15.1447 21.0582 15.5102 20.6927 15.5102 20.2419V15.6215H17.9646C21.2926 15.6215 24 12.9141 24 9.58609C24 6.25808 21.2927 3.55067 17.9647 3.55067ZM14.694 11.3439C14.2431 11.3439 13.8776 11.7095 13.8776 12.1602V19.4256H10.1225V12.1602C10.1225 11.7094 9.75704 11.3439 9.30621 11.3439H8.58314L12.0001 7.92693L15.4171 11.3439H14.694ZM17.9647 13.9888H15.5103V12.9766H17.3879C17.718 12.9766 18.0157 12.7777 18.1421 12.4726C18.2684 12.1676 18.1985 11.8165 17.9652 11.5829L12.5774 6.19521C12.2585 5.8765 11.7418 5.8765 11.4229 6.19521L6.03517 11.5829C5.80172 11.8165 5.7319 12.1675 5.8582 12.4726C5.98459 12.7776 6.2822 12.9766 6.61247 12.9766H8.49005V13.9888H5.29004C3.27347 13.9888 1.63289 12.3482 1.63289 10.3316C1.63289 8.31505 3.27347 6.67448 5.29004 6.67448C5.34143 6.67448 5.39242 6.67642 5.44341 6.67844C5.82968 6.69598 6.17182 6.43884 6.26766 6.06567C6.85126 3.79027 8.90209 2.20101 11.2547 2.20101C13.1686 2.20101 14.9138 3.25411 15.8093 4.94938C15.9895 5.29056 16.3839 5.45872 16.755 5.35318C17.15 5.24046 17.5571 5.18341 17.9649 5.18341C20.3926 5.18341 22.3677 7.15844 22.3677 9.58617C22.3677 12.0139 20.3924 13.9888 17.9647 13.9888Z" fill="#32496F"/>
</svg>
