<svg width="19" height="19" viewBox="0 0 19 19" fill="none" xmlns="http://www.w3.org/2000/svg">
<path d="M0.551426 8.0006H2.20057V13.6668C2.20057 13.7852 2.25298 13.8972 2.34335 13.9736C2.43414 14.0492 2.55493 14.0824 2.67015 14.0604C3.29131 13.9508 3.76333 14.026 4.11408 14.2912C4.88248 14.87 5.86761 15.1891 6.88758 15.1891H8.44752C9.35387 15.1891 10.1799 15.6147 10.6578 16.3275C10.8226 16.5739 10.8906 16.7795 10.8398 16.8783C10.7634 17.0259 10.3755 17.1843 9.67907 17.2046C9.46027 17.2111 9.28787 17.3922 9.2911 17.6102C9.29391 17.829 9.47232 18.0046 9.69107 18.0046L12.0578 18.0042C13.2466 17.957 14.0285 17.8138 14.5389 17.5418L16.8088 16.1546C16.9272 16.0818 17 15.9527 17 15.8131V8.0006H18.6C18.7656 8.0006 18.9135 7.8986 18.9735 7.7442C19.0327 7.59022 18.9911 7.41501 18.8684 7.3042L11.6858 0.807224C10.4819 -0.269129 8.66792 -0.269551 7.46398 0.808817L0.28303 7.3042C0.160221 7.41501 0.118645 7.59017 0.177846 7.7442C0.237844 7.8986 0.385823 8.0006 0.551426 8.0006ZM12.2002 13.2004C11.3178 13.2004 10.6003 12.4828 10.6003 11.6005C10.6003 10.7181 11.3179 10.0005 12.2002 10.0005C13.0826 10.0005 13.8001 10.7181 13.8001 11.6005C13.8001 12.4828 13.0826 13.2004 12.2002 13.2004ZM7.40037 5.20066C8.28276 5.20066 9.0003 5.91825 9.0003 6.80059C9.0003 7.68294 8.28272 8.40052 7.40037 8.40052C6.51803 8.40052 5.80044 7.68294 5.80044 6.80059C5.80044 5.91825 6.51798 5.20066 7.40037 5.20066ZM5.91763 12.5176L13.1174 5.31789C13.2737 5.16148 13.5266 5.16148 13.6829 5.31789C13.8393 5.47431 13.8393 5.7271 13.6829 5.88347L6.4832 13.0832C6.4052 13.1612 6.30279 13.2004 6.20041 13.2004C6.098 13.2004 5.99563 13.1612 5.91763 13.0832C5.76121 12.9268 5.76121 12.674 5.91763 12.5176Z" fill="#161616"/>
</svg>
