<svg width="24" height="20" viewBox="0 0 24 20" fill="none" xmlns="http://www.w3.org/2000/svg">
<path d="M23.9352 8.52799L20.8588 1.24774C20.7303 0.943751 20.4322 0.746094 20.1022 0.746094H3.89779C3.56774 0.746094 3.26977 0.943751 3.14121 1.24774L0.064764 8.52799C-0.0424419 8.7815 -0.0152845 9.07202 0.136819 9.30143C0.289031 9.53096 0.546041 9.66882 0.821338 9.66882H1.82156V18.4321C1.82156 18.8858 2.18928 19.2534 2.64285 19.2534H21.3572C21.8108 19.2534 22.1785 18.8858 22.1785 18.4321V9.66882H23.1786C23.4539 9.66882 23.711 9.53085 23.8632 9.30143C24.0154 9.07202 24.0424 8.7815 23.9352 8.52799ZM16.7581 16.2631V11.1074H19.594V16.2631H16.7581ZM4.58603 16.2313V11.1392H7.40163V16.2313H4.58603ZM9.04433 11.1392H11.86V16.2313H9.04433V11.1392Z" fill="#161616"/>
</svg>
