<svg width="14" height="24" viewBox="0 0 14 24" fill="none" xmlns="http://www.w3.org/2000/svg">
<path d="M12.6326 4.89796H11.4081V2.93878C11.4081 2.66831 11.1888 2.44898 10.9183 2.44898H9.69382V0.489796C9.69382 0.219331 9.47449 0 9.20402 0H4.79586C4.52539 0 4.30606 0.219331 4.30606 0.489796V2.44898H3.08157C2.81111 2.44898 2.59178 2.66831 2.59178 2.93878V4.89796H1.36729C0.82714 4.89796 0.387695 5.3374 0.387695 5.87755V23.0204C0.387695 23.5606 0.82714 24 1.36729 24H12.6326C13.1727 24 13.6122 23.5606 13.6122 23.0204V5.87755C13.6122 5.3374 13.1727 4.89796 12.6326 4.89796ZM5.28565 0.979592H8.71423V2.44898H5.28565V0.979592ZM3.57137 3.42857H10.4285V4.89796H3.57137V3.42857ZM12.6326 9.30612H9.44892V10.2857H12.6326V17.6327H9.44892V18.6122H12.6326V23.0204H1.36729V18.6122H4.55096V17.6327H1.36729V10.2857H4.55096V9.30612H1.36729V5.87755H12.6326V9.30612Z" fill="#161616"/>
</svg>
