<svg width="24" height="16" viewBox="0 0 24 16" fill="none" xmlns="http://www.w3.org/2000/svg">
<path d="M23.151 6.04507H19.8499V6.04502L17.1995 0.994098C17.0528 0.714582 16.7633 0.539551 16.4476 0.539551H3.99197C3.59025 0.539551 3.24356 0.821035 3.16102 1.21422L2.14711 6.04507H0.849047C0.380156 6.04507 0 6.42522 0 6.89411C0 7.69066 0 11.5998 0 12.3994C0 12.8683 0.380156 13.2484 0.849047 13.2484H3.60169H4.14C4.99055 16.1968 9.18647 16.1999 10.038 13.2484H13.0573C13.908 16.1972 18.1035 16.1993 18.9547 13.2484H23.151C23.6198 13.2484 24 12.8683 24 12.3994C24 11.6028 24 7.69366 24 6.89411C24 6.42522 23.6198 6.04507 23.151 6.04507ZM2.75264 11.5503H1.69809V10.4958H2.75264V11.5503ZM7.08895 13.7703C6.33286 13.7703 5.71762 13.1552 5.71762 12.3991C5.71762 10.6293 8.36498 10.5727 8.45822 12.3255C8.45925 12.3498 8.45995 12.3743 8.45995 12.3993C8.45995 12.4005 8.46014 12.4016 8.46014 12.4029C8.45813 13.1572 7.84383 13.7703 7.08895 13.7703ZM10.2375 6.04497H3.88223L4.68136 2.23764H10.2375V6.04497ZM12.5471 10.4956H11.4528C10.9839 10.4956 10.6038 10.1155 10.6038 9.64657C10.6038 9.17768 10.9839 8.79752 11.4528 8.79752H12.5471C13.016 8.79752 13.3962 9.17768 13.3962 9.64657C13.3962 10.1155 13.016 10.4956 12.5471 10.4956ZM16.0063 13.7703C15.2502 13.7703 14.6349 13.1552 14.6349 12.3991C14.6349 10.6438 17.2838 10.5629 17.3751 12.3274C17.376 12.3511 17.3768 12.3749 17.3768 12.3993C17.3768 12.4001 17.3768 12.4008 17.3768 12.4015C17.3756 13.1565 16.7613 13.7703 16.0063 13.7703ZM11.9356 6.04502V2.23769H15.9344L17.9322 6.04502H11.9356ZM22.3019 8.79766H21.2474V7.74311H22.3019V8.79766Z" fill="#161616"/>
</svg>
